G04*
G04 #@! TF.GenerationSoftware,Altium Limited,Altium Designer,23.8.1 (32)*
G04*
G04 Layer_Physical_Order=2*
G04 Layer_Color=32768*
%FSLAX25Y25*%
%MOIN*%
G70*
G04*
G04 #@! TF.SameCoordinates,08085802-0E6A-4E4E-A806-44F487ACA516*
G04*
G04*
G04 #@! TF.FilePolarity,Negative*
G04*
G01*
G75*
%ADD72C,0.04000*%
%ADD73C,0.05143*%
%ADD74C,0.02800*%
D72*
X175000Y194499D02*
G03*
X185000Y184500I10250J251D01*
G01*
X430501Y184500D02*
G03*
X440500Y194500I-251J10250D01*
G01*
X440500Y303501D02*
G03*
X430500Y313500I-10250J-251D01*
G01*
X184999Y313500D02*
G03*
X175000Y303500I251J-10250D01*
G01*
X185000Y184500D02*
X430501Y184500D01*
X440500Y303501D02*
X440500Y194500D01*
X184999Y313500D02*
X430500Y313500D01*
X175000Y194499D02*
X175000Y303500D01*
D73*
X203500Y221200D02*
D03*
X297000Y196000D02*
D03*
X287000D02*
D03*
X277000D02*
D03*
X267000D02*
D03*
X257000D02*
D03*
X247000D02*
D03*
X237000D02*
D03*
X227000D02*
D03*
X217000D02*
D03*
X315000D02*
D03*
X325000D02*
D03*
X335000D02*
D03*
X345000D02*
D03*
X355000D02*
D03*
X365000D02*
D03*
X375000D02*
D03*
X385000D02*
D03*
X395000D02*
D03*
X345000Y300500D02*
D03*
X355000D02*
D03*
X365000D02*
D03*
X375000D02*
D03*
X385000D02*
D03*
X395000D02*
D03*
X217000D02*
D03*
X227000D02*
D03*
X237000D02*
D03*
X247000D02*
D03*
X257000D02*
D03*
X267000D02*
D03*
D74*
X409000Y233600D02*
D03*
X404000D02*
D03*
X414000D02*
D03*
X419000D02*
D03*
X404000Y257275D02*
D03*
Y240250D02*
D03*
Y245925D02*
D03*
Y251600D02*
D03*
X409000Y257275D02*
D03*
Y240250D02*
D03*
Y245925D02*
D03*
Y251600D02*
D03*
X414000D02*
D03*
Y257275D02*
D03*
X419000Y251600D02*
D03*
Y257275D02*
D03*
X414000Y240250D02*
D03*
Y245925D02*
D03*
X419000Y240250D02*
D03*
Y245925D02*
D03*
X185200Y254325D02*
D03*
X195200Y271350D02*
D03*
X185200Y260000D02*
D03*
Y265675D02*
D03*
Y271350D02*
D03*
X190200Y254325D02*
D03*
Y260000D02*
D03*
Y265675D02*
D03*
Y271350D02*
D03*
X195200Y248650D02*
D03*
Y254325D02*
D03*
Y260000D02*
D03*
Y265675D02*
D03*
X185200Y248650D02*
D03*
X200200Y254325D02*
D03*
X190200Y248650D02*
D03*
X200200D02*
D03*
Y260000D02*
D03*
Y265675D02*
D03*
Y271350D02*
D03*
X330600Y229400D02*
D03*
X323347Y229500D02*
D03*
X314200Y275600D02*
D03*
X331800Y276300D02*
D03*
X329000Y267500D02*
D03*
X311000Y276000D02*
D03*
X314106Y271606D02*
D03*
X312000Y264389D02*
D03*
X293000Y259000D02*
D03*
X217500Y251200D02*
D03*
X226858Y256000D02*
D03*
X267200Y253282D02*
D03*
X267600Y265500D02*
D03*
X270200Y263600D02*
D03*
X231929Y256000D02*
D03*
X237000D02*
D03*
X346500Y246000D02*
D03*
X342500Y255000D02*
D03*
X376622Y257000D02*
D03*
X350000D02*
D03*
X364756D02*
D03*
X313500Y281500D02*
D03*
X316500Y279000D02*
D03*
X312000Y213000D02*
D03*
X325500Y240000D02*
D03*
Y245500D02*
D03*
X294000Y206500D02*
D03*
X293000Y242500D02*
D03*
X274900Y274000D02*
D03*
Y279000D02*
D03*
Y284000D02*
D03*
X274500Y289000D02*
D03*
X346500Y262500D02*
D03*
X293000Y266000D02*
D03*
X290500Y273500D02*
D03*
X357250Y244000D02*
D03*
X352000D02*
D03*
X381872Y256872D02*
D03*
X354756Y257000D02*
D03*
X359756D02*
D03*
X277511Y266390D02*
D03*
X331700Y245500D02*
D03*
Y240000D02*
D03*
X345000Y268000D02*
D03*
X338500Y274000D02*
D03*
X344729Y240618D02*
D03*
X281358Y277358D02*
D03*
X281217Y268717D02*
D03*
X282941Y256500D02*
D03*
Y251000D02*
D03*
X291104Y282368D02*
D03*
X405000Y289000D02*
D03*
X405000Y274000D02*
D03*
Y279000D02*
D03*
Y284000D02*
D03*
X338500Y284000D02*
D03*
Y279000D02*
D03*
Y289000D02*
D03*
X208000D02*
D03*
Y284000D02*
D03*
Y279000D02*
D03*
Y274000D02*
D03*
X386500Y256872D02*
D03*
X391872D02*
D03*
X228785Y281673D02*
D03*
Y287173D02*
D03*
X223535D02*
D03*
Y276173D02*
D03*
X229035D02*
D03*
X223535Y281673D02*
D03*
X234035Y276173D02*
D03*
Y287173D02*
D03*
Y281673D02*
D03*
X256250Y281000D02*
D03*
Y286500D02*
D03*
X251000D02*
D03*
Y275500D02*
D03*
X256500D02*
D03*
X251000Y281000D02*
D03*
X261500Y275500D02*
D03*
Y286500D02*
D03*
Y281000D02*
D03*
X356250Y281500D02*
D03*
Y287000D02*
D03*
X351000D02*
D03*
Y276000D02*
D03*
X356500D02*
D03*
X351000Y281500D02*
D03*
X361500Y276000D02*
D03*
Y287000D02*
D03*
Y281500D02*
D03*
X385250Y281000D02*
D03*
Y286500D02*
D03*
X380000D02*
D03*
Y275500D02*
D03*
X385500D02*
D03*
X380000Y281000D02*
D03*
X390500Y275500D02*
D03*
Y286500D02*
D03*
Y281000D02*
D03*
X357250Y238500D02*
D03*
X352000Y233000D02*
D03*
X357500D02*
D03*
X352000Y238500D02*
D03*
X362500Y233000D02*
D03*
Y244000D02*
D03*
Y238500D02*
D03*
X384250Y238000D02*
D03*
Y243500D02*
D03*
X379000D02*
D03*
Y232500D02*
D03*
X384500D02*
D03*
X379000Y238000D02*
D03*
X389500Y232500D02*
D03*
Y243500D02*
D03*
Y238000D02*
D03*
X228750D02*
D03*
Y243500D02*
D03*
X223500D02*
D03*
Y232500D02*
D03*
X229000D02*
D03*
X223500Y238000D02*
D03*
X234000Y232500D02*
D03*
Y243500D02*
D03*
Y238000D02*
D03*
X254750D02*
D03*
Y243500D02*
D03*
X249500D02*
D03*
Y232500D02*
D03*
X254750D02*
D03*
X249500Y238000D02*
D03*
X260000Y232500D02*
D03*
Y243500D02*
D03*
Y238000D02*
D03*
X277441Y251000D02*
D03*
M02*
