G04*
G04 #@! TF.GenerationSoftware,Altium Limited,Altium Designer,23.8.1 (32)*
G04*
G04 Layer_Color=65535*
%FSLAX25Y25*%
%MOIN*%
G70*
G04*
G04 #@! TF.SameCoordinates,08085802-0E6A-4E4E-A806-44F487ACA516*
G04*
G04*
G04 #@! TF.FilePolarity,Positive*
G04*
G01*
G75*
%ADD10C,0.00787*%
%ADD11C,0.00799*%
%ADD12C,0.01000*%
%ADD13C,0.00800*%
%ADD14C,0.00600*%
%ADD15C,0.00700*%
%ADD16C,0.00500*%
%ADD17C,0.00400*%
%ADD18C,0.00300*%
%ADD19R,0.02400X0.06299*%
%ADD20R,0.00492X0.01476*%
%ADD21R,0.02264X0.01476*%
%ADD22R,0.02362X0.01476*%
G36*
X196610Y236972D02*
Y205476D01*
X195371D01*
X192923Y205864D01*
X190565Y206630D01*
X188356Y207755D01*
X186351Y209212D01*
X184598Y210965D01*
X183141Y212971D01*
X182016Y215179D01*
X181250Y217537D01*
X180862Y219985D01*
Y222464D01*
X181250Y224912D01*
X182016Y227270D01*
X183141Y229478D01*
X184598Y231484D01*
X186351Y233236D01*
X188356Y234693D01*
X190565Y235819D01*
X192923Y236585D01*
X195371Y236972D01*
X196610D01*
D01*
D02*
G37*
G36*
X428339Y265452D02*
X426894D01*
Y265926D01*
X428339D01*
Y265452D01*
D02*
G37*
G36*
X430539Y264300D02*
X430018D01*
X428526Y268143D01*
X429082D01*
X430077Y265353D01*
Y265347D01*
X430082Y265335D01*
X430088Y265318D01*
X430100Y265295D01*
X430118Y265230D01*
X430147Y265148D01*
X430182Y265049D01*
X430217Y264944D01*
X430281Y264721D01*
Y264727D01*
X430287Y264733D01*
X430293Y264751D01*
X430299Y264774D01*
X430316Y264838D01*
X430340Y264920D01*
X430369Y265014D01*
X430404Y265119D01*
X430445Y265236D01*
X430486Y265353D01*
X431527Y268143D01*
X432042D01*
X430539Y264300D01*
D02*
G37*
G36*
X409660D02*
X409139D01*
X407648Y268143D01*
X408203D01*
X409198Y265353D01*
Y265347D01*
X409204Y265335D01*
X409209Y265318D01*
X409221Y265295D01*
X409239Y265230D01*
X409268Y265148D01*
X409303Y265049D01*
X409338Y264944D01*
X409403Y264721D01*
Y264727D01*
X409408Y264733D01*
X409414Y264751D01*
X409420Y264774D01*
X409438Y264838D01*
X409461Y264920D01*
X409490Y265014D01*
X409525Y265119D01*
X409566Y265236D01*
X409607Y265353D01*
X410649Y268143D01*
X411164D01*
X409660Y264300D01*
D02*
G37*
G36*
X434090D02*
X433616D01*
Y267307D01*
X433610Y267301D01*
X433587Y267278D01*
X433546Y267248D01*
X433493Y267208D01*
X433428Y267155D01*
X433353Y267102D01*
X433265Y267038D01*
X433165Y266979D01*
X433159D01*
X433154Y266973D01*
X433118Y266950D01*
X433066Y266921D01*
X433002Y266886D01*
X432926Y266845D01*
X432843Y266810D01*
X432756Y266769D01*
X432674Y266734D01*
Y267196D01*
X432680D01*
X432691Y267202D01*
X432715Y267213D01*
X432738Y267231D01*
X432773Y267248D01*
X432814Y267266D01*
X432908Y267319D01*
X433013Y267383D01*
X433130Y267459D01*
X433247Y267547D01*
X433358Y267640D01*
X433364Y267646D01*
X433370Y267652D01*
X433405Y267687D01*
X433458Y267740D01*
X433522Y267804D01*
X433592Y267886D01*
X433663Y267974D01*
X433727Y268067D01*
X433780Y268161D01*
X434090D01*
Y264300D01*
D02*
G37*
G36*
X426350Y267693D02*
X424080D01*
Y266511D01*
X426204D01*
Y266061D01*
X424080D01*
Y264751D01*
X426438D01*
Y264300D01*
X423571D01*
Y268143D01*
X426350D01*
Y267693D01*
D02*
G37*
G36*
X422161Y264300D02*
X421688D01*
Y267307D01*
X421682Y267301D01*
X421658Y267278D01*
X421617Y267248D01*
X421565Y267208D01*
X421500Y267155D01*
X421424Y267102D01*
X421337Y267038D01*
X421237Y266979D01*
X421231D01*
X421226Y266973D01*
X421190Y266950D01*
X421138Y266921D01*
X421073Y266886D01*
X420997Y266845D01*
X420915Y266810D01*
X420828Y266769D01*
X420746Y266734D01*
Y267196D01*
X420752D01*
X420763Y267202D01*
X420787Y267213D01*
X420810Y267231D01*
X420845Y267248D01*
X420886Y267266D01*
X420980Y267319D01*
X421085Y267383D01*
X421202Y267459D01*
X421319Y267547D01*
X421430Y267640D01*
X421436Y267646D01*
X421442Y267652D01*
X421477Y267687D01*
X421530Y267740D01*
X421594Y267804D01*
X421664Y267886D01*
X421734Y267974D01*
X421799Y268067D01*
X421851Y268161D01*
X422161D01*
Y264300D01*
D02*
G37*
G36*
X416931Y267728D02*
X416926Y267722D01*
X416914Y267711D01*
X416896Y267687D01*
X416867Y267658D01*
X416838Y267617D01*
X416797Y267570D01*
X416750Y267512D01*
X416703Y267453D01*
X416651Y267383D01*
X416592Y267301D01*
X416528Y267219D01*
X416469Y267126D01*
X416405Y267026D01*
X416335Y266921D01*
X416270Y266804D01*
X416200Y266687D01*
X416194Y266681D01*
X416183Y266657D01*
X416165Y266622D01*
X416142Y266576D01*
X416113Y266517D01*
X416078Y266447D01*
X416037Y266365D01*
X415996Y266277D01*
X415955Y266184D01*
X415908Y266078D01*
X415861Y265967D01*
X415814Y265850D01*
X415727Y265610D01*
X415645Y265353D01*
Y265347D01*
X415639Y265330D01*
X415633Y265306D01*
X415621Y265271D01*
X415610Y265224D01*
X415598Y265172D01*
X415586Y265107D01*
X415568Y265043D01*
X415557Y264967D01*
X415539Y264885D01*
X415510Y264709D01*
X415487Y264511D01*
X415469Y264300D01*
X414984D01*
Y264306D01*
Y264323D01*
Y264347D01*
X414989Y264382D01*
Y264423D01*
X414995Y264475D01*
X415001Y264540D01*
X415007Y264604D01*
X415019Y264680D01*
X415030Y264768D01*
X415042Y264856D01*
X415060Y264949D01*
X415077Y265055D01*
X415100Y265160D01*
X415159Y265394D01*
Y265400D01*
X415165Y265423D01*
X415177Y265458D01*
X415188Y265505D01*
X415206Y265564D01*
X415229Y265628D01*
X415253Y265704D01*
X415282Y265792D01*
X415317Y265880D01*
X415352Y265979D01*
X415434Y266190D01*
X415533Y266412D01*
X415645Y266634D01*
X415650Y266640D01*
X415662Y266663D01*
X415680Y266693D01*
X415703Y266734D01*
X415732Y266786D01*
X415767Y266845D01*
X415808Y266909D01*
X415849Y266985D01*
X415955Y267143D01*
X416072Y267313D01*
X416194Y267482D01*
X416329Y267646D01*
X414445D01*
Y268097D01*
X416931D01*
Y267728D01*
D02*
G37*
G36*
X406010Y268138D02*
X406056D01*
X406173Y268132D01*
X406296Y268120D01*
X406425Y268097D01*
X406548Y268073D01*
X406606Y268056D01*
X406659Y268038D01*
X406665D01*
X406671Y268032D01*
X406706Y268021D01*
X406753Y267991D01*
X406811Y267950D01*
X406881Y267904D01*
X406952Y267839D01*
X407022Y267763D01*
X407086Y267670D01*
X407092Y267658D01*
X407109Y267623D01*
X407139Y267570D01*
X407168Y267500D01*
X407197Y267412D01*
X407226Y267313D01*
X407244Y267208D01*
X407250Y267091D01*
Y267085D01*
Y267073D01*
Y267050D01*
X407244Y267020D01*
Y266985D01*
X407238Y266944D01*
X407215Y266851D01*
X407185Y266739D01*
X407139Y266628D01*
X407068Y266511D01*
X407027Y266453D01*
X406981Y266400D01*
X406969Y266389D01*
X406952Y266377D01*
X406934Y266353D01*
X406905Y266336D01*
X406870Y266307D01*
X406829Y266283D01*
X406782Y266254D01*
X406729Y266225D01*
X406665Y266195D01*
X406601Y266166D01*
X406524Y266137D01*
X406448Y266108D01*
X406361Y266084D01*
X406267Y266067D01*
X406168Y266049D01*
X406179Y266043D01*
X406203Y266032D01*
X406238Y266014D01*
X406279Y265991D01*
X406378Y265926D01*
X406431Y265891D01*
X406472Y265856D01*
X406483Y265844D01*
X406513Y265821D01*
X406554Y265774D01*
X406606Y265716D01*
X406671Y265640D01*
X406741Y265552D01*
X406817Y265452D01*
X406893Y265341D01*
X407560Y264300D01*
X406922D01*
X406413Y265096D01*
Y265102D01*
X406401Y265113D01*
X406390Y265131D01*
X406378Y265154D01*
X406337Y265213D01*
X406285Y265289D01*
X406226Y265376D01*
X406162Y265464D01*
X406103Y265546D01*
X406045Y265622D01*
X406039Y265628D01*
X406021Y265651D01*
X405992Y265686D01*
X405963Y265727D01*
X405875Y265809D01*
X405834Y265850D01*
X405787Y265880D01*
X405781Y265885D01*
X405770Y265891D01*
X405746Y265903D01*
X405717Y265920D01*
X405647Y265955D01*
X405559Y265985D01*
X405553D01*
X405542Y265991D01*
X405518D01*
X405489Y265997D01*
X405448Y266002D01*
X405401D01*
X405343Y266008D01*
X404688D01*
Y264300D01*
X404178D01*
Y268143D01*
X405963D01*
X406010Y268138D01*
D02*
G37*
G36*
X401874D02*
X401979Y268132D01*
X402096Y268120D01*
X402207Y268103D01*
X402301Y268085D01*
X402307D01*
X402318Y268079D01*
X402330D01*
X402353Y268067D01*
X402418Y268050D01*
X402494Y268021D01*
X402582Y267986D01*
X402675Y267939D01*
X402769Y267880D01*
X402862Y267810D01*
X402868D01*
X402874Y267798D01*
X402915Y267763D01*
X402968Y267705D01*
X403032Y267629D01*
X403108Y267535D01*
X403184Y267424D01*
X403254Y267295D01*
X403319Y267149D01*
Y267143D01*
X403324Y267131D01*
X403330Y267108D01*
X403342Y267079D01*
X403354Y267044D01*
X403365Y266997D01*
X403383Y266944D01*
X403395Y266886D01*
X403406Y266821D01*
X403424Y266751D01*
X403447Y266599D01*
X403465Y266429D01*
X403471Y266242D01*
Y266236D01*
Y266225D01*
Y266201D01*
Y266166D01*
X403465Y266131D01*
Y266084D01*
X403459Y265979D01*
X403447Y265862D01*
X403424Y265727D01*
X403401Y265593D01*
X403365Y265464D01*
Y265458D01*
X403360Y265447D01*
X403354Y265429D01*
X403348Y265406D01*
X403324Y265347D01*
X403295Y265265D01*
X403260Y265177D01*
X403213Y265084D01*
X403161Y264990D01*
X403102Y264903D01*
X403096Y264891D01*
X403073Y264867D01*
X403044Y264826D01*
X402997Y264774D01*
X402950Y264721D01*
X402886Y264663D01*
X402821Y264604D01*
X402751Y264551D01*
X402745Y264546D01*
X402716Y264534D01*
X402675Y264511D01*
X402622Y264481D01*
X402558Y264452D01*
X402482Y264423D01*
X402394Y264394D01*
X402295Y264364D01*
X402283D01*
X402248Y264353D01*
X402195Y264347D01*
X402119Y264335D01*
X402032Y264323D01*
X401926Y264312D01*
X401809Y264306D01*
X401681Y264300D01*
X400300D01*
Y268143D01*
X401774D01*
X401874Y268138D01*
D02*
G37*
G36*
X418763Y268155D02*
X418833Y268143D01*
X418915Y268132D01*
X419008Y268108D01*
X419102Y268073D01*
X419190Y268032D01*
X419201Y268026D01*
X419231Y268009D01*
X419272Y267980D01*
X419330Y267945D01*
X419389Y267892D01*
X419453Y267828D01*
X419517Y267757D01*
X419576Y267675D01*
X419582Y267664D01*
X419599Y267635D01*
X419628Y267582D01*
X419663Y267517D01*
X419699Y267436D01*
X419739Y267336D01*
X419780Y267225D01*
X419816Y267102D01*
Y267096D01*
X419822Y267085D01*
Y267067D01*
X419827Y267038D01*
X419839Y267009D01*
X419845Y266968D01*
X419851Y266915D01*
X419862Y266862D01*
X419868Y266798D01*
X419874Y266734D01*
X419886Y266657D01*
X419892Y266576D01*
X419898Y266488D01*
Y266400D01*
X419903Y266195D01*
Y266190D01*
Y266166D01*
Y266131D01*
Y266084D01*
X419898Y266026D01*
Y265961D01*
X419892Y265885D01*
X419886Y265804D01*
X419868Y265628D01*
X419845Y265447D01*
X419810Y265265D01*
X419786Y265183D01*
X419763Y265102D01*
Y265096D01*
X419757Y265084D01*
X419751Y265060D01*
X419739Y265031D01*
X419722Y264996D01*
X419704Y264961D01*
X419658Y264867D01*
X419599Y264762D01*
X419529Y264657D01*
X419447Y264551D01*
X419348Y264458D01*
X419342D01*
X419336Y264446D01*
X419318Y264440D01*
X419301Y264423D01*
X419236Y264388D01*
X419160Y264347D01*
X419055Y264306D01*
X418938Y264271D01*
X418804Y264247D01*
X418651Y264236D01*
X418599D01*
X418558Y264242D01*
X418511Y264247D01*
X418458Y264259D01*
X418400Y264271D01*
X418335Y264282D01*
X418195Y264329D01*
X418119Y264364D01*
X418049Y264399D01*
X417973Y264446D01*
X417903Y264499D01*
X417838Y264557D01*
X417774Y264628D01*
X417768Y264633D01*
X417756Y264651D01*
X417739Y264680D01*
X417715Y264721D01*
X417686Y264774D01*
X417657Y264838D01*
X417622Y264914D01*
X417587Y265008D01*
X417552Y265107D01*
X417517Y265224D01*
X417487Y265353D01*
X417458Y265493D01*
X417435Y265651D01*
X417417Y265815D01*
X417405Y266002D01*
X417400Y266195D01*
Y266201D01*
Y266225D01*
Y266260D01*
Y266307D01*
X417405Y266365D01*
Y266429D01*
X417411Y266506D01*
X417417Y266587D01*
X417435Y266763D01*
X417458Y266944D01*
X417487Y267126D01*
X417511Y267208D01*
X417534Y267289D01*
Y267295D01*
X417540Y267307D01*
X417552Y267330D01*
X417563Y267359D01*
X417575Y267395D01*
X417593Y267436D01*
X417639Y267529D01*
X417698Y267635D01*
X417768Y267740D01*
X417850Y267839D01*
X417949Y267933D01*
X417955D01*
X417961Y267945D01*
X417979Y267956D01*
X418002Y267968D01*
X418061Y268003D01*
X418143Y268050D01*
X418242Y268091D01*
X418365Y268126D01*
X418499Y268149D01*
X418651Y268161D01*
X418704D01*
X418763Y268155D01*
D02*
G37*
G36*
X412760D02*
X412807D01*
X412854Y268143D01*
X412971Y268126D01*
X413100Y268091D01*
X413234Y268038D01*
X413305Y268003D01*
X413369Y267968D01*
X413433Y267921D01*
X413492Y267868D01*
X413498Y267863D01*
X413503Y267857D01*
X413521Y267839D01*
X413539Y267816D01*
X413562Y267787D01*
X413591Y267752D01*
X413650Y267670D01*
X413702Y267564D01*
X413755Y267441D01*
X413790Y267307D01*
X413796Y267231D01*
X413802Y267155D01*
Y267143D01*
Y267108D01*
X413796Y267061D01*
X413784Y266997D01*
X413767Y266921D01*
X413743Y266845D01*
X413708Y266763D01*
X413661Y266687D01*
X413656Y266681D01*
X413638Y266657D01*
X413603Y266622D01*
X413556Y266576D01*
X413498Y266529D01*
X413422Y266482D01*
X413334Y266429D01*
X413234Y266389D01*
X413240D01*
X413252Y266383D01*
X413269Y266377D01*
X413293Y266365D01*
X413357Y266336D01*
X413433Y266301D01*
X413521Y266248D01*
X413609Y266184D01*
X413696Y266102D01*
X413772Y266014D01*
X413778Y266002D01*
X413802Y265967D01*
X413831Y265915D01*
X413866Y265839D01*
X413901Y265751D01*
X413931Y265646D01*
X413954Y265528D01*
X413960Y265400D01*
Y265394D01*
Y265376D01*
Y265353D01*
X413954Y265318D01*
X413948Y265277D01*
X413942Y265224D01*
X413919Y265107D01*
X413872Y264979D01*
X413849Y264908D01*
X413813Y264838D01*
X413772Y264768D01*
X413726Y264698D01*
X413673Y264633D01*
X413609Y264569D01*
X413603Y264563D01*
X413591Y264557D01*
X413574Y264540D01*
X413544Y264516D01*
X413509Y264493D01*
X413468Y264464D01*
X413422Y264435D01*
X413363Y264405D01*
X413299Y264370D01*
X413229Y264341D01*
X413153Y264312D01*
X413071Y264288D01*
X412989Y264265D01*
X412895Y264247D01*
X412796Y264242D01*
X412690Y264236D01*
X412638D01*
X412597Y264242D01*
X412550Y264247D01*
X412491Y264253D01*
X412433Y264265D01*
X412363Y264277D01*
X412216Y264317D01*
X412140Y264347D01*
X412064Y264376D01*
X411988Y264417D01*
X411912Y264458D01*
X411842Y264511D01*
X411772Y264569D01*
X411766Y264575D01*
X411754Y264587D01*
X411743Y264604D01*
X411719Y264628D01*
X411690Y264663D01*
X411661Y264704D01*
X411631Y264751D01*
X411602Y264803D01*
X411567Y264862D01*
X411538Y264926D01*
X411479Y265066D01*
X411456Y265148D01*
X411444Y265230D01*
X411433Y265318D01*
X411427Y265411D01*
Y265417D01*
Y265429D01*
Y265447D01*
X411433Y265476D01*
Y265505D01*
X411438Y265546D01*
X411450Y265628D01*
X411474Y265727D01*
X411509Y265833D01*
X411550Y265938D01*
X411614Y266037D01*
Y266043D01*
X411626Y266049D01*
X411649Y266078D01*
X411696Y266125D01*
X411754Y266178D01*
X411830Y266236D01*
X411924Y266295D01*
X412035Y266348D01*
X412158Y266389D01*
X412152D01*
X412146Y266394D01*
X412111Y266406D01*
X412058Y266435D01*
X411994Y266464D01*
X411918Y266511D01*
X411848Y266564D01*
X411778Y266622D01*
X411719Y266693D01*
X411713Y266704D01*
X411696Y266728D01*
X411672Y266769D01*
X411649Y266827D01*
X411626Y266897D01*
X411602Y266979D01*
X411585Y267067D01*
X411579Y267166D01*
Y267172D01*
Y267184D01*
Y267208D01*
X411585Y267237D01*
X411590Y267272D01*
X411596Y267313D01*
X411614Y267412D01*
X411649Y267523D01*
X411707Y267640D01*
X411737Y267705D01*
X411778Y267763D01*
X411825Y267822D01*
X411877Y267874D01*
X411883Y267880D01*
X411889Y267886D01*
X411906Y267904D01*
X411930Y267921D01*
X411965Y267939D01*
X412000Y267968D01*
X412041Y267991D01*
X412094Y268021D01*
X412205Y268073D01*
X412345Y268114D01*
X412503Y268149D01*
X412585Y268155D01*
X412679Y268161D01*
X412725D01*
X412760Y268155D01*
D02*
G37*
G36*
X432100Y221447D02*
X431304Y220938D01*
X431298D01*
X431287Y220926D01*
X431269Y220915D01*
X431246Y220903D01*
X431187Y220862D01*
X431111Y220809D01*
X431024Y220751D01*
X430936Y220687D01*
X430854Y220628D01*
X430778Y220569D01*
X430772Y220564D01*
X430749Y220546D01*
X430714Y220517D01*
X430673Y220488D01*
X430591Y220400D01*
X430550Y220359D01*
X430520Y220312D01*
X430515Y220306D01*
X430509Y220295D01*
X430497Y220271D01*
X430480Y220242D01*
X430444Y220172D01*
X430415Y220084D01*
Y220078D01*
X430409Y220066D01*
Y220043D01*
X430404Y220014D01*
X430398Y219973D01*
Y219926D01*
X430392Y219867D01*
Y219212D01*
X432100D01*
Y218703D01*
X428257D01*
Y220488D01*
X428262Y220534D01*
Y220581D01*
X428268Y220698D01*
X428280Y220821D01*
X428303Y220950D01*
X428327Y221073D01*
X428344Y221131D01*
X428362Y221184D01*
Y221190D01*
X428368Y221196D01*
X428379Y221231D01*
X428409Y221277D01*
X428450Y221336D01*
X428496Y221406D01*
X428561Y221476D01*
X428637Y221547D01*
X428730Y221611D01*
X428742Y221617D01*
X428777Y221634D01*
X428830Y221663D01*
X428900Y221693D01*
X428988Y221722D01*
X429087Y221751D01*
X429193Y221769D01*
X429310Y221775D01*
X429315D01*
X429327D01*
X429351D01*
X429380Y221769D01*
X429415D01*
X429456Y221763D01*
X429549Y221740D01*
X429661Y221710D01*
X429772Y221663D01*
X429889Y221593D01*
X429947Y221552D01*
X430000Y221505D01*
X430012Y221494D01*
X430023Y221476D01*
X430047Y221459D01*
X430064Y221429D01*
X430093Y221394D01*
X430117Y221354D01*
X430146Y221307D01*
X430175Y221254D01*
X430205Y221190D01*
X430234Y221125D01*
X430263Y221049D01*
X430292Y220973D01*
X430316Y220885D01*
X430333Y220792D01*
X430351Y220692D01*
X430357Y220704D01*
X430368Y220727D01*
X430386Y220763D01*
X430409Y220803D01*
X430474Y220903D01*
X430509Y220956D01*
X430544Y220997D01*
X430556Y221008D01*
X430579Y221038D01*
X430626Y221078D01*
X430684Y221131D01*
X430760Y221196D01*
X430848Y221266D01*
X430947Y221342D01*
X431059Y221418D01*
X432100Y222085D01*
Y221447D01*
D02*
G37*
G36*
Y215129D02*
X428257D01*
Y217908D01*
X428707D01*
Y215638D01*
X429889D01*
Y217761D01*
X430339D01*
Y215638D01*
X431649D01*
Y217996D01*
X432100D01*
Y215129D01*
D02*
G37*
G36*
Y213591D02*
Y213093D01*
X429175Y212286D01*
X429169D01*
X429157Y212280D01*
X429140Y212274D01*
X429116Y212268D01*
X429052Y212251D01*
X428982Y212233D01*
X428900Y212210D01*
X428830Y212192D01*
X428765Y212175D01*
X428742Y212169D01*
X428724Y212163D01*
X428736D01*
X428765Y212151D01*
X428818Y212140D01*
X428877Y212122D01*
X428953Y212105D01*
X429023Y212087D01*
X429099Y212064D01*
X429175Y212046D01*
X432100Y211239D01*
Y210706D01*
X428257Y209700D01*
Y210221D01*
X430784Y210800D01*
X430790D01*
X430801Y210806D01*
X430825Y210812D01*
X430848Y210818D01*
X430889Y210823D01*
X430930Y210835D01*
X431029Y210859D01*
X431146Y210882D01*
X431281Y210911D01*
X431421Y210935D01*
X431568Y210964D01*
X431562D01*
X431538Y210970D01*
X431509Y210976D01*
X431468Y210987D01*
X431421Y210999D01*
X431369Y211011D01*
X431246Y211046D01*
X431123Y211075D01*
X431006Y211104D01*
X430959Y211116D01*
X430912Y211128D01*
X430877Y211134D01*
X430854Y211139D01*
X428257Y211871D01*
Y212485D01*
X430205Y213035D01*
X430210D01*
X430240Y213047D01*
X430275Y213052D01*
X430328Y213070D01*
X430392Y213082D01*
X430468Y213105D01*
X430556Y213123D01*
X430649Y213146D01*
X430749Y213169D01*
X430854Y213193D01*
X431088Y213245D01*
X431328Y213292D01*
X431568Y213333D01*
X431562D01*
X431550Y213339D01*
X431532D01*
X431503Y213345D01*
X431468Y213356D01*
X431427Y213362D01*
X431381Y213374D01*
X431328Y213386D01*
X431205Y213415D01*
X431059Y213444D01*
X430901Y213485D01*
X430731Y213526D01*
X428257Y214123D01*
Y214638D01*
X432100Y213591D01*
D02*
G37*
G36*
X430287Y209390D02*
X430339D01*
X430398Y209384D01*
X430462Y209379D01*
X430538Y209367D01*
X430702Y209338D01*
X430877Y209297D01*
X431059Y209238D01*
X431234Y209156D01*
X431240D01*
X431252Y209144D01*
X431275Y209133D01*
X431310Y209115D01*
X431345Y209086D01*
X431392Y209057D01*
X431492Y208986D01*
X431603Y208893D01*
X431720Y208776D01*
X431831Y208641D01*
X431930Y208489D01*
Y208483D01*
X431942Y208472D01*
X431954Y208448D01*
X431965Y208413D01*
X431983Y208372D01*
X432006Y208326D01*
X432024Y208273D01*
X432047Y208208D01*
X432088Y208074D01*
X432129Y207916D01*
X432153Y207740D01*
X432164Y207559D01*
Y207506D01*
X432159Y207466D01*
Y207419D01*
X432153Y207366D01*
X432141Y207302D01*
X432129Y207232D01*
X432100Y207085D01*
X432053Y206922D01*
X431989Y206752D01*
X431954Y206670D01*
X431907Y206588D01*
X431901Y206582D01*
X431895Y206571D01*
X431878Y206547D01*
X431860Y206518D01*
X431831Y206483D01*
X431802Y206442D01*
X431720Y206348D01*
X431614Y206243D01*
X431497Y206132D01*
X431351Y206032D01*
X431193Y205939D01*
X431187D01*
X431170Y205927D01*
X431146Y205921D01*
X431111Y205904D01*
X431070Y205886D01*
X431024Y205869D01*
X430965Y205851D01*
X430901Y205833D01*
X430831Y205810D01*
X430760Y205792D01*
X430597Y205757D01*
X430421Y205734D01*
X430234Y205722D01*
X430222D01*
X430193D01*
X430140Y205728D01*
X430076D01*
X429994Y205740D01*
X429900Y205751D01*
X429801Y205763D01*
X429684Y205787D01*
X429567Y205816D01*
X429444Y205845D01*
X429321Y205886D01*
X429198Y205939D01*
X429076Y205997D01*
X428953Y206062D01*
X428842Y206143D01*
X428736Y206231D01*
X428730Y206237D01*
X428713Y206255D01*
X428684Y206284D01*
X428649Y206325D01*
X428608Y206377D01*
X428567Y206436D01*
X428514Y206506D01*
X428461Y206588D01*
X428414Y206682D01*
X428362Y206781D01*
X428321Y206892D01*
X428274Y207009D01*
X428245Y207132D01*
X428216Y207267D01*
X428198Y207413D01*
X428192Y207559D01*
Y207612D01*
X428198Y207647D01*
Y207694D01*
X428204Y207752D01*
X428216Y207811D01*
X428222Y207881D01*
X428257Y208027D01*
X428303Y208191D01*
X428362Y208355D01*
X428403Y208437D01*
X428450Y208519D01*
Y208524D01*
X428461Y208536D01*
X428473Y208559D01*
X428496Y208589D01*
X428520Y208624D01*
X428555Y208665D01*
X428631Y208758D01*
X428730Y208864D01*
X428853Y208975D01*
X428994Y209074D01*
X429157Y209168D01*
X429163D01*
X429181Y209180D01*
X429204Y209191D01*
X429239Y209203D01*
X429280Y209221D01*
X429333Y209238D01*
X429391Y209261D01*
X429456Y209285D01*
X429532Y209302D01*
X429608Y209326D01*
X429783Y209361D01*
X429977Y209384D01*
X430187Y209396D01*
X430193D01*
X430210D01*
X430246D01*
X430287Y209390D01*
D02*
G37*
G36*
X429450Y205225D02*
X429491Y205219D01*
X429543Y205213D01*
X429596Y205207D01*
X429655Y205190D01*
X429789Y205155D01*
X429924Y205096D01*
X429994Y205061D01*
X430064Y205020D01*
X430134Y204974D01*
X430199Y204915D01*
X430205Y204909D01*
X430210Y204897D01*
X430228Y204880D01*
X430251Y204856D01*
X430275Y204816D01*
X430304Y204774D01*
X430333Y204722D01*
X430363Y204658D01*
X430398Y204587D01*
X430427Y204505D01*
X430456Y204412D01*
X430480Y204312D01*
X430503Y204195D01*
X430520Y204073D01*
X430526Y203938D01*
X430532Y203792D01*
Y202809D01*
X432100D01*
Y202300D01*
X428257D01*
Y203874D01*
X428262Y203961D01*
X428268Y204055D01*
X428274Y204154D01*
X428286Y204248D01*
X428298Y204330D01*
Y204342D01*
X428309Y204377D01*
X428321Y204429D01*
X428338Y204494D01*
X428362Y204570D01*
X428391Y204646D01*
X428432Y204728D01*
X428479Y204804D01*
X428485Y204810D01*
X428502Y204839D01*
X428532Y204874D01*
X428573Y204915D01*
X428625Y204962D01*
X428689Y205014D01*
X428760Y205067D01*
X428847Y205114D01*
X428859Y205120D01*
X428888Y205131D01*
X428935Y205149D01*
X429000Y205172D01*
X429076Y205196D01*
X429163Y205213D01*
X429263Y205225D01*
X429368Y205231D01*
X429374D01*
X429391D01*
X429415D01*
X429450Y205225D01*
D02*
G37*
G36*
X301100Y218241D02*
X299164Y216872D01*
X299766Y216246D01*
X301100D01*
Y215737D01*
X297257D01*
Y216246D01*
X299158D01*
X297257Y218154D01*
Y218844D01*
X298818Y217229D01*
X301100Y218914D01*
Y218241D01*
D02*
G37*
G36*
Y214638D02*
X300304Y214129D01*
X300299D01*
X300287Y214117D01*
X300269Y214105D01*
X300246Y214094D01*
X300187Y214053D01*
X300111Y214000D01*
X300024Y213942D01*
X299936Y213877D01*
X299854Y213819D01*
X299778Y213760D01*
X299772Y213754D01*
X299749Y213737D01*
X299713Y213707D01*
X299673Y213678D01*
X299591Y213591D01*
X299550Y213549D01*
X299520Y213503D01*
X299515Y213497D01*
X299509Y213485D01*
X299497Y213462D01*
X299480Y213433D01*
X299445Y213362D01*
X299415Y213275D01*
Y213269D01*
X299409Y213257D01*
Y213234D01*
X299404Y213204D01*
X299398Y213163D01*
Y213117D01*
X299392Y213058D01*
Y212403D01*
X301100D01*
Y211894D01*
X297257D01*
Y213678D01*
X297262Y213725D01*
Y213772D01*
X297268Y213889D01*
X297280Y214012D01*
X297303Y214140D01*
X297327Y214263D01*
X297344Y214322D01*
X297362Y214374D01*
Y214380D01*
X297368Y214386D01*
X297379Y214421D01*
X297409Y214468D01*
X297450Y214527D01*
X297496Y214597D01*
X297561Y214667D01*
X297637Y214737D01*
X297730Y214802D01*
X297742Y214807D01*
X297777Y214825D01*
X297830Y214854D01*
X297900Y214883D01*
X297988Y214913D01*
X298087Y214942D01*
X298193Y214959D01*
X298309Y214965D01*
X298315D01*
X298327D01*
X298351D01*
X298380Y214959D01*
X298415D01*
X298456Y214953D01*
X298549Y214930D01*
X298661Y214901D01*
X298772Y214854D01*
X298889Y214784D01*
X298947Y214743D01*
X299000Y214696D01*
X299011Y214685D01*
X299023Y214667D01*
X299047Y214649D01*
X299064Y214620D01*
X299093Y214585D01*
X299117Y214544D01*
X299146Y214497D01*
X299175Y214445D01*
X299205Y214380D01*
X299234Y214316D01*
X299263Y214240D01*
X299292Y214164D01*
X299316Y214076D01*
X299333Y213983D01*
X299351Y213883D01*
X299357Y213895D01*
X299368Y213918D01*
X299386Y213953D01*
X299409Y213994D01*
X299474Y214094D01*
X299509Y214146D01*
X299544Y214187D01*
X299556Y214199D01*
X299579Y214228D01*
X299626Y214269D01*
X299684Y214322D01*
X299760Y214386D01*
X299848Y214456D01*
X299948Y214532D01*
X300059Y214608D01*
X301100Y215275D01*
Y214638D01*
D02*
G37*
G36*
X299287Y211227D02*
X299339D01*
X299398Y211221D01*
X299462Y211215D01*
X299538Y211204D01*
X299702Y211174D01*
X299877Y211134D01*
X300059Y211075D01*
X300234Y210993D01*
X300240D01*
X300252Y210981D01*
X300275Y210970D01*
X300310Y210952D01*
X300345Y210923D01*
X300392Y210894D01*
X300492Y210823D01*
X300603Y210730D01*
X300720Y210613D01*
X300831Y210478D01*
X300930Y210326D01*
Y210320D01*
X300942Y210309D01*
X300954Y210285D01*
X300965Y210250D01*
X300983Y210209D01*
X301006Y210162D01*
X301024Y210110D01*
X301047Y210045D01*
X301088Y209911D01*
X301129Y209753D01*
X301153Y209577D01*
X301164Y209396D01*
Y209343D01*
X301158Y209302D01*
Y209256D01*
X301153Y209203D01*
X301141Y209139D01*
X301129Y209068D01*
X301100Y208922D01*
X301053Y208758D01*
X300989Y208589D01*
X300954Y208507D01*
X300907Y208425D01*
X300901Y208419D01*
X300895Y208407D01*
X300878Y208384D01*
X300860Y208355D01*
X300831Y208320D01*
X300802Y208279D01*
X300720Y208185D01*
X300614Y208080D01*
X300497Y207969D01*
X300351Y207869D01*
X300193Y207776D01*
X300187D01*
X300170Y207764D01*
X300147Y207758D01*
X300111Y207740D01*
X300070Y207723D01*
X300024Y207705D01*
X299965Y207688D01*
X299901Y207670D01*
X299831Y207647D01*
X299760Y207629D01*
X299597Y207594D01*
X299421Y207571D01*
X299234Y207559D01*
X299222D01*
X299193D01*
X299140Y207565D01*
X299076D01*
X298994Y207577D01*
X298900Y207588D01*
X298801Y207600D01*
X298684Y207624D01*
X298567Y207653D01*
X298444Y207682D01*
X298321Y207723D01*
X298198Y207776D01*
X298076Y207834D01*
X297953Y207898D01*
X297842Y207980D01*
X297736Y208068D01*
X297730Y208074D01*
X297713Y208091D01*
X297684Y208121D01*
X297649Y208162D01*
X297607Y208214D01*
X297567Y208273D01*
X297514Y208343D01*
X297461Y208425D01*
X297414Y208519D01*
X297362Y208618D01*
X297321Y208729D01*
X297274Y208846D01*
X297245Y208969D01*
X297216Y209103D01*
X297198Y209250D01*
X297192Y209396D01*
Y209449D01*
X297198Y209484D01*
Y209531D01*
X297204Y209589D01*
X297216Y209648D01*
X297221Y209718D01*
X297257Y209864D01*
X297303Y210028D01*
X297362Y210192D01*
X297403Y210274D01*
X297450Y210355D01*
Y210361D01*
X297461Y210373D01*
X297473Y210396D01*
X297496Y210426D01*
X297520Y210461D01*
X297555Y210502D01*
X297631Y210595D01*
X297730Y210701D01*
X297853Y210812D01*
X297994Y210911D01*
X298158Y211005D01*
X298163D01*
X298181Y211017D01*
X298204Y211028D01*
X298239Y211040D01*
X298280Y211057D01*
X298333Y211075D01*
X298391Y211098D01*
X298456Y211122D01*
X298532Y211139D01*
X298608Y211163D01*
X298783Y211198D01*
X298976Y211221D01*
X299187Y211233D01*
X299193D01*
X299210D01*
X299246D01*
X299287Y211227D01*
D02*
G37*
G36*
X301100Y206190D02*
Y205693D01*
X298175Y204886D01*
X298169D01*
X298158Y204880D01*
X298140Y204874D01*
X298116Y204868D01*
X298052Y204851D01*
X297982Y204833D01*
X297900Y204810D01*
X297830Y204792D01*
X297765Y204774D01*
X297742Y204769D01*
X297725Y204763D01*
X297736D01*
X297765Y204751D01*
X297818Y204739D01*
X297877Y204722D01*
X297953Y204704D01*
X298023Y204687D01*
X298099Y204663D01*
X298175Y204646D01*
X301100Y203839D01*
Y203306D01*
X297257Y202300D01*
Y202821D01*
X299784Y203400D01*
X299790D01*
X299801Y203406D01*
X299825Y203412D01*
X299848Y203417D01*
X299889Y203423D01*
X299930Y203435D01*
X300029Y203458D01*
X300147Y203482D01*
X300281Y203511D01*
X300421Y203534D01*
X300568Y203564D01*
X300562D01*
X300538Y203570D01*
X300509Y203575D01*
X300468Y203587D01*
X300421Y203599D01*
X300369Y203610D01*
X300246Y203645D01*
X300123Y203675D01*
X300006Y203704D01*
X299959Y203716D01*
X299912Y203727D01*
X299877Y203733D01*
X299854Y203739D01*
X297257Y204470D01*
Y205085D01*
X299205Y205634D01*
X299210D01*
X299240Y205646D01*
X299275Y205652D01*
X299327Y205670D01*
X299392Y205681D01*
X299468Y205705D01*
X299556Y205722D01*
X299649Y205746D01*
X299749Y205769D01*
X299854Y205792D01*
X300088Y205845D01*
X300328Y205892D01*
X300568Y205933D01*
X300562D01*
X300550Y205939D01*
X300533D01*
X300503Y205944D01*
X300468Y205956D01*
X300427Y205962D01*
X300380Y205974D01*
X300328Y205985D01*
X300205Y206015D01*
X300059Y206044D01*
X299901Y206085D01*
X299731Y206126D01*
X297257Y206723D01*
Y207237D01*
X301100Y206190D01*
D02*
G37*
%LPC*%
G36*
X405899Y267716D02*
X404688D01*
Y266447D01*
X405834D01*
X405899Y266453D01*
X405974Y266459D01*
X406062Y266464D01*
X406156Y266476D01*
X406244Y266494D01*
X406320Y266517D01*
X406331Y266523D01*
X406355Y266529D01*
X406390Y266546D01*
X406431Y266570D01*
X406478Y266605D01*
X406530Y266646D01*
X406577Y266693D01*
X406618Y266745D01*
X406624Y266751D01*
X406636Y266775D01*
X406653Y266804D01*
X406671Y266851D01*
X406688Y266897D01*
X406706Y266956D01*
X406717Y267020D01*
X406723Y267091D01*
Y267096D01*
Y267102D01*
Y267137D01*
X406712Y267184D01*
X406700Y267248D01*
X406676Y267319D01*
X406641Y267395D01*
X406589Y267471D01*
X406524Y267541D01*
X406513Y267547D01*
X406489Y267570D01*
X406437Y267599D01*
X406372Y267629D01*
X406285Y267664D01*
X406179Y267687D01*
X406051Y267711D01*
X405899Y267716D01*
D02*
G37*
G36*
X401610Y267693D02*
X400809D01*
Y264751D01*
X401686D01*
X401751Y264756D01*
X401838Y264762D01*
X401932Y264768D01*
X402032Y264780D01*
X402125Y264797D01*
X402213Y264821D01*
X402225Y264826D01*
X402248Y264832D01*
X402289Y264850D01*
X402336Y264873D01*
X402394Y264903D01*
X402453Y264932D01*
X402505Y264973D01*
X402558Y265019D01*
X402564Y265025D01*
X402587Y265055D01*
X402622Y265096D01*
X402663Y265148D01*
X402704Y265218D01*
X402751Y265300D01*
X402798Y265400D01*
X402839Y265505D01*
Y265511D01*
X402845Y265517D01*
X402851Y265534D01*
X402856Y265558D01*
X402862Y265587D01*
X402874Y265622D01*
X402892Y265710D01*
X402909Y265821D01*
X402927Y265950D01*
X402938Y266090D01*
X402944Y266248D01*
Y266254D01*
Y266277D01*
Y266307D01*
Y266348D01*
X402938Y266400D01*
X402933Y266459D01*
X402927Y266523D01*
X402921Y266587D01*
X402897Y266739D01*
X402862Y266892D01*
X402810Y267038D01*
X402780Y267108D01*
X402745Y267172D01*
Y267178D01*
X402734Y267184D01*
X402728Y267202D01*
X402710Y267225D01*
X402669Y267284D01*
X402611Y267348D01*
X402540Y267424D01*
X402459Y267494D01*
X402365Y267558D01*
X402266Y267611D01*
X402254Y267617D01*
X402225Y267623D01*
X402178Y267635D01*
X402108Y267652D01*
X402014Y267670D01*
X401903Y267681D01*
X401768Y267687D01*
X401610Y267693D01*
D02*
G37*
G36*
X418646Y267769D02*
X418616D01*
X418593Y267763D01*
X418535Y267757D01*
X418458Y267734D01*
X418376Y267699D01*
X418289Y267652D01*
X418201Y267582D01*
X418160Y267535D01*
X418125Y267488D01*
Y267482D01*
X418113Y267471D01*
X418102Y267447D01*
X418090Y267418D01*
X418072Y267377D01*
X418049Y267330D01*
X418025Y267266D01*
X418008Y267196D01*
X417985Y267114D01*
X417961Y267020D01*
X417944Y266915D01*
X417920Y266792D01*
X417908Y266663D01*
X417897Y266523D01*
X417885Y266365D01*
Y266195D01*
Y266184D01*
Y266154D01*
Y266108D01*
X417891Y266043D01*
Y265967D01*
X417897Y265880D01*
X417903Y265780D01*
X417914Y265681D01*
X417938Y265470D01*
X417979Y265259D01*
X418002Y265166D01*
X418031Y265078D01*
X418066Y264996D01*
X418102Y264932D01*
Y264926D01*
X418113Y264920D01*
X418143Y264885D01*
X418189Y264832D01*
X418254Y264780D01*
X418335Y264721D01*
X418429Y264669D01*
X418535Y264633D01*
X418593Y264628D01*
X418651Y264622D01*
X418681D01*
X418704Y264628D01*
X418763Y264639D01*
X418839Y264663D01*
X418926Y264698D01*
X419014Y264751D01*
X419061Y264786D01*
X419108Y264832D01*
X419155Y264879D01*
X419196Y264932D01*
Y264938D01*
X419207Y264949D01*
X419219Y264967D01*
X419231Y264996D01*
X419248Y265031D01*
X419266Y265084D01*
X419283Y265142D01*
X419307Y265207D01*
X419330Y265289D01*
X419348Y265376D01*
X419365Y265482D01*
X419383Y265599D01*
X419400Y265727D01*
X419406Y265868D01*
X419418Y266026D01*
Y266195D01*
Y266207D01*
Y266236D01*
Y266283D01*
X419412Y266348D01*
Y266424D01*
X419406Y266511D01*
X419400Y266605D01*
X419389Y266710D01*
X419365Y266921D01*
X419324Y267126D01*
X419301Y267225D01*
X419272Y267313D01*
X419236Y267389D01*
X419196Y267453D01*
Y267459D01*
X419184Y267465D01*
X419155Y267500D01*
X419108Y267553D01*
X419043Y267611D01*
X418961Y267670D01*
X418868Y267722D01*
X418763Y267757D01*
X418704Y267763D01*
X418646Y267769D01*
D02*
G37*
G36*
X412690Y267775D02*
X412643D01*
X412597Y267763D01*
X412532Y267752D01*
X412462Y267734D01*
X412386Y267699D01*
X412310Y267658D01*
X412240Y267599D01*
X412234Y267594D01*
X412211Y267570D01*
X412187Y267529D01*
X412152Y267482D01*
X412123Y267424D01*
X412094Y267348D01*
X412070Y267272D01*
X412064Y267184D01*
Y267172D01*
Y267137D01*
X412076Y267091D01*
X412088Y267026D01*
X412105Y266956D01*
X412135Y266886D01*
X412176Y266810D01*
X412234Y266739D01*
X412240Y266734D01*
X412263Y266716D01*
X412304Y266687D01*
X412357Y266657D01*
X412421Y266622D01*
X412503Y266599D01*
X412591Y266576D01*
X412690Y266570D01*
X412737D01*
X412784Y266582D01*
X412848Y266593D01*
X412919Y266611D01*
X412994Y266640D01*
X413071Y266681D01*
X413141Y266739D01*
X413147Y266745D01*
X413170Y266769D01*
X413199Y266804D01*
X413229Y266856D01*
X413264Y266915D01*
X413287Y266991D01*
X413310Y267073D01*
X413316Y267161D01*
Y267166D01*
Y267172D01*
Y267202D01*
X413305Y267254D01*
X413293Y267313D01*
X413269Y267377D01*
X413240Y267453D01*
X413193Y267523D01*
X413135Y267594D01*
X413129Y267599D01*
X413106Y267623D01*
X413065Y267652D01*
X413012Y267687D01*
X412948Y267716D01*
X412872Y267746D01*
X412790Y267769D01*
X412690Y267775D01*
D02*
G37*
G36*
X412679Y266184D02*
X412649D01*
X412626Y266178D01*
X412562Y266172D01*
X412486Y266154D01*
X412398Y266131D01*
X412304Y266090D01*
X412216Y266037D01*
X412129Y265961D01*
X412117Y265950D01*
X412094Y265920D01*
X412058Y265874D01*
X412023Y265809D01*
X411982Y265727D01*
X411947Y265634D01*
X411924Y265523D01*
X411912Y265406D01*
Y265400D01*
Y265371D01*
X411918Y265335D01*
X411924Y265283D01*
X411936Y265224D01*
X411953Y265154D01*
X411977Y265084D01*
X412006Y265014D01*
X412012Y265008D01*
X412023Y264984D01*
X412047Y264949D01*
X412076Y264908D01*
X412117Y264862D01*
X412164Y264809D01*
X412222Y264762D01*
X412287Y264721D01*
X412298Y264715D01*
X412322Y264704D01*
X412357Y264692D01*
X412409Y264674D01*
X412474Y264651D01*
X412538Y264639D01*
X412614Y264628D01*
X412696Y264622D01*
X412731D01*
X412755Y264628D01*
X412813Y264633D01*
X412895Y264651D01*
X412983Y264674D01*
X413076Y264715D01*
X413164Y264768D01*
X413252Y264838D01*
X413264Y264850D01*
X413287Y264879D01*
X413322Y264926D01*
X413363Y264990D01*
X413404Y265066D01*
X413439Y265166D01*
X413462Y265271D01*
X413474Y265394D01*
Y265400D01*
Y265411D01*
Y265429D01*
X413468Y265452D01*
X413462Y265511D01*
X413445Y265593D01*
X413422Y265681D01*
X413381Y265774D01*
X413322Y265868D01*
X413246Y265955D01*
X413234Y265967D01*
X413205Y265991D01*
X413158Y266026D01*
X413094Y266073D01*
X413012Y266113D01*
X412913Y266149D01*
X412802Y266172D01*
X412679Y266184D01*
D02*
G37*
G36*
X429310Y221248D02*
X429304D01*
X429298D01*
X429263D01*
X429216Y221236D01*
X429152Y221225D01*
X429081Y221201D01*
X429005Y221166D01*
X428929Y221114D01*
X428859Y221049D01*
X428853Y221038D01*
X428830Y221014D01*
X428801Y220961D01*
X428771Y220897D01*
X428736Y220809D01*
X428713Y220704D01*
X428689Y220575D01*
X428684Y220423D01*
Y219212D01*
X429953D01*
Y220359D01*
X429947Y220423D01*
X429941Y220499D01*
X429936Y220587D01*
X429924Y220681D01*
X429906Y220768D01*
X429883Y220845D01*
X429877Y220856D01*
X429871Y220880D01*
X429854Y220915D01*
X429830Y220956D01*
X429795Y221002D01*
X429754Y221055D01*
X429707Y221102D01*
X429655Y221143D01*
X429649Y221149D01*
X429626Y221160D01*
X429596Y221178D01*
X429549Y221196D01*
X429503Y221213D01*
X429444Y221231D01*
X429380Y221242D01*
X429310Y221248D01*
D02*
G37*
G36*
X430187Y208870D02*
X430181D01*
X430164D01*
X430140D01*
X430111D01*
X430070Y208864D01*
X430017D01*
X429906Y208852D01*
X429783Y208829D01*
X429643Y208799D01*
X429503Y208758D01*
X429368Y208706D01*
X429362D01*
X429351Y208700D01*
X429333Y208688D01*
X429310Y208677D01*
X429245Y208641D01*
X429169Y208589D01*
X429081Y208524D01*
X428988Y208442D01*
X428900Y208349D01*
X428824Y208244D01*
Y208238D01*
X428818Y208232D01*
X428806Y208214D01*
X428795Y208191D01*
X428765Y208127D01*
X428724Y208045D01*
X428689Y207945D01*
X428660Y207828D01*
X428637Y207699D01*
X428631Y207559D01*
Y207506D01*
X428637Y207471D01*
X428643Y207425D01*
X428649Y207366D01*
X428660Y207308D01*
X428678Y207243D01*
X428724Y207097D01*
X428754Y207021D01*
X428789Y206945D01*
X428830Y206863D01*
X428883Y206787D01*
X428941Y206711D01*
X429005Y206635D01*
X429011Y206629D01*
X429023Y206617D01*
X429046Y206600D01*
X429076Y206576D01*
X429116Y206547D01*
X429169Y206512D01*
X429228Y206477D01*
X429298Y206442D01*
X429380Y206407D01*
X429467Y206372D01*
X429567Y206336D01*
X429684Y206307D01*
X429807Y206284D01*
X429936Y206266D01*
X430082Y206255D01*
X430240Y206249D01*
X430246D01*
X430269D01*
X430304D01*
X430357Y206255D01*
X430415Y206260D01*
X430480Y206266D01*
X430556Y206278D01*
X430638Y206296D01*
X430813Y206336D01*
X430901Y206372D01*
X430994Y206407D01*
X431082Y206448D01*
X431170Y206494D01*
X431258Y206553D01*
X431334Y206617D01*
X431340Y206623D01*
X431351Y206635D01*
X431369Y206658D01*
X431398Y206687D01*
X431427Y206723D01*
X431457Y206764D01*
X431497Y206816D01*
X431532Y206875D01*
X431568Y206939D01*
X431603Y207009D01*
X431638Y207085D01*
X431667Y207173D01*
X431696Y207261D01*
X431714Y207354D01*
X431726Y207448D01*
X431732Y207553D01*
Y207606D01*
X431726Y207647D01*
X431720Y207699D01*
X431708Y207752D01*
X431696Y207817D01*
X431679Y207887D01*
X431632Y208033D01*
X431603Y208115D01*
X431562Y208191D01*
X431515Y208273D01*
X431462Y208349D01*
X431404Y208425D01*
X431334Y208495D01*
X431328Y208501D01*
X431316Y208513D01*
X431293Y208530D01*
X431258Y208554D01*
X431217Y208583D01*
X431164Y208612D01*
X431106Y208647D01*
X431041Y208682D01*
X430959Y208717D01*
X430877Y208753D01*
X430784Y208782D01*
X430678Y208811D01*
X430567Y208835D01*
X430450Y208852D01*
X430322Y208864D01*
X430187Y208870D01*
D02*
G37*
G36*
X429386Y204704D02*
X429374D01*
X429345D01*
X429298Y204698D01*
X429239Y204687D01*
X429175Y204675D01*
X429105Y204652D01*
X429035Y204623D01*
X428970Y204581D01*
X428964Y204576D01*
X428941Y204558D01*
X428912Y204535D01*
X428877Y204494D01*
X428842Y204447D01*
X428801Y204394D01*
X428771Y204330D01*
X428742Y204260D01*
Y204254D01*
X428736Y204236D01*
X428730Y204201D01*
X428724Y204154D01*
X428719Y204090D01*
X428713Y204008D01*
X428707Y203903D01*
Y202809D01*
X430082D01*
Y203844D01*
X430076Y203879D01*
Y203921D01*
X430070Y203961D01*
X430058Y204067D01*
X430035Y204184D01*
X430006Y204301D01*
X429959Y204406D01*
X429930Y204453D01*
X429900Y204494D01*
X429894Y204505D01*
X429865Y204529D01*
X429824Y204558D01*
X429766Y204599D01*
X429696Y204640D01*
X429608Y204669D01*
X429503Y204693D01*
X429386Y204704D01*
D02*
G37*
G36*
X298309Y214439D02*
X298304D01*
X298298D01*
X298263D01*
X298216Y214427D01*
X298152Y214415D01*
X298081Y214392D01*
X298005Y214357D01*
X297929Y214304D01*
X297859Y214240D01*
X297853Y214228D01*
X297830Y214205D01*
X297801Y214152D01*
X297771Y214088D01*
X297736Y214000D01*
X297713Y213895D01*
X297689Y213766D01*
X297684Y213614D01*
Y212403D01*
X298953D01*
Y213549D01*
X298947Y213614D01*
X298941Y213690D01*
X298936Y213778D01*
X298924Y213871D01*
X298906Y213959D01*
X298883Y214035D01*
X298877Y214047D01*
X298871Y214070D01*
X298854Y214105D01*
X298830Y214146D01*
X298795Y214193D01*
X298754Y214246D01*
X298707Y214293D01*
X298655Y214333D01*
X298649Y214339D01*
X298625Y214351D01*
X298596Y214369D01*
X298549Y214386D01*
X298503Y214404D01*
X298444Y214421D01*
X298380Y214433D01*
X298309Y214439D01*
D02*
G37*
G36*
X299187Y210706D02*
X299181D01*
X299164D01*
X299140D01*
X299111D01*
X299070Y210701D01*
X299017D01*
X298906Y210689D01*
X298783Y210665D01*
X298643Y210636D01*
X298503Y210595D01*
X298368Y210543D01*
X298362D01*
X298351Y210537D01*
X298333Y210525D01*
X298309Y210513D01*
X298245Y210478D01*
X298169Y210426D01*
X298081Y210361D01*
X297988Y210279D01*
X297900Y210186D01*
X297824Y210081D01*
Y210075D01*
X297818Y210069D01*
X297806Y210051D01*
X297795Y210028D01*
X297765Y209963D01*
X297725Y209882D01*
X297689Y209782D01*
X297660Y209665D01*
X297637Y209537D01*
X297631Y209396D01*
Y209343D01*
X297637Y209308D01*
X297643Y209261D01*
X297649Y209203D01*
X297660Y209144D01*
X297678Y209080D01*
X297725Y208934D01*
X297754Y208858D01*
X297789Y208782D01*
X297830Y208700D01*
X297883Y208624D01*
X297941Y208548D01*
X298005Y208472D01*
X298011Y208466D01*
X298023Y208454D01*
X298046Y208437D01*
X298076Y208413D01*
X298116Y208384D01*
X298169Y208349D01*
X298228Y208314D01*
X298298Y208279D01*
X298380Y208244D01*
X298467Y208208D01*
X298567Y208173D01*
X298684Y208144D01*
X298807Y208121D01*
X298936Y208103D01*
X299082Y208091D01*
X299240Y208086D01*
X299246D01*
X299269D01*
X299304D01*
X299357Y208091D01*
X299415Y208097D01*
X299480Y208103D01*
X299556Y208115D01*
X299638Y208133D01*
X299813Y208173D01*
X299901Y208208D01*
X299994Y208244D01*
X300082Y208284D01*
X300170Y208331D01*
X300258Y208390D01*
X300334Y208454D01*
X300340Y208460D01*
X300351Y208472D01*
X300369Y208495D01*
X300398Y208524D01*
X300427Y208559D01*
X300457Y208600D01*
X300497Y208653D01*
X300533Y208712D01*
X300568Y208776D01*
X300603Y208846D01*
X300638Y208922D01*
X300667Y209010D01*
X300696Y209098D01*
X300714Y209191D01*
X300726Y209285D01*
X300731Y209390D01*
Y209443D01*
X300726Y209484D01*
X300720Y209537D01*
X300708Y209589D01*
X300696Y209653D01*
X300679Y209724D01*
X300632Y209870D01*
X300603Y209952D01*
X300562Y210028D01*
X300515Y210110D01*
X300462Y210186D01*
X300404Y210262D01*
X300334Y210332D01*
X300328Y210338D01*
X300316Y210350D01*
X300293Y210367D01*
X300258Y210390D01*
X300217Y210420D01*
X300164Y210449D01*
X300106Y210484D01*
X300041Y210519D01*
X299959Y210554D01*
X299877Y210589D01*
X299784Y210619D01*
X299678Y210648D01*
X299567Y210671D01*
X299450Y210689D01*
X299322Y210701D01*
X299187Y210706D01*
D02*
G37*
%LPD*%
D10*
X212358Y221200D02*
G03*
X212358Y221200I-15748J0D01*
G01*
X307605Y285961D02*
G03*
X311592Y285961I1994J157D01*
G01*
X400295Y215350D02*
X410925D01*
X400295Y221650D02*
X410925D01*
X394087Y230157D02*
Y249843D01*
X374402Y230157D02*
Y249843D01*
X367098Y230157D02*
Y249843D01*
X347413Y230157D02*
Y249843D01*
X377157Y271657D02*
X396843D01*
X377157Y291342D02*
X396843D01*
X344657D02*
X364342D01*
X344657Y271657D02*
X364342D01*
X303598Y267118D02*
Y286118D01*
X307598D01*
X311598D02*
X315598D01*
Y267118D02*
Y286118D01*
X303598Y267118D02*
X315598D01*
X216689Y291342D02*
X236374D01*
X216689Y271657D02*
X236374D01*
X248626Y291342D02*
X268311D01*
X248626Y271657D02*
X268311D01*
X245870Y230157D02*
Y249843D01*
X265555Y230157D02*
Y249843D01*
X219445Y230157D02*
Y249843D01*
X239130Y230157D02*
Y249843D01*
X182000Y191000D02*
Y201000D01*
X302000D01*
Y191000D02*
Y201000D01*
X294500Y191000D02*
X302000D01*
X182000D02*
X294500D01*
X430000D02*
Y201000D01*
X310000Y191000D02*
X430000D01*
X310000D02*
Y201000D01*
X317500D01*
X430000D01*
Y295500D02*
Y305500D01*
X310000Y295500D02*
X430000D01*
X310000D02*
Y305500D01*
X317500D01*
X430000D01*
X182000Y295500D02*
X294500D01*
X302000D01*
Y305500D01*
X182000D02*
X302000D01*
X182000Y295500D02*
Y305500D01*
D11*
X272332Y245653D02*
G03*
X272332Y245653I-400J0D01*
G01*
X320600Y250800D02*
G03*
X320600Y250800I-400J0D01*
G01*
D12*
X306108Y284118D02*
G03*
X306108Y284118I-510J0D01*
G01*
X288106Y246079D02*
Y261827D01*
X272358D02*
X288106D01*
X272358Y247654D02*
Y261827D01*
Y247654D02*
X273933Y246079D01*
X288106D01*
X320626Y234626D02*
X336374D01*
Y250374D01*
X322201D02*
X336374D01*
X320626Y248799D02*
X322201Y250374D01*
X320626Y234626D02*
Y248799D01*
X268400Y208300D02*
X268500Y210000D01*
X268400Y208300D02*
X269100Y208900D01*
X268900Y209500D02*
X269100Y208900D01*
X343500Y208500D02*
X343600Y210200D01*
X342900Y209600D02*
X343600Y210200D01*
X342900Y209600D02*
X343100Y209000D01*
D13*
X390823Y205941D02*
X401059D01*
Y211059D01*
X390823D02*
X401059D01*
X390823Y205941D02*
Y211059D01*
X337018Y276841D02*
Y281959D01*
X326782Y276841D02*
X337018D01*
X326782D02*
Y281959D01*
X337018D01*
X326882Y274059D02*
X337118D01*
X326882Y268941D02*
Y274059D01*
Y268941D02*
X337118D01*
Y274059D01*
X279324Y285560D02*
X289560D01*
X279324Y280442D02*
Y285560D01*
Y280442D02*
X289560D01*
Y285560D01*
X279324Y275560D02*
X289560D01*
X279324Y270442D02*
Y275560D01*
Y270442D02*
X289560D01*
Y275560D01*
X318382Y212059D02*
X328618D01*
X318382Y206941D02*
Y212059D01*
Y206941D02*
X328618D01*
Y212059D01*
X304528Y207138D02*
Y211862D01*
X311441Y207138D02*
X315354D01*
X311441Y211862D02*
X315354D01*
Y207138D02*
Y211862D01*
X303441Y207138D02*
Y211862D01*
Y207138D02*
X308441D01*
X303441Y211862D02*
X308441D01*
X304382Y262059D02*
X308000D01*
X304382Y256941D02*
X308000D01*
X311000Y262059D02*
X314618D01*
X311000Y256941D02*
X314618D01*
Y262059D01*
X304382Y256941D02*
Y262059D01*
X328118Y219941D02*
Y225059D01*
X317882Y219941D02*
Y225059D01*
X321500D01*
X317882Y219941D02*
X321500D01*
X324500Y225059D02*
X328118D01*
X324500Y219941D02*
X328118D01*
X311001Y227741D02*
X314618D01*
X311001Y232859D02*
X314618D01*
X304382Y227741D02*
X308001D01*
X304382Y232859D02*
X308001D01*
X304382Y227741D02*
Y232859D01*
X314618Y227741D02*
Y232859D01*
X304383Y240159D02*
X308001D01*
X304383Y235041D02*
X308001D01*
X311001Y240159D02*
X314619D01*
X311001Y235041D02*
X314619D01*
Y240159D01*
X304383Y235041D02*
Y240159D01*
X311001Y242341D02*
X314618D01*
X311001Y247459D02*
X314618D01*
X304382Y242341D02*
X308001D01*
X304382Y247459D02*
X308001D01*
X304382Y242341D02*
Y247459D01*
X314618Y242341D02*
Y247459D01*
X304382Y254759D02*
X308000D01*
X304382Y249641D02*
X308000D01*
X311000Y254759D02*
X314618D01*
X311000Y249641D02*
X314618D01*
Y254759D01*
X304382Y249641D02*
Y254759D01*
X292382Y249441D02*
Y254559D01*
X302618Y249441D02*
Y254559D01*
X299000Y249441D02*
X302618D01*
X299000Y254559D02*
X302618D01*
X292382Y249441D02*
X296000D01*
X292382Y254559D02*
X296000D01*
X292382Y243941D02*
Y249059D01*
X302618Y243941D02*
Y249059D01*
X299000Y243941D02*
X302618D01*
X299000Y249059D02*
X302618D01*
X292382Y243941D02*
X296000D01*
X292382Y249059D02*
X296000D01*
X282382Y238059D02*
X285999D01*
X282382Y232941D02*
X285999D01*
X288999Y238059D02*
X292618D01*
X288999Y232941D02*
X292618D01*
Y238059D01*
X282382Y232941D02*
Y238059D01*
X289000Y224441D02*
X292618D01*
X289000Y229559D02*
X292618D01*
X282382Y224441D02*
X286000D01*
X282382Y229559D02*
X286000D01*
X282382Y224441D02*
Y229559D01*
X292618Y224441D02*
Y229559D01*
Y215941D02*
Y221059D01*
X282382Y215941D02*
Y221059D01*
X286000D01*
X282382Y215941D02*
X286000D01*
X289000Y221059D02*
X292618D01*
X289000Y215941D02*
X292618D01*
X270882Y229559D02*
X274500D01*
X270882Y224441D02*
X274500D01*
X277500Y229559D02*
X281118D01*
X277500Y224441D02*
X281118D01*
Y229559D01*
X270882Y224441D02*
Y229559D01*
X412559Y205941D02*
Y211059D01*
X402323Y205941D02*
X412559D01*
X402323D02*
Y211059D01*
X412559D01*
X425354Y206138D02*
Y210862D01*
X414528D02*
X418441D01*
X414528Y206138D02*
X418441D01*
X414528D02*
Y210862D01*
X426441Y206138D02*
Y210862D01*
X421441D02*
X426441D01*
X421441Y206138D02*
X426441D01*
D14*
X309200Y259500D02*
X309500D01*
X309800D01*
X309500Y258600D02*
Y260400D01*
X323000Y221600D02*
Y223400D01*
X322700Y222500D02*
X323000D01*
X323300D01*
X309501Y230300D02*
X309801D01*
X309201D02*
X309501D01*
Y229400D02*
Y231200D01*
X309201Y237600D02*
X309501D01*
X309801D01*
X309501Y236700D02*
Y238500D01*
Y244900D02*
X309801D01*
X309201D02*
X309501D01*
Y244000D02*
Y245800D01*
X309200Y252200D02*
X309500D01*
X309800D01*
X309500Y251300D02*
Y253100D01*
X297500Y251100D02*
Y252900D01*
Y252000D02*
X297800D01*
X297200D02*
X297500D01*
Y245600D02*
Y247400D01*
Y246500D02*
X297800D01*
X297200D02*
X297500D01*
X287199Y235500D02*
X287499D01*
X287799D01*
X287499Y234600D02*
Y236400D01*
X287500Y227000D02*
X287800D01*
X287200D02*
X287500D01*
Y226100D02*
Y227900D01*
Y217600D02*
Y219400D01*
X287200Y218500D02*
X287500D01*
X287800D01*
X275700Y227000D02*
X276000D01*
X276300D01*
X276000Y226100D02*
Y227900D01*
X268100Y210700D02*
X269700Y209100D01*
Y207000D02*
Y211000D01*
X268100Y207200D02*
X269700Y208900D01*
X268100Y207200D02*
Y210700D01*
X342300Y209400D02*
X343900Y207800D01*
X342300Y207500D02*
Y211500D01*
Y209600D02*
X343900Y211300D01*
Y207800D02*
Y211300D01*
D15*
X277300Y207700D02*
Y210200D01*
X275600Y206000D02*
X277300Y207700D01*
X272400Y206000D02*
X275600D01*
X272400Y212000D02*
X275500D01*
X277300Y210200D01*
X260700Y212000D02*
X265900D01*
X260700Y206000D02*
X265900D01*
X260700D02*
Y212000D01*
X334700Y208300D02*
Y210800D01*
X336400Y212500D01*
X339600D01*
X336500Y206500D02*
X339600D01*
X334700Y208300D02*
X336500Y206500D01*
X346100D02*
X351300D01*
X346100Y212500D02*
X351300D01*
Y206500D02*
Y212500D01*
D16*
X413000Y203556D02*
X414999D01*
X414000Y204556D02*
Y202557D01*
X415300Y222200D02*
X417299D01*
X416300Y223199D02*
Y221200D01*
X352400Y205100D02*
X354399D01*
X353400Y206099D02*
Y204100D01*
X256800Y212100D02*
X258799D01*
X257800Y213099D02*
Y211100D01*
X210000Y234400D02*
X211999D01*
X211000Y235399D02*
Y233400D01*
X181500Y233900D02*
X183499D01*
D17*
X182744Y241067D02*
X182411Y241400D01*
X181744D01*
X181411Y241067D01*
Y239734D01*
X181744Y239400D01*
X182411D01*
X182744Y239734D01*
X183410Y239400D02*
X184077D01*
X183744D01*
Y241400D01*
X183410Y241067D01*
X185076D02*
X185410Y241400D01*
X186076D01*
X186409Y241067D01*
Y240733D01*
X186076Y240400D01*
X185743D01*
X186076D01*
X186409Y240067D01*
Y239734D01*
X186076Y239400D01*
X185410D01*
X185076Y239734D01*
X333534Y265000D02*
Y267000D01*
X334534D01*
X334867Y266667D01*
Y266000D01*
X334534Y265667D01*
X333534D01*
X334200D02*
X334867Y265000D01*
X335533Y267000D02*
X336866D01*
Y266667D01*
X335533Y265334D01*
Y265000D01*
X336934Y234100D02*
Y232434D01*
X337267Y232100D01*
X337934D01*
X338267Y232434D01*
Y234100D01*
X338933Y233767D02*
X339266Y234100D01*
X339933D01*
X340266Y233767D01*
Y233433D01*
X339933Y233100D01*
X339600D01*
X339933D01*
X340266Y232767D01*
Y232434D01*
X339933Y232100D01*
X339266D01*
X338933Y232434D01*
X307734Y289600D02*
Y287934D01*
X308067Y287600D01*
X308734D01*
X309067Y287934D01*
Y289600D01*
X311066Y287600D02*
X309733D01*
X311066Y288933D01*
Y289266D01*
X310733Y289600D01*
X310067D01*
X309733Y289266D01*
X288567Y264300D02*
Y262634D01*
X288900Y262300D01*
X289567D01*
X289900Y262634D01*
Y264300D01*
X290566Y262300D02*
X291233D01*
X290900D01*
Y264300D01*
X290566Y263966D01*
X285834Y276700D02*
Y278700D01*
X286834D01*
X287167Y278366D01*
Y277700D01*
X286834Y277367D01*
X285834D01*
X286500D02*
X287167Y276700D01*
X289166Y278700D02*
X288500Y278366D01*
X287833Y277700D01*
Y277034D01*
X288166Y276700D01*
X288833D01*
X289166Y277034D01*
Y277367D01*
X288833Y277700D01*
X287833D01*
X333534Y283200D02*
Y285200D01*
X334534D01*
X334867Y284866D01*
Y284200D01*
X334534Y283867D01*
X333534D01*
X334200D02*
X334867Y283200D01*
X336866Y285200D02*
X335533D01*
Y284200D01*
X336200Y284533D01*
X336533D01*
X336866Y284200D01*
Y283534D01*
X336533Y283200D01*
X335866D01*
X335533Y283534D01*
X285834Y286900D02*
Y288900D01*
X286834D01*
X287167Y288566D01*
Y287900D01*
X286834Y287567D01*
X285834D01*
X286500D02*
X287167Y286900D01*
X288833D02*
Y288900D01*
X287833Y287900D01*
X289166D01*
X402300Y212500D02*
Y214500D01*
X403300D01*
X403633Y214166D01*
Y213500D01*
X403300Y213167D01*
X402300D01*
X402966D02*
X403633Y212500D01*
X404299Y214166D02*
X404633Y214500D01*
X405299D01*
X405632Y214166D01*
Y213833D01*
X405299Y213500D01*
X404966D01*
X405299D01*
X405632Y213167D01*
Y212834D01*
X405299Y212500D01*
X404633D01*
X404299Y212834D01*
X390734Y212500D02*
Y214500D01*
X391734D01*
X392067Y214166D01*
Y213500D01*
X391734Y213167D01*
X390734D01*
X391400D02*
X392067Y212500D01*
X394066D02*
X392733D01*
X394066Y213833D01*
Y214166D01*
X393733Y214500D01*
X393067D01*
X392733Y214166D01*
X319367Y214200D02*
Y216200D01*
X320367D01*
X320700Y215866D01*
Y215200D01*
X320367Y214867D01*
X319367D01*
X320034D02*
X320700Y214200D01*
X321366D02*
X322033D01*
X321700D01*
Y216200D01*
X321366Y215866D01*
X359567Y268134D02*
Y269466D01*
X359234Y269800D01*
X358567D01*
X358234Y269466D01*
Y268134D01*
X358567Y267800D01*
X359234D01*
X358900Y268467D02*
X359567Y267800D01*
X359234D02*
X359567Y268134D01*
X360233Y269466D02*
X360566Y269800D01*
X361233D01*
X361566Y269466D01*
Y269133D01*
X361233Y268800D01*
X361566Y268467D01*
Y268134D01*
X361233Y267800D01*
X360566D01*
X360233Y268134D01*
Y268467D01*
X360566Y268800D01*
X360233Y269133D01*
Y269466D01*
X360566Y268800D02*
X361233D01*
X383967Y268134D02*
Y269466D01*
X383634Y269800D01*
X382967D01*
X382634Y269466D01*
Y268134D01*
X382967Y267800D01*
X383634D01*
X383300Y268467D02*
X383967Y267800D01*
X383634D02*
X383967Y268134D01*
X384633Y269800D02*
X385966D01*
Y269466D01*
X384633Y268134D01*
Y267800D01*
X357167Y223334D02*
Y224667D01*
X356834Y225000D01*
X356167D01*
X355834Y224667D01*
Y223334D01*
X356167Y223000D01*
X356834D01*
X356500Y223667D02*
X357167Y223000D01*
X356834D02*
X357167Y223334D01*
X359166Y225000D02*
X358500Y224667D01*
X357833Y224000D01*
Y223334D01*
X358167Y223000D01*
X358833D01*
X359166Y223334D01*
Y223667D01*
X358833Y224000D01*
X357833D01*
X383967Y223334D02*
Y224667D01*
X383634Y225000D01*
X382967D01*
X382634Y224667D01*
Y223334D01*
X382967Y223000D01*
X383634D01*
X383300Y223667D02*
X383967Y223000D01*
X383634D02*
X383967Y223334D01*
X385966Y225000D02*
X384633D01*
Y224000D01*
X385300Y224333D01*
X385633D01*
X385966Y224000D01*
Y223334D01*
X385633Y223000D01*
X384966D01*
X384633Y223334D01*
X245967Y268334D02*
Y269667D01*
X245634Y270000D01*
X244967D01*
X244634Y269667D01*
Y268334D01*
X244967Y268000D01*
X245634D01*
X245300Y268667D02*
X245967Y268000D01*
X245634D02*
X245967Y268334D01*
X247633Y268000D02*
Y270000D01*
X246633Y269000D01*
X247966D01*
X214767Y268334D02*
Y269667D01*
X214434Y270000D01*
X213767D01*
X213434Y269667D01*
Y268334D01*
X213767Y268000D01*
X214434D01*
X214100Y268667D02*
X214767Y268000D01*
X214434D02*
X214767Y268334D01*
X215433Y269667D02*
X215767Y270000D01*
X216433D01*
X216766Y269667D01*
Y269333D01*
X216433Y269000D01*
X216100D01*
X216433D01*
X216766Y268667D01*
Y268334D01*
X216433Y268000D01*
X215767D01*
X215433Y268334D01*
X242567Y244134D02*
Y245466D01*
X242234Y245800D01*
X241567D01*
X241234Y245466D01*
Y244134D01*
X241567Y243800D01*
X242234D01*
X241900Y244467D02*
X242567Y243800D01*
X242234D02*
X242567Y244134D01*
X244566Y243800D02*
X243233D01*
X244566Y245133D01*
Y245466D01*
X244233Y245800D01*
X243566D01*
X243233Y245466D01*
X216400Y244034D02*
Y245367D01*
X216067Y245700D01*
X215400D01*
X215067Y245367D01*
Y244034D01*
X215400Y243700D01*
X216067D01*
X215734Y244367D02*
X216400Y243700D01*
X216067D02*
X216400Y244034D01*
X217066Y243700D02*
X217733D01*
X217400D01*
Y245700D01*
X217066Y245367D01*
X414500Y214500D02*
Y212500D01*
X415500D01*
X415833Y212834D01*
Y214166D01*
X415500Y214500D01*
X414500D01*
X417832D02*
X416499D01*
Y213500D01*
X417166Y213833D01*
X417499D01*
X417832Y213500D01*
Y212834D01*
X417499Y212500D01*
X416833D01*
X416499Y212834D01*
X400234Y225200D02*
Y223200D01*
X401234D01*
X401567Y223534D01*
Y224867D01*
X401234Y225200D01*
X400234D01*
X403233Y223200D02*
Y225200D01*
X402233Y224200D01*
X403566D01*
X334800Y216200D02*
Y214200D01*
X335800D01*
X336133Y214534D01*
Y215866D01*
X335800Y216200D01*
X334800D01*
X336799Y215866D02*
X337133Y216200D01*
X337799D01*
X338132Y215866D01*
Y215533D01*
X337799Y215200D01*
X337466D01*
X337799D01*
X338132Y214867D01*
Y214534D01*
X337799Y214200D01*
X337133D01*
X336799Y214534D01*
X303734Y216200D02*
Y214200D01*
X304734D01*
X305067Y214534D01*
Y215866D01*
X304734Y216200D01*
X303734D01*
X307066Y214200D02*
X305733D01*
X307066Y215533D01*
Y215866D01*
X306733Y216200D01*
X306066D01*
X305733Y215866D01*
X260800Y216200D02*
Y214200D01*
X261800D01*
X262133Y214534D01*
Y215866D01*
X261800Y216200D01*
X260800D01*
X262799Y214200D02*
X263466D01*
X263133D01*
Y216200D01*
X262799Y215866D01*
X330334Y223567D02*
X330000Y223900D01*
X329334D01*
X329001Y223567D01*
Y222234D01*
X329334Y221900D01*
X330000D01*
X330334Y222234D01*
X331000Y221900D02*
X331667D01*
X331333D01*
Y223900D01*
X331000Y223567D01*
X333999Y221900D02*
X332666D01*
X333999Y223233D01*
Y223567D01*
X333666Y223900D01*
X332999D01*
X332666Y223567D01*
X316467Y230867D02*
X316134Y231200D01*
X315467D01*
X315134Y230867D01*
Y229534D01*
X315467Y229200D01*
X316134D01*
X316467Y229534D01*
X317133Y229200D02*
X317800D01*
X317466D01*
Y231200D01*
X317133Y230867D01*
X318799Y229200D02*
X319466D01*
X319133D01*
Y231200D01*
X318799Y230867D01*
X316467Y260467D02*
X316134Y260800D01*
X315467D01*
X315134Y260467D01*
Y259134D01*
X315467Y258800D01*
X316134D01*
X316467Y259134D01*
X317133Y258800D02*
X317800D01*
X317466D01*
Y260800D01*
X317133Y260467D01*
X318799D02*
X319133Y260800D01*
X319799D01*
X320132Y260467D01*
Y259134D01*
X319799Y258800D01*
X319133D01*
X318799Y259134D01*
Y260467D01*
X316467Y253066D02*
X316134Y253400D01*
X315467D01*
X315134Y253066D01*
Y251734D01*
X315467Y251400D01*
X316134D01*
X316467Y251734D01*
X317133D02*
X317466Y251400D01*
X318133D01*
X318466Y251734D01*
Y253066D01*
X318133Y253400D01*
X317466D01*
X317133Y253066D01*
Y252733D01*
X317466Y252400D01*
X318466D01*
X315833Y244267D02*
X315500Y243934D01*
Y243267D01*
X315833Y242934D01*
X317166D01*
X317500Y243267D01*
Y243934D01*
X317166Y244267D01*
X315833Y244933D02*
X315500Y245267D01*
Y245933D01*
X315833Y246266D01*
X316167D01*
X316500Y245933D01*
X316833Y246266D01*
X317166D01*
X317500Y245933D01*
Y245267D01*
X317166Y244933D01*
X316833D01*
X316500Y245267D01*
X316167Y244933D01*
X315833D01*
X316500Y245267D02*
Y245933D01*
X315878Y237211D02*
X315544Y236878D01*
Y236211D01*
X315878Y235878D01*
X317211D01*
X317544Y236211D01*
Y236878D01*
X317211Y237211D01*
X315544Y237877D02*
Y239210D01*
X315878D01*
X317211Y237877D01*
X317544D01*
X297467Y257666D02*
X297134Y258000D01*
X296467D01*
X296134Y257666D01*
Y256334D01*
X296467Y256000D01*
X297134D01*
X297467Y256334D01*
X299466Y258000D02*
X298800Y257666D01*
X298133Y257000D01*
Y256334D01*
X298466Y256000D01*
X299133D01*
X299466Y256334D01*
Y256667D01*
X299133Y257000D01*
X298133D01*
X297467Y242067D02*
X297134Y242400D01*
X296467D01*
X296134Y242067D01*
Y240734D01*
X296467Y240400D01*
X297134D01*
X297467Y240734D01*
X299466Y242400D02*
X298133D01*
Y241400D01*
X298800Y241733D01*
X299133D01*
X299466Y241400D01*
Y240734D01*
X299133Y240400D01*
X298466D01*
X298133Y240734D01*
X294867Y218967D02*
X294534Y219300D01*
X293867D01*
X293534Y218967D01*
Y217634D01*
X293867Y217300D01*
X294534D01*
X294867Y217634D01*
X296533Y217300D02*
Y219300D01*
X295533Y218300D01*
X296866D01*
X294867Y227517D02*
X294534Y227850D01*
X293867D01*
X293534Y227517D01*
Y226184D01*
X293867Y225850D01*
X294534D01*
X294867Y226184D01*
X295533Y227517D02*
X295866Y227850D01*
X296533D01*
X296866Y227517D01*
Y227183D01*
X296533Y226850D01*
X296200D01*
X296533D01*
X296866Y226517D01*
Y226184D01*
X296533Y225850D01*
X295866D01*
X295533Y226184D01*
X267467Y227366D02*
X267134Y227700D01*
X266467D01*
X266134Y227366D01*
Y226034D01*
X266467Y225700D01*
X267134D01*
X267467Y226034D01*
X269466Y225700D02*
X268133D01*
X269466Y227033D01*
Y227366D01*
X269133Y227700D01*
X268466D01*
X268133Y227366D01*
X294867Y236067D02*
X294534Y236400D01*
X293867D01*
X293534Y236067D01*
Y234734D01*
X293867Y234400D01*
X294534D01*
X294867Y234734D01*
X295533Y234400D02*
X296200D01*
X295866D01*
Y236400D01*
X295533Y236067D01*
D18*
X309200Y299567D02*
X308200D01*
Y300067D01*
X308367Y300233D01*
X308700D01*
X308867Y300067D01*
Y299567D01*
X309200Y301066D02*
X308200D01*
X308700Y300567D01*
Y301233D01*
X181500Y299767D02*
X180500D01*
Y300267D01*
X180667Y300433D01*
X181000D01*
X181167Y300267D01*
Y299767D01*
X180667Y300767D02*
X180500Y300933D01*
Y301267D01*
X180667Y301433D01*
X180833D01*
X181000Y301267D01*
Y301100D01*
Y301267D01*
X181167Y301433D01*
X181333D01*
X181500Y301267D01*
Y300933D01*
X181333Y300767D01*
X309300Y194567D02*
X308300D01*
Y195067D01*
X308467Y195233D01*
X308800D01*
X308967Y195067D01*
Y194567D01*
X309300Y196233D02*
Y195567D01*
X308633Y196233D01*
X308467D01*
X308300Y196066D01*
Y195733D01*
X308467Y195567D01*
X181200Y195433D02*
X180200D01*
Y195933D01*
X180367Y196100D01*
X180700D01*
X180867Y195933D01*
Y195433D01*
X181200Y196433D02*
Y196766D01*
Y196600D01*
X180200D01*
X180367Y196433D01*
D19*
X402245Y218525D02*
D03*
D20*
X411048Y215695D02*
D03*
X411048Y221305D02*
D03*
D21*
X400961Y215694D02*
D03*
D22*
X401083Y221305D02*
D03*
M02*
