G04*
G04 #@! TF.GenerationSoftware,Altium Limited,Altium Designer,23.8.1 (32)*
G04*
G04 Layer_Color=2752767*
%FSLAX25Y25*%
%MOIN*%
G70*
G04*
G04 #@! TF.SameCoordinates,08085802-0E6A-4E4E-A806-44F487ACA516*
G04*
G04*
G04 #@! TF.FilePolarity,Positive*
G04*
G01*
G75*
%ADD16C,0.00500*%
D16*
X201500Y219200D02*
Y223200D01*
X205500D01*
Y219200D01*
X201500D01*
X187721D02*
Y223200D01*
X191720D01*
Y219200D01*
X187721D01*
X295000Y194000D02*
Y198000D01*
X299000D01*
Y194000D01*
X295000D01*
X285000D02*
Y198000D01*
X289000D01*
Y194000D01*
X285000D01*
X275000D02*
Y198000D01*
X279000D01*
Y194000D01*
X275000D01*
X265000D02*
Y198000D01*
X269000D01*
Y194000D01*
X265000D01*
X255000D02*
Y198000D01*
X259000D01*
Y194000D01*
X255000D01*
X245000D02*
Y198000D01*
X249000D01*
Y194000D01*
X245000D01*
X235000D02*
Y198000D01*
X239000D01*
Y194000D01*
X235000D01*
X225000D02*
Y198000D01*
X229000D01*
Y194000D01*
X225000D01*
X215000D02*
Y198000D01*
X219000D01*
Y194000D01*
X215000D01*
X205000D02*
Y198000D01*
X209000D01*
Y194000D01*
X205000D01*
X195000D02*
Y198000D01*
X199000D01*
Y194000D01*
X195000D01*
X185000D02*
Y198000D01*
X189000D01*
Y194000D01*
X185000D01*
X313000D02*
Y198000D01*
X317000D01*
Y194000D01*
X313000D01*
X323000D02*
Y198000D01*
X327000D01*
Y194000D01*
X323000D01*
X333000D02*
Y198000D01*
X337000D01*
Y194000D01*
X333000D01*
X343000D02*
Y198000D01*
X347000D01*
Y194000D01*
X343000D01*
X353000D02*
Y198000D01*
X357000D01*
Y194000D01*
X353000D01*
X363000D02*
Y198000D01*
X367000D01*
Y194000D01*
X363000D01*
X373000D02*
Y198000D01*
X377000D01*
Y194000D01*
X373000D01*
X383000D02*
Y198000D01*
X387000D01*
Y194000D01*
X383000D01*
X393000D02*
Y198000D01*
X397000D01*
Y194000D01*
X393000D01*
X403000D02*
Y198000D01*
X407000D01*
Y194000D01*
X403000D01*
X413000D02*
Y198000D01*
X417000D01*
Y194000D01*
X413000D01*
X423000D02*
Y198000D01*
X427000D01*
Y194000D01*
X423000D01*
X313000Y298500D02*
Y302500D01*
X317000D01*
Y298500D01*
X313000D01*
X323000D02*
Y302500D01*
X327000D01*
Y298500D01*
X323000D01*
X333000D02*
Y302500D01*
X337000D01*
Y298500D01*
X333000D01*
X343000D02*
Y302500D01*
X347000D01*
Y298500D01*
X343000D01*
X353000D02*
Y302500D01*
X357000D01*
Y298500D01*
X353000D01*
X363000D02*
Y302500D01*
X367000D01*
Y298500D01*
X363000D01*
X373000D02*
Y302500D01*
X377000D01*
Y298500D01*
X373000D01*
X383000D02*
Y302500D01*
X387000D01*
Y298500D01*
X383000D01*
X393000D02*
Y302500D01*
X397000D01*
Y298500D01*
X393000D01*
X403000D02*
Y302500D01*
X407000D01*
Y298500D01*
X403000D01*
X413000D02*
Y302500D01*
X417000D01*
Y298500D01*
X413000D01*
X423000D02*
Y302500D01*
X427000D01*
Y298500D01*
X423000D01*
X185000D02*
Y302500D01*
X189000D01*
Y298500D01*
X185000D01*
X195000D02*
Y302500D01*
X199000D01*
Y298500D01*
X195000D01*
X205000D02*
Y302500D01*
X209000D01*
Y298500D01*
X205000D01*
X215000D02*
Y302500D01*
X219000D01*
Y298500D01*
X215000D01*
X225000D02*
Y302500D01*
X229000D01*
Y298500D01*
X225000D01*
X235000D02*
Y302500D01*
X239000D01*
Y298500D01*
X235000D01*
X245000D02*
Y302500D01*
X249000D01*
Y298500D01*
X245000D01*
X255000D02*
Y302500D01*
X259000D01*
Y298500D01*
X255000D01*
X265000D02*
Y302500D01*
X269000D01*
Y298500D01*
X265000D01*
X275000D02*
Y302500D01*
X279000D01*
Y298500D01*
X275000D01*
X285000D02*
Y302500D01*
X289000D01*
Y298500D01*
X285000D01*
X295000D02*
Y302500D01*
X299000D01*
Y298500D01*
X295000D01*
X409000Y231600D02*
X407000Y235600D01*
X411000D01*
X409000Y231600D01*
X404000D02*
X402000Y235600D01*
X406000D01*
X404000Y231600D01*
X414000D02*
X412000Y235600D01*
X416000D01*
X414000Y231600D01*
X419000D02*
X417000Y235600D01*
X421000D01*
X419000Y231600D01*
X404000Y255275D02*
X402000Y259275D01*
X406000D01*
X404000Y255275D01*
Y238250D02*
X402000Y242250D01*
X406000D01*
X404000Y238250D01*
Y243925D02*
X402000Y247925D01*
X406000D01*
X404000Y243925D01*
Y249600D02*
X402000Y253600D01*
X406000D01*
X404000Y249600D01*
X409000Y255275D02*
X407000Y259275D01*
X411000D01*
X409000Y255275D01*
Y238250D02*
X407000Y242250D01*
X411000D01*
X409000Y238250D01*
Y243925D02*
X407000Y247925D01*
X411000D01*
X409000Y243925D01*
Y249600D02*
X407000Y253600D01*
X411000D01*
X409000Y249600D01*
X414000D02*
X412000Y253600D01*
X416000D01*
X414000Y249600D01*
Y255275D02*
X412000Y259275D01*
X416000D01*
X414000Y255275D01*
X419000Y249600D02*
X417000Y253600D01*
X421000D01*
X419000Y249600D01*
Y255275D02*
X417000Y259275D01*
X421000D01*
X419000Y255275D01*
X414000Y238250D02*
X412000Y242250D01*
X416000D01*
X414000Y238250D01*
Y243925D02*
X412000Y247925D01*
X416000D01*
X414000Y243925D01*
X419000Y238250D02*
X417000Y242250D01*
X421000D01*
X419000Y238250D01*
Y243925D02*
X417000Y247925D01*
X421000D01*
X419000Y243925D01*
X185200Y252325D02*
X183200Y256325D01*
X187200D01*
X185200Y252325D01*
X195200Y269350D02*
X193200Y273350D01*
X197200D01*
X195200Y269350D01*
X185200Y258000D02*
X183200Y262000D01*
X187200D01*
X185200Y258000D01*
Y263675D02*
X183200Y267675D01*
X187200D01*
X185200Y263675D01*
Y269350D02*
X183200Y273350D01*
X187200D01*
X185200Y269350D01*
X190200Y252325D02*
X188200Y256325D01*
X192200D01*
X190200Y252325D01*
Y258000D02*
X188200Y262000D01*
X192200D01*
X190200Y258000D01*
Y263675D02*
X188200Y267675D01*
X192200D01*
X190200Y263675D01*
Y269350D02*
X188200Y273350D01*
X192200D01*
X190200Y269350D01*
X195200Y246650D02*
X193200Y250650D01*
X197200D01*
X195200Y246650D01*
Y252325D02*
X193200Y256325D01*
X197200D01*
X195200Y252325D01*
Y258000D02*
X193200Y262000D01*
X197200D01*
X195200Y258000D01*
Y263675D02*
X193200Y267675D01*
X197200D01*
X195200Y263675D01*
X185200Y246650D02*
X183200Y250650D01*
X187200D01*
X185200Y246650D01*
X200200Y252325D02*
X198200Y256325D01*
X202200D01*
X200200Y252325D01*
X190200Y246650D02*
X188200Y250650D01*
X192200D01*
X190200Y246650D01*
X200200D02*
X198200Y250650D01*
X202200D01*
X200200Y246650D01*
Y258000D02*
X198200Y262000D01*
X202200D01*
X200200Y258000D01*
Y263675D02*
X198200Y267675D01*
X202200D01*
X200200Y263675D01*
Y269350D02*
X198200Y273350D01*
X202200D01*
X200200Y269350D01*
X330600Y227400D02*
X328600Y231400D01*
X332600D01*
X330600Y227400D01*
X323347Y227500D02*
X321347Y231500D01*
X325347D01*
X323347Y227500D01*
X314200Y273600D02*
X312200Y277600D01*
X316200D01*
X314200Y273600D01*
X331800Y274300D02*
X329800Y278300D01*
X333800D01*
X331800Y274300D01*
X329000Y265500D02*
X327000Y269500D01*
X331000D01*
X329000Y265500D01*
X311000Y274000D02*
X309000Y278000D01*
X313000D01*
X311000Y274000D01*
X314106Y269606D02*
X312106Y273606D01*
X316106D01*
X314106Y269606D01*
X312000Y262389D02*
X310000Y266389D01*
X314000D01*
X312000Y262389D01*
X293000Y257000D02*
X291000Y261000D01*
X295000D01*
X293000Y257000D01*
X217500Y249200D02*
X215500Y253200D01*
X219500D01*
X217500Y249200D01*
X226858Y254000D02*
X224858Y258000D01*
X228858D01*
X226858Y254000D01*
X267200Y251282D02*
X265200Y255282D01*
X269200D01*
X267200Y251282D01*
X267600Y263500D02*
X265600Y267500D01*
X269600D01*
X267600Y263500D01*
X270200Y261600D02*
X268200Y265600D01*
X272200D01*
X270200Y261600D01*
X231929Y254000D02*
X229929Y258000D01*
X233929D01*
X231929Y254000D01*
X237000D02*
X235000Y258000D01*
X239000D01*
X237000Y254000D01*
X346500Y244000D02*
X344500Y248000D01*
X348500D01*
X346500Y244000D01*
X342500Y253000D02*
X340500Y257000D01*
X344500D01*
X342500Y253000D01*
X376622Y255000D02*
X374622Y259000D01*
X378622D01*
X376622Y255000D01*
X350000D02*
X348000Y259000D01*
X352000D01*
X350000Y255000D01*
X364756D02*
X362756Y259000D01*
X366756D01*
X364756Y255000D01*
X313500Y279500D02*
X311500Y283500D01*
X315500D01*
X313500Y279500D01*
X316500Y277000D02*
X314500Y281000D01*
X318500D01*
X316500Y277000D01*
X312000Y211000D02*
X310000Y215000D01*
X314000D01*
X312000Y211000D01*
X325500Y238000D02*
X323500Y242000D01*
X327500D01*
X325500Y238000D01*
Y243500D02*
X323500Y247500D01*
X327500D01*
X325500Y243500D01*
X294000Y204500D02*
X292000Y208500D01*
X296000D01*
X294000Y204500D01*
X293000Y240500D02*
X291000Y244500D01*
X295000D01*
X293000Y240500D01*
X274900Y272000D02*
X272900Y276000D01*
X276900D01*
X274900Y272000D01*
Y277000D02*
X272900Y281000D01*
X276900D01*
X274900Y277000D01*
Y282000D02*
X272900Y286000D01*
X276900D01*
X274900Y282000D01*
X274500Y287000D02*
X272500Y291000D01*
X276500D01*
X274500Y287000D01*
X346500Y260500D02*
X344500Y264500D01*
X348500D01*
X346500Y260500D01*
X293000Y264000D02*
X291000Y268000D01*
X295000D01*
X293000Y264000D01*
X290500Y271500D02*
X288500Y275500D01*
X292500D01*
X290500Y271500D01*
X357250Y242000D02*
X355250Y246000D01*
X359250D01*
X357250Y242000D01*
X352000D02*
X350000Y246000D01*
X354000D01*
X352000Y242000D01*
X381872Y254872D02*
X379872Y258872D01*
X383872D01*
X381872Y254872D01*
X354756Y255000D02*
X352756Y259000D01*
X356756D01*
X354756Y255000D01*
X359756D02*
X357756Y259000D01*
X361756D01*
X359756Y255000D01*
X277511Y264390D02*
X275511Y268390D01*
X279511D01*
X277511Y264390D01*
X331700Y243500D02*
X329700Y247500D01*
X333700D01*
X331700Y243500D01*
Y238000D02*
X329700Y242000D01*
X333700D01*
X331700Y238000D01*
X345000Y266000D02*
X343000Y270000D01*
X347000D01*
X345000Y266000D01*
X338500Y272000D02*
X336500Y276000D01*
X340500D01*
X338500Y272000D01*
X344729Y238618D02*
X342729Y242618D01*
X346729D01*
X344729Y238618D01*
X281358Y275358D02*
X279358Y279358D01*
X283358D01*
X281358Y275358D01*
X281217Y266717D02*
X279217Y270717D01*
X283217D01*
X281217Y266717D01*
X282941Y254500D02*
X280941Y258500D01*
X284941D01*
X282941Y254500D01*
Y249000D02*
X280941Y253000D01*
X284941D01*
X282941Y249000D01*
X291104Y280368D02*
X289104Y284368D01*
X293104D01*
X291104Y280368D01*
X405000Y287000D02*
X403000Y291000D01*
X407000D01*
X405000Y287000D01*
X405000Y272000D02*
X403000Y276000D01*
X407000D01*
X405000Y272000D01*
Y277000D02*
X403000Y281000D01*
X407000D01*
X405000Y277000D01*
Y282000D02*
X403000Y286000D01*
X407000D01*
X405000Y282000D01*
X338500Y282000D02*
X336500Y286000D01*
X340500D01*
X338500Y282000D01*
Y277000D02*
X336500Y281000D01*
X340500D01*
X338500Y277000D01*
Y287000D02*
X336500Y291000D01*
X340500D01*
X338500Y287000D01*
X208000D02*
X206000Y291000D01*
X210000D01*
X208000Y287000D01*
Y282000D02*
X206000Y286000D01*
X210000D01*
X208000Y282000D01*
Y277000D02*
X206000Y281000D01*
X210000D01*
X208000Y277000D01*
Y272000D02*
X206000Y276000D01*
X210000D01*
X208000Y272000D01*
X386500Y254872D02*
X384500Y258872D01*
X388500D01*
X386500Y254872D01*
X391872D02*
X389872Y258872D01*
X393872D01*
X391872Y254872D01*
X228785Y279673D02*
X226785Y283673D01*
X230785D01*
X228785Y279673D01*
Y285173D02*
X226785Y289173D01*
X230785D01*
X228785Y285173D01*
X223535D02*
X221535Y289173D01*
X225535D01*
X223535Y285173D01*
Y274173D02*
X221535Y278173D01*
X225535D01*
X223535Y274173D01*
X229035D02*
X227035Y278173D01*
X231035D01*
X229035Y274173D01*
X223535Y279673D02*
X221535Y283673D01*
X225535D01*
X223535Y279673D01*
X234035Y274173D02*
X232035Y278173D01*
X236035D01*
X234035Y274173D01*
Y285173D02*
X232035Y289173D01*
X236035D01*
X234035Y285173D01*
Y279673D02*
X232035Y283673D01*
X236035D01*
X234035Y279673D01*
X256250Y279000D02*
X254250Y283000D01*
X258250D01*
X256250Y279000D01*
Y284500D02*
X254250Y288500D01*
X258250D01*
X256250Y284500D01*
X251000D02*
X249000Y288500D01*
X253000D01*
X251000Y284500D01*
Y273500D02*
X249000Y277500D01*
X253000D01*
X251000Y273500D01*
X256500D02*
X254500Y277500D01*
X258500D01*
X256500Y273500D01*
X251000Y279000D02*
X249000Y283000D01*
X253000D01*
X251000Y279000D01*
X261500Y273500D02*
X259500Y277500D01*
X263500D01*
X261500Y273500D01*
Y284500D02*
X259500Y288500D01*
X263500D01*
X261500Y284500D01*
Y279000D02*
X259500Y283000D01*
X263500D01*
X261500Y279000D01*
X356250Y279500D02*
X354250Y283500D01*
X358250D01*
X356250Y279500D01*
Y285000D02*
X354250Y289000D01*
X358250D01*
X356250Y285000D01*
X351000D02*
X349000Y289000D01*
X353000D01*
X351000Y285000D01*
Y274000D02*
X349000Y278000D01*
X353000D01*
X351000Y274000D01*
X356500D02*
X354500Y278000D01*
X358500D01*
X356500Y274000D01*
X351000Y279500D02*
X349000Y283500D01*
X353000D01*
X351000Y279500D01*
X361500Y274000D02*
X359500Y278000D01*
X363500D01*
X361500Y274000D01*
Y285000D02*
X359500Y289000D01*
X363500D01*
X361500Y285000D01*
Y279500D02*
X359500Y283500D01*
X363500D01*
X361500Y279500D01*
X385250Y279000D02*
X383250Y283000D01*
X387250D01*
X385250Y279000D01*
Y284500D02*
X383250Y288500D01*
X387250D01*
X385250Y284500D01*
X380000D02*
X378000Y288500D01*
X382000D01*
X380000Y284500D01*
Y273500D02*
X378000Y277500D01*
X382000D01*
X380000Y273500D01*
X385500D02*
X383500Y277500D01*
X387500D01*
X385500Y273500D01*
X380000Y279000D02*
X378000Y283000D01*
X382000D01*
X380000Y279000D01*
X390500Y273500D02*
X388500Y277500D01*
X392500D01*
X390500Y273500D01*
Y284500D02*
X388500Y288500D01*
X392500D01*
X390500Y284500D01*
Y279000D02*
X388500Y283000D01*
X392500D01*
X390500Y279000D01*
X357250Y236500D02*
X355250Y240500D01*
X359250D01*
X357250Y236500D01*
X352000Y231000D02*
X350000Y235000D01*
X354000D01*
X352000Y231000D01*
X357500D02*
X355500Y235000D01*
X359500D01*
X357500Y231000D01*
X352000Y236500D02*
X350000Y240500D01*
X354000D01*
X352000Y236500D01*
X362500Y231000D02*
X360500Y235000D01*
X364500D01*
X362500Y231000D01*
Y242000D02*
X360500Y246000D01*
X364500D01*
X362500Y242000D01*
Y236500D02*
X360500Y240500D01*
X364500D01*
X362500Y236500D01*
X384250Y236000D02*
X382250Y240000D01*
X386250D01*
X384250Y236000D01*
Y241500D02*
X382250Y245500D01*
X386250D01*
X384250Y241500D01*
X379000D02*
X377000Y245500D01*
X381000D01*
X379000Y241500D01*
Y230500D02*
X377000Y234500D01*
X381000D01*
X379000Y230500D01*
X384500D02*
X382500Y234500D01*
X386500D01*
X384500Y230500D01*
X379000Y236000D02*
X377000Y240000D01*
X381000D01*
X379000Y236000D01*
X389500Y230500D02*
X387500Y234500D01*
X391500D01*
X389500Y230500D01*
Y241500D02*
X387500Y245500D01*
X391500D01*
X389500Y241500D01*
Y236000D02*
X387500Y240000D01*
X391500D01*
X389500Y236000D01*
X228750D02*
X226750Y240000D01*
X230750D01*
X228750Y236000D01*
Y241500D02*
X226750Y245500D01*
X230750D01*
X228750Y241500D01*
X223500D02*
X221500Y245500D01*
X225500D01*
X223500Y241500D01*
Y230500D02*
X221500Y234500D01*
X225500D01*
X223500Y230500D01*
X229000D02*
X227000Y234500D01*
X231000D01*
X229000Y230500D01*
X223500Y236000D02*
X221500Y240000D01*
X225500D01*
X223500Y236000D01*
X234000Y230500D02*
X232000Y234500D01*
X236000D01*
X234000Y230500D01*
Y241500D02*
X232000Y245500D01*
X236000D01*
X234000Y241500D01*
Y236000D02*
X232000Y240000D01*
X236000D01*
X234000Y236000D01*
X254750D02*
X252750Y240000D01*
X256750D01*
X254750Y236000D01*
Y241500D02*
X252750Y245500D01*
X256750D01*
X254750Y241500D01*
X249500D02*
X247500Y245500D01*
X251500D01*
X249500Y241500D01*
Y230500D02*
X247500Y234500D01*
X251500D01*
X249500Y230500D01*
X254750D02*
X252750Y234500D01*
X256750D01*
X254750Y230500D01*
X249500Y236000D02*
X247500Y240000D01*
X251500D01*
X249500Y236000D01*
X260000Y230500D02*
X258000Y234500D01*
X262000D01*
X260000Y230500D01*
Y241500D02*
X258000Y245500D01*
X262000D01*
X260000Y241500D01*
Y236000D02*
X258000Y240000D01*
X262000D01*
X260000Y236000D01*
X277441Y249000D02*
X275441Y253000D01*
X279441D01*
X277441Y249000D01*
M02*
