G04*
G04 #@! TF.GenerationSoftware,Altium Limited,Altium Designer,23.8.1 (32)*
G04*
G04 Layer_Color=128*
%FSLAX25Y25*%
%MOIN*%
G70*
G04*
G04 #@! TF.SameCoordinates,08085802-0E6A-4E4E-A806-44F487ACA516*
G04*
G04*
G04 #@! TF.FilePolarity,Positive*
G04*
G01*
G75*
%ADD16C,0.00500*%
D16*
X201728Y221200D02*
X205272D01*
X203500Y219428D02*
Y222972D01*
X187949Y221200D02*
X191492D01*
X189720Y219428D02*
Y222972D01*
X295228Y196000D02*
X298772D01*
X297000Y194228D02*
Y197772D01*
X285228Y196000D02*
X288772D01*
X287000Y194228D02*
Y197772D01*
X275228Y196000D02*
X278772D01*
X277000Y194228D02*
Y197772D01*
X265228Y196000D02*
X268772D01*
X267000Y194228D02*
Y197772D01*
X255228Y196000D02*
X258772D01*
X257000Y194228D02*
Y197772D01*
X245228Y196000D02*
X248772D01*
X247000Y194228D02*
Y197772D01*
X235228Y196000D02*
X238772D01*
X237000Y194228D02*
Y197772D01*
X225228Y196000D02*
X228772D01*
X227000Y194228D02*
Y197772D01*
X215228Y196000D02*
X218772D01*
X217000Y194228D02*
Y197772D01*
X205228Y196000D02*
X208772D01*
X207000Y194228D02*
Y197772D01*
X195228Y196000D02*
X198772D01*
X197000Y194228D02*
Y197772D01*
X185228Y196000D02*
X188772D01*
X187000Y194228D02*
Y197772D01*
X313228Y196000D02*
X316772D01*
X315000Y194228D02*
Y197772D01*
X323228Y196000D02*
X326772D01*
X325000Y194228D02*
Y197772D01*
X333228Y196000D02*
X336772D01*
X335000Y194228D02*
Y197772D01*
X343228Y196000D02*
X346772D01*
X345000Y194228D02*
Y197772D01*
X353228Y196000D02*
X356772D01*
X355000Y194228D02*
Y197772D01*
X363228Y196000D02*
X366772D01*
X365000Y194228D02*
Y197772D01*
X373228Y196000D02*
X376772D01*
X375000Y194228D02*
Y197772D01*
X383228Y196000D02*
X386772D01*
X385000Y194228D02*
Y197772D01*
X393228Y196000D02*
X396772D01*
X395000Y194228D02*
Y197772D01*
X403228Y196000D02*
X406772D01*
X405000Y194228D02*
Y197772D01*
X413228Y196000D02*
X416772D01*
X415000Y194228D02*
Y197772D01*
X423228Y196000D02*
X426772D01*
X425000Y194228D02*
Y197772D01*
X313228Y300500D02*
X316772D01*
X315000Y298728D02*
Y302272D01*
X323228Y300500D02*
X326772D01*
X325000Y298728D02*
Y302272D01*
X333228Y300500D02*
X336772D01*
X335000Y298728D02*
Y302272D01*
X343228Y300500D02*
X346772D01*
X345000Y298728D02*
Y302272D01*
X353228Y300500D02*
X356772D01*
X355000Y298728D02*
Y302272D01*
X363228Y300500D02*
X366772D01*
X365000Y298728D02*
Y302272D01*
X373228Y300500D02*
X376772D01*
X375000Y298728D02*
Y302272D01*
X383228Y300500D02*
X386772D01*
X385000Y298728D02*
Y302272D01*
X393228Y300500D02*
X396772D01*
X395000Y298728D02*
Y302272D01*
X403228Y300500D02*
X406772D01*
X405000Y298728D02*
Y302272D01*
X413228Y300500D02*
X416772D01*
X415000Y298728D02*
Y302272D01*
X423228Y300500D02*
X426772D01*
X425000Y298728D02*
Y302272D01*
X185228Y300500D02*
X188772D01*
X187000Y298728D02*
Y302272D01*
X195228Y300500D02*
X198772D01*
X197000Y298728D02*
Y302272D01*
X205228Y300500D02*
X208772D01*
X207000Y298728D02*
Y302272D01*
X215228Y300500D02*
X218772D01*
X217000Y298728D02*
Y302272D01*
X225228Y300500D02*
X228772D01*
X227000Y298728D02*
Y302272D01*
X235228Y300500D02*
X238772D01*
X237000Y298728D02*
Y302272D01*
X245228Y300500D02*
X248772D01*
X247000Y298728D02*
Y302272D01*
X255228Y300500D02*
X258772D01*
X257000Y298728D02*
Y302272D01*
X265228Y300500D02*
X268772D01*
X267000Y298728D02*
Y302272D01*
X275228Y300500D02*
X278772D01*
X277000Y298728D02*
Y302272D01*
X285228Y300500D02*
X288772D01*
X287000Y298728D02*
Y302272D01*
X295228Y300500D02*
X298772D01*
X297000Y298728D02*
Y302272D01*
X408400Y233600D02*
X409600D01*
X409000Y233000D02*
Y234200D01*
X403400Y233600D02*
X404600D01*
X404000Y233000D02*
Y234200D01*
X413400Y233600D02*
X414600D01*
X414000Y233000D02*
Y234200D01*
X418400Y233600D02*
X419600D01*
X419000Y233000D02*
Y234200D01*
X403400Y257275D02*
X404600D01*
X404000Y256675D02*
Y257875D01*
X403400Y240250D02*
X404600D01*
X404000Y239650D02*
Y240850D01*
X403400Y245925D02*
X404600D01*
X404000Y245325D02*
Y246525D01*
X403400Y251600D02*
X404600D01*
X404000Y251000D02*
Y252200D01*
X408400Y257275D02*
X409600D01*
X409000Y256675D02*
Y257875D01*
X408400Y240250D02*
X409600D01*
X409000Y239650D02*
Y240850D01*
X408400Y245925D02*
X409600D01*
X409000Y245325D02*
Y246525D01*
X408400Y251600D02*
X409600D01*
X409000Y251000D02*
Y252200D01*
X413400Y251600D02*
X414600D01*
X414000Y251000D02*
Y252200D01*
X413400Y257275D02*
X414600D01*
X414000Y256675D02*
Y257875D01*
X418400Y251600D02*
X419600D01*
X419000Y251000D02*
Y252200D01*
X418400Y257275D02*
X419600D01*
X419000Y256675D02*
Y257875D01*
X413400Y240250D02*
X414600D01*
X414000Y239650D02*
Y240850D01*
X413400Y245925D02*
X414600D01*
X414000Y245325D02*
Y246525D01*
X418400Y240250D02*
X419600D01*
X419000Y239650D02*
Y240850D01*
X418400Y245925D02*
X419600D01*
X419000Y245325D02*
Y246525D01*
X184600Y254325D02*
X185800D01*
X185200Y253725D02*
Y254925D01*
X194600Y271350D02*
X195800D01*
X195200Y270750D02*
Y271950D01*
X184600Y260000D02*
X185800D01*
X185200Y259400D02*
Y260600D01*
X184600Y265675D02*
X185800D01*
X185200Y265075D02*
Y266275D01*
X184600Y271350D02*
X185800D01*
X185200Y270750D02*
Y271950D01*
X189600Y254325D02*
X190800D01*
X190200Y253725D02*
Y254925D01*
X189600Y260000D02*
X190800D01*
X190200Y259400D02*
Y260600D01*
X189600Y265675D02*
X190800D01*
X190200Y265075D02*
Y266275D01*
X189600Y271350D02*
X190800D01*
X190200Y270750D02*
Y271950D01*
X194600Y248650D02*
X195800D01*
X195200Y248050D02*
Y249250D01*
X194600Y254325D02*
X195800D01*
X195200Y253725D02*
Y254925D01*
X194600Y260000D02*
X195800D01*
X195200Y259400D02*
Y260600D01*
X194600Y265675D02*
X195800D01*
X195200Y265075D02*
Y266275D01*
X184600Y248650D02*
X185800D01*
X185200Y248050D02*
Y249250D01*
X199600Y254325D02*
X200800D01*
X200200Y253725D02*
Y254925D01*
X189600Y248650D02*
X190800D01*
X190200Y248050D02*
Y249250D01*
X199600Y248650D02*
X200800D01*
X200200Y248050D02*
Y249250D01*
X199600Y260000D02*
X200800D01*
X200200Y259400D02*
Y260600D01*
X199600Y265675D02*
X200800D01*
X200200Y265075D02*
Y266275D01*
X199600Y271350D02*
X200800D01*
X200200Y270750D02*
Y271950D01*
X330000Y229400D02*
X331200D01*
X330600Y228800D02*
Y230000D01*
X322747Y229500D02*
X323947D01*
X323347Y228900D02*
Y230100D01*
X313600Y275600D02*
X314800D01*
X314200Y275000D02*
Y276200D01*
X331200Y276300D02*
X332400D01*
X331800Y275700D02*
Y276900D01*
X328400Y267500D02*
X329600D01*
X329000Y266900D02*
Y268100D01*
X310400Y276000D02*
X311600D01*
X311000Y275400D02*
Y276600D01*
X313506Y271606D02*
X314706D01*
X314106Y271006D02*
Y272206D01*
X311400Y264389D02*
X312600D01*
X312000Y263789D02*
Y264989D01*
X292400Y259000D02*
X293600D01*
X293000Y258400D02*
Y259600D01*
X216900Y251200D02*
X218100D01*
X217500Y250600D02*
Y251800D01*
X226258Y256000D02*
X227458D01*
X226858Y255400D02*
Y256600D01*
X266600Y253282D02*
X267800D01*
X267200Y252682D02*
Y253882D01*
X267000Y265500D02*
X268200D01*
X267600Y264900D02*
Y266100D01*
X269600Y263600D02*
X270800D01*
X270200Y263000D02*
Y264200D01*
X231329Y256000D02*
X232529D01*
X231929Y255400D02*
Y256600D01*
X236400Y256000D02*
X237600D01*
X237000Y255400D02*
Y256600D01*
X345900Y246000D02*
X347100D01*
X346500Y245400D02*
Y246600D01*
X341900Y255000D02*
X343100D01*
X342500Y254400D02*
Y255600D01*
X376022Y257000D02*
X377222D01*
X376622Y256400D02*
Y257600D01*
X349400Y257000D02*
X350600D01*
X350000Y256400D02*
Y257600D01*
X364156Y257000D02*
X365356D01*
X364756Y256400D02*
Y257600D01*
X312900Y281500D02*
X314100D01*
X313500Y280900D02*
Y282100D01*
X315900Y279000D02*
X317100D01*
X316500Y278400D02*
Y279600D01*
X311400Y213000D02*
X312600D01*
X312000Y212400D02*
Y213600D01*
X324900Y240000D02*
X326100D01*
X325500Y239400D02*
Y240600D01*
X324900Y245500D02*
X326100D01*
X325500Y244900D02*
Y246100D01*
X293400Y206500D02*
X294600D01*
X294000Y205900D02*
Y207100D01*
X292400Y242500D02*
X293600D01*
X293000Y241900D02*
Y243100D01*
X274300Y274000D02*
X275500D01*
X274900Y273400D02*
Y274600D01*
X274300Y279000D02*
X275500D01*
X274900Y278400D02*
Y279600D01*
X274300Y284000D02*
X275500D01*
X274900Y283400D02*
Y284600D01*
X273900Y289000D02*
X275100D01*
X274500Y288400D02*
Y289600D01*
X345900Y262500D02*
X347100D01*
X346500Y261900D02*
Y263100D01*
X292400Y266000D02*
X293600D01*
X293000Y265400D02*
Y266600D01*
X289900Y273500D02*
X291100D01*
X290500Y272900D02*
Y274100D01*
X356650Y244000D02*
X357850D01*
X357250Y243400D02*
Y244600D01*
X351400Y244000D02*
X352600D01*
X352000Y243400D02*
Y244600D01*
X381272Y256872D02*
X382472D01*
X381872Y256272D02*
Y257472D01*
X354156Y257000D02*
X355356D01*
X354756Y256400D02*
Y257600D01*
X359156Y257000D02*
X360356D01*
X359756Y256400D02*
Y257600D01*
X276911Y266390D02*
X278111D01*
X277511Y265790D02*
Y266990D01*
X331100Y245500D02*
X332300D01*
X331700Y244900D02*
Y246100D01*
X331100Y240000D02*
X332300D01*
X331700Y239400D02*
Y240600D01*
X344400Y268000D02*
X345600D01*
X345000Y267400D02*
Y268600D01*
X337900Y274000D02*
X339100D01*
X338500Y273400D02*
Y274600D01*
X344129Y240618D02*
X345329D01*
X344729Y240018D02*
Y241218D01*
X280758Y277358D02*
X281958D01*
X281358Y276758D02*
Y277958D01*
X280616Y268717D02*
X281817D01*
X281217Y268116D02*
Y269317D01*
X282341Y256500D02*
X283541D01*
X282941Y255900D02*
Y257100D01*
X282341Y251000D02*
X283541D01*
X282941Y250400D02*
Y251600D01*
X290504Y282368D02*
X291704D01*
X291104Y281768D02*
Y282968D01*
X404400Y289000D02*
X405600D01*
X405000Y288400D02*
Y289600D01*
X404400Y274000D02*
X405600D01*
X405000Y273400D02*
Y274600D01*
X404400Y279000D02*
X405600D01*
X405000Y278400D02*
Y279600D01*
X404400Y284000D02*
X405600D01*
X405000Y283400D02*
Y284600D01*
X337900Y284000D02*
X339100D01*
X338500Y283400D02*
Y284600D01*
X337900Y279000D02*
X339100D01*
X338500Y278400D02*
Y279600D01*
X337900Y289000D02*
X339100D01*
X338500Y288400D02*
Y289600D01*
X207400Y289000D02*
X208600D01*
X208000Y288400D02*
Y289600D01*
X207400Y284000D02*
X208600D01*
X208000Y283400D02*
Y284600D01*
X207400Y279000D02*
X208600D01*
X208000Y278400D02*
Y279600D01*
X207400Y274000D02*
X208600D01*
X208000Y273400D02*
Y274600D01*
X385900Y256872D02*
X387100D01*
X386500Y256272D02*
Y257472D01*
X391272Y256872D02*
X392472D01*
X391872Y256272D02*
Y257472D01*
X228185Y281673D02*
X229385D01*
X228785Y281073D02*
Y282273D01*
X228185Y287173D02*
X229385D01*
X228785Y286573D02*
Y287773D01*
X222935Y287173D02*
X224135D01*
X223535Y286573D02*
Y287773D01*
X222935Y276173D02*
X224135D01*
X223535Y275573D02*
Y276773D01*
X228435Y276173D02*
X229635D01*
X229035Y275573D02*
Y276773D01*
X222935Y281673D02*
X224135D01*
X223535Y281073D02*
Y282273D01*
X233435Y276173D02*
X234635D01*
X234035Y275573D02*
Y276773D01*
X233435Y287173D02*
X234635D01*
X234035Y286573D02*
Y287773D01*
X233435Y281673D02*
X234635D01*
X234035Y281073D02*
Y282273D01*
X255650Y281000D02*
X256850D01*
X256250Y280400D02*
Y281600D01*
X255650Y286500D02*
X256850D01*
X256250Y285900D02*
Y287100D01*
X250400Y286500D02*
X251600D01*
X251000Y285900D02*
Y287100D01*
X250400Y275500D02*
X251600D01*
X251000Y274900D02*
Y276100D01*
X255900Y275500D02*
X257100D01*
X256500Y274900D02*
Y276100D01*
X250400Y281000D02*
X251600D01*
X251000Y280400D02*
Y281600D01*
X260900Y275500D02*
X262100D01*
X261500Y274900D02*
Y276100D01*
X260900Y286500D02*
X262100D01*
X261500Y285900D02*
Y287100D01*
X260900Y281000D02*
X262100D01*
X261500Y280400D02*
Y281600D01*
X355650Y281500D02*
X356850D01*
X356250Y280900D02*
Y282100D01*
X355650Y287000D02*
X356850D01*
X356250Y286400D02*
Y287600D01*
X350400Y287000D02*
X351600D01*
X351000Y286400D02*
Y287600D01*
X350400Y276000D02*
X351600D01*
X351000Y275400D02*
Y276600D01*
X355900Y276000D02*
X357100D01*
X356500Y275400D02*
Y276600D01*
X350400Y281500D02*
X351600D01*
X351000Y280900D02*
Y282100D01*
X360900Y276000D02*
X362100D01*
X361500Y275400D02*
Y276600D01*
X360900Y287000D02*
X362100D01*
X361500Y286400D02*
Y287600D01*
X360900Y281500D02*
X362100D01*
X361500Y280900D02*
Y282100D01*
X384650Y281000D02*
X385850D01*
X385250Y280400D02*
Y281600D01*
X384650Y286500D02*
X385850D01*
X385250Y285900D02*
Y287100D01*
X379400Y286500D02*
X380600D01*
X380000Y285900D02*
Y287100D01*
X379400Y275500D02*
X380600D01*
X380000Y274900D02*
Y276100D01*
X384900Y275500D02*
X386100D01*
X385500Y274900D02*
Y276100D01*
X379400Y281000D02*
X380600D01*
X380000Y280400D02*
Y281600D01*
X389900Y275500D02*
X391100D01*
X390500Y274900D02*
Y276100D01*
X389900Y286500D02*
X391100D01*
X390500Y285900D02*
Y287100D01*
X389900Y281000D02*
X391100D01*
X390500Y280400D02*
Y281600D01*
X356650Y238500D02*
X357850D01*
X357250Y237900D02*
Y239100D01*
X351400Y233000D02*
X352600D01*
X352000Y232400D02*
Y233600D01*
X356900Y233000D02*
X358100D01*
X357500Y232400D02*
Y233600D01*
X351400Y238500D02*
X352600D01*
X352000Y237900D02*
Y239100D01*
X361900Y233000D02*
X363100D01*
X362500Y232400D02*
Y233600D01*
X361900Y244000D02*
X363100D01*
X362500Y243400D02*
Y244600D01*
X361900Y238500D02*
X363100D01*
X362500Y237900D02*
Y239100D01*
X383650Y238000D02*
X384850D01*
X384250Y237400D02*
Y238600D01*
X383650Y243500D02*
X384850D01*
X384250Y242900D02*
Y244100D01*
X378400Y243500D02*
X379600D01*
X379000Y242900D02*
Y244100D01*
X378400Y232500D02*
X379600D01*
X379000Y231900D02*
Y233100D01*
X383900Y232500D02*
X385100D01*
X384500Y231900D02*
Y233100D01*
X378400Y238000D02*
X379600D01*
X379000Y237400D02*
Y238600D01*
X388900Y232500D02*
X390100D01*
X389500Y231900D02*
Y233100D01*
X388900Y243500D02*
X390100D01*
X389500Y242900D02*
Y244100D01*
X388900Y238000D02*
X390100D01*
X389500Y237400D02*
Y238600D01*
X228150Y238000D02*
X229350D01*
X228750Y237400D02*
Y238600D01*
X228150Y243500D02*
X229350D01*
X228750Y242900D02*
Y244100D01*
X222900Y243500D02*
X224100D01*
X223500Y242900D02*
Y244100D01*
X222900Y232500D02*
X224100D01*
X223500Y231900D02*
Y233100D01*
X228400Y232500D02*
X229600D01*
X229000Y231900D02*
Y233100D01*
X222900Y238000D02*
X224100D01*
X223500Y237400D02*
Y238600D01*
X233400Y232500D02*
X234600D01*
X234000Y231900D02*
Y233100D01*
X233400Y243500D02*
X234600D01*
X234000Y242900D02*
Y244100D01*
X233400Y238000D02*
X234600D01*
X234000Y237400D02*
Y238600D01*
X254150Y238000D02*
X255350D01*
X254750Y237400D02*
Y238600D01*
X254150Y243500D02*
X255350D01*
X254750Y242900D02*
Y244100D01*
X248900Y243500D02*
X250100D01*
X249500Y242900D02*
Y244100D01*
X248900Y232500D02*
X250100D01*
X249500Y231900D02*
Y233100D01*
X254150Y232500D02*
X255350D01*
X254750Y231900D02*
Y233100D01*
X248900Y238000D02*
X250100D01*
X249500Y237400D02*
Y238600D01*
X259400Y232500D02*
X260600D01*
X260000Y231900D02*
Y233100D01*
X259400Y243500D02*
X260600D01*
X260000Y242900D02*
Y244100D01*
X259400Y238000D02*
X260600D01*
X260000Y237400D02*
Y238600D01*
X276841Y251000D02*
X278041D01*
X277441Y250400D02*
Y251600D01*
M02*
