G04*
G04 #@! TF.GenerationSoftware,Altium Limited,Altium Designer,23.8.1 (32)*
G04*
G04 Layer_Color=32768*
%FSLAX25Y25*%
%MOIN*%
G70*
G04*
G04 #@! TF.SameCoordinates,08085802-0E6A-4E4E-A806-44F487ACA516*
G04*
G04*
G04 #@! TF.FilePolarity,Positive*
G04*
G01*
G75*
%ADD75C,0.00100*%
%ADD76C,0.00197*%
%ADD77C,0.00004*%
D75*
X396441Y208500D02*
G03*
X396441Y208500I-500J0D01*
G01*
X332400Y279400D02*
G03*
X332400Y279400I-500J0D01*
G01*
X332500Y271500D02*
G03*
X332500Y271500I-500J0D01*
G01*
X284941Y283000D02*
G03*
X284941Y283000I-500J0D01*
G01*
Y273000D02*
G03*
X284941Y273000I-500J0D01*
G01*
X324000Y209500D02*
G03*
X324000Y209500I-500J0D01*
G01*
X310441D02*
G03*
X310441Y209500I-500J0D01*
G01*
X310000Y259500D02*
G03*
X310000Y259500I-500J0D01*
G01*
X323500Y222500D02*
G03*
X323500Y222500I-500J0D01*
G01*
X310001Y230300D02*
G03*
X310001Y230300I-500J0D01*
G01*
Y237600D02*
G03*
X310001Y237600I-500J0D01*
G01*
Y244900D02*
G03*
X310001Y244900I-500J0D01*
G01*
X310000Y252200D02*
G03*
X310000Y252200I-500J0D01*
G01*
X298000Y252000D02*
G03*
X298000Y252000I-500J0D01*
G01*
Y246500D02*
G03*
X298000Y246500I-500J0D01*
G01*
X287999Y235500D02*
G03*
X287999Y235500I-500J0D01*
G01*
X288000Y227000D02*
G03*
X288000Y227000I-500J0D01*
G01*
Y218500D02*
G03*
X288000Y218500I-500J0D01*
G01*
X276500Y227000D02*
G03*
X276500Y227000I-500J0D01*
G01*
X407941Y208500D02*
G03*
X407941Y208500I-500J0D01*
G01*
X420441Y208500D02*
G03*
X420441Y208500I-500J0D01*
G01*
X395154Y208500D02*
X396729D01*
X395941Y207713D02*
Y209288D01*
X331900Y278613D02*
Y280187D01*
X331113Y279400D02*
X332687D01*
X331213Y271500D02*
X332787D01*
X332000Y270713D02*
Y272287D01*
X283654Y283000D02*
X285229D01*
X284441Y282213D02*
Y283788D01*
X283654Y273000D02*
X285229D01*
X284441Y272213D02*
Y273788D01*
X322713Y209500D02*
X324287D01*
X323500Y208713D02*
Y210287D01*
X309941Y208713D02*
Y210287D01*
X309154Y209500D02*
X310728D01*
X309500Y258713D02*
Y260287D01*
X308713Y259500D02*
X310287D01*
X322213Y222500D02*
X323787D01*
X323000Y221713D02*
Y223287D01*
X309501Y229513D02*
Y231087D01*
X308713Y230300D02*
X310288D01*
X309501Y236812D02*
Y238387D01*
X308713Y237600D02*
X310288D01*
X309501Y244113D02*
Y245688D01*
X308713Y244900D02*
X310288D01*
X309500Y251412D02*
Y252987D01*
X308713Y252200D02*
X310287D01*
X296713Y252000D02*
X298287D01*
X297500Y251213D02*
Y252787D01*
X296713Y246500D02*
X298287D01*
X297500Y245713D02*
Y247287D01*
X287499Y234713D02*
Y236287D01*
X286712Y235500D02*
X288287D01*
X287500Y226213D02*
Y227788D01*
X286713Y227000D02*
X288287D01*
X286713Y218500D02*
X288287D01*
X287500Y217713D02*
Y219287D01*
X276000Y226213D02*
Y227787D01*
X275213Y227000D02*
X276787D01*
X407441Y207712D02*
Y209287D01*
X406653Y208500D02*
X408228D01*
X419941Y207713D02*
Y209287D01*
X419153Y208500D02*
X420728D01*
D76*
X406988Y218500D02*
G03*
X406988Y218500I-1378J0D01*
G01*
X270378Y209000D02*
G03*
X270378Y209000I-1378J0D01*
G01*
X344378Y209500D02*
G03*
X344378Y209500I-1378J0D01*
G01*
X395965Y214957D02*
X415256D01*
Y222043D01*
X395965D02*
X415256D01*
X395965Y214957D02*
Y222043D01*
X405610Y216531D02*
Y220468D01*
X403642Y218500D02*
X407579D01*
X269000Y207031D02*
Y210968D01*
X267032Y209000D02*
X270969D01*
X343000Y207531D02*
Y211469D01*
X341032Y209500D02*
X344969D01*
D77*
X400000Y214957D02*
X411221D01*
Y222043D01*
X400000D02*
X411221D01*
X400000Y214957D02*
Y222043D01*
M02*
