G04*
G04 #@! TF.GenerationSoftware,Altium Limited,Altium Designer,23.8.1 (32)*
G04*
G04 Layer_Physical_Order=4*
G04 Layer_Color=16711680*
%FSLAX25Y25*%
%MOIN*%
G70*
G04*
G04 #@! TF.SameCoordinates,08085802-0E6A-4E4E-A806-44F487ACA516*
G04*
G04*
G04 #@! TF.FilePolarity,Positive*
G04*
G01*
G75*
%ADD12C,0.01000*%
%ADD67R,0.07087X0.07087*%
%ADD68C,0.07087*%
%ADD69R,0.05906X0.05906*%
%ADD70C,0.05906*%
%ADD71C,0.02200*%
G36*
X431115Y310458D02*
X432463Y310165D01*
X433730Y309621D01*
X434872Y308848D01*
X435848Y307873D01*
X436621Y306731D01*
X437164Y305464D01*
X437458Y304116D01*
X437474Y303464D01*
X437474Y194537D01*
X437458Y193884D01*
X437165Y192537D01*
X436621Y191269D01*
X435848Y190127D01*
X434873Y189152D01*
X433731Y188379D01*
X432464Y187835D01*
X431116Y187541D01*
X430464Y187525D01*
X185037Y187526D01*
X184384Y187542D01*
X183037Y187835D01*
X181769Y188379D01*
X180627Y189152D01*
X179652Y190127D01*
X178879Y191269D01*
X178335Y192536D01*
X178042Y193884D01*
X178025Y194536D01*
X178026Y303463D01*
X178042Y304115D01*
X178335Y305463D01*
X178879Y306731D01*
X179652Y307873D01*
X180627Y308848D01*
X181769Y309621D01*
X183036Y310164D01*
X184384Y310458D01*
X185036Y310474D01*
X430463D01*
X431115Y310458D01*
D02*
G37*
%LPC*%
G36*
X271871Y306149D02*
X242629D01*
X242510Y306100D01*
X242381Y306100D01*
X242289Y306062D01*
X242198Y305971D01*
X242170Y305959D01*
X242158Y305931D01*
X242115Y305888D01*
X242063Y305839D01*
X242041Y305830D01*
X241826Y305622D01*
X241406Y305635D01*
X241371Y305649D01*
X212129D01*
X212010Y305600D01*
X211881Y305600D01*
X211789Y305562D01*
X211698Y305471D01*
X211670Y305459D01*
X211658Y305431D01*
X211569Y305342D01*
X211541Y305330D01*
X211529Y305302D01*
X211438Y305211D01*
X211400Y305119D01*
X211400Y304990D01*
X211351Y304871D01*
Y299129D01*
X211400Y299010D01*
Y298881D01*
X211491Y298660D01*
X211583Y298569D01*
X211632Y298449D01*
X215449Y294632D01*
X215569Y294583D01*
X215660Y294491D01*
X215881Y294400D01*
X216010D01*
X216129Y294351D01*
X221351D01*
Y274629D01*
X221400Y274510D01*
Y274381D01*
X221491Y274160D01*
X221583Y274069D01*
X221632Y273949D01*
X222949Y272632D01*
X223069Y272583D01*
X223160Y272491D01*
X223381Y272400D01*
X223510D01*
X223629Y272351D01*
X235371D01*
X235490Y272400D01*
X235619Y272400D01*
X235711Y272438D01*
X235802Y272529D01*
X235830Y272541D01*
X235842Y272569D01*
X235931Y272658D01*
X235959Y272670D01*
X235971Y272698D01*
X236062Y272789D01*
X236100Y272881D01*
X236100Y273010D01*
X236149Y273129D01*
Y294231D01*
X237269Y295351D01*
X241371D01*
X241490Y295400D01*
X241619Y295400D01*
X241711Y295438D01*
X241802Y295529D01*
X241830Y295541D01*
X241842Y295569D01*
X241931Y295658D01*
X241959Y295670D01*
X241971Y295698D01*
X242062Y295789D01*
X242100Y295881D01*
X242100Y296010D01*
X242149Y296129D01*
Y296779D01*
X242474Y296913D01*
X242649Y296932D01*
X244949Y294632D01*
X245069Y294583D01*
X245160Y294491D01*
X245381Y294400D01*
X245510D01*
X245629Y294351D01*
X248851D01*
Y274629D01*
X248900Y274510D01*
Y274381D01*
X248991Y274160D01*
X249083Y274069D01*
X249132Y273949D01*
X250449Y272632D01*
X250569Y272583D01*
X250660Y272491D01*
X250881Y272400D01*
X251010D01*
X251129Y272351D01*
X262871D01*
X262990Y272400D01*
X263119Y272400D01*
X263211Y272438D01*
X263302Y272529D01*
X263330Y272541D01*
X263342Y272569D01*
X263431Y272658D01*
X263459Y272670D01*
X263471Y272698D01*
X263562Y272789D01*
X263600Y272881D01*
X263600Y273010D01*
X263649Y273129D01*
Y293731D01*
X264459Y294541D01*
X264459Y294541D01*
X265269Y295351D01*
X265269Y295351D01*
X270871D01*
X270990Y295400D01*
X271119D01*
X271340Y295491D01*
X271431Y295583D01*
X271551Y295632D01*
X272368Y296449D01*
X272417Y296569D01*
X272509Y296660D01*
X272600Y296881D01*
Y297010D01*
X272649Y297129D01*
Y305371D01*
X272600Y305490D01*
X272600Y305619D01*
X272562Y305711D01*
X272471Y305802D01*
X272459Y305830D01*
X272431Y305842D01*
X272342Y305931D01*
X272330Y305959D01*
X272302Y305971D01*
X272211Y306062D01*
X272119Y306100D01*
X271990Y306100D01*
X271871Y306149D01*
D02*
G37*
G36*
X300740Y304240D02*
X297500D01*
Y301000D01*
X300740D01*
Y304240D01*
D02*
G37*
G36*
X207500Y304238D02*
Y301000D01*
X210738D01*
X210485Y301944D01*
X209993Y302797D01*
X209296Y303493D01*
X208444Y303985D01*
X207500Y304238D01*
D02*
G37*
G36*
X287500D02*
Y301000D01*
X290738D01*
X290485Y301944D01*
X289993Y302797D01*
X289297Y303493D01*
X288444Y303985D01*
X287500Y304238D01*
D02*
G37*
G36*
X197500D02*
Y301000D01*
X200738D01*
X200485Y301944D01*
X199993Y302797D01*
X199296Y303493D01*
X198444Y303985D01*
X197500Y304238D01*
D02*
G37*
G36*
X277500D02*
Y301000D01*
X280738D01*
X280485Y301944D01*
X279993Y302797D01*
X279296Y303493D01*
X278444Y303985D01*
X277500Y304238D01*
D02*
G37*
G36*
X187500D02*
Y301000D01*
X190738D01*
X190485Y301944D01*
X189993Y302797D01*
X189296Y303493D01*
X188444Y303985D01*
X187500Y304238D01*
D02*
G37*
G36*
X425500D02*
Y301000D01*
X428738D01*
X428485Y301944D01*
X427993Y302797D01*
X427296Y303493D01*
X426444Y303985D01*
X425500Y304238D01*
D02*
G37*
G36*
X424500D02*
X423556Y303985D01*
X422704Y303493D01*
X422007Y302797D01*
X421515Y301944D01*
X421262Y301000D01*
X424500D01*
Y304238D01*
D02*
G37*
G36*
X415500D02*
Y301000D01*
X418738D01*
X418485Y301944D01*
X417993Y302797D01*
X417297Y303493D01*
X416444Y303985D01*
X415500Y304238D01*
D02*
G37*
G36*
X414500D02*
X413556Y303985D01*
X412704Y303493D01*
X412007Y302797D01*
X411515Y301944D01*
X411262Y301000D01*
X414500D01*
Y304238D01*
D02*
G37*
G36*
X405500D02*
Y301000D01*
X408738D01*
X408485Y301944D01*
X407993Y302797D01*
X407297Y303493D01*
X406444Y303985D01*
X405500Y304238D01*
D02*
G37*
G36*
X335500D02*
Y301000D01*
X338738D01*
X338485Y301944D01*
X337993Y302797D01*
X337297Y303493D01*
X336444Y303985D01*
X335500Y304238D01*
D02*
G37*
G36*
X334500D02*
X333556Y303985D01*
X332703Y303493D01*
X332007Y302797D01*
X331515Y301944D01*
X331262Y301000D01*
X334500D01*
Y304238D01*
D02*
G37*
G36*
X325500D02*
Y301000D01*
X328738D01*
X328485Y301944D01*
X327993Y302797D01*
X327296Y303493D01*
X326444Y303985D01*
X325500Y304238D01*
D02*
G37*
G36*
X324500D02*
X323556Y303985D01*
X322704Y303493D01*
X322007Y302797D01*
X321515Y301944D01*
X321262Y301000D01*
X324500D01*
Y304238D01*
D02*
G37*
G36*
X318740Y304240D02*
X315500D01*
Y301000D01*
X318740D01*
Y304240D01*
D02*
G37*
G36*
X314500D02*
X311260D01*
Y301000D01*
X314500D01*
Y304240D01*
D02*
G37*
G36*
X206500Y304238D02*
X205556Y303985D01*
X204703Y303493D01*
X204007Y302797D01*
X203515Y301944D01*
X203262Y301000D01*
X206500D01*
Y304238D01*
D02*
G37*
G36*
X286500D02*
X285556Y303985D01*
X284703Y303493D01*
X284007Y302797D01*
X283515Y301944D01*
X283262Y301000D01*
X286500D01*
Y304238D01*
D02*
G37*
G36*
X196500D02*
X195556Y303985D01*
X194703Y303493D01*
X194007Y302797D01*
X193515Y301944D01*
X193262Y301000D01*
X196500D01*
Y304238D01*
D02*
G37*
G36*
X276500D02*
X275556Y303985D01*
X274704Y303493D01*
X274007Y302797D01*
X273515Y301944D01*
X273262Y301000D01*
X276500D01*
Y304238D01*
D02*
G37*
G36*
X186500D02*
X185556Y303985D01*
X184704Y303493D01*
X184007Y302797D01*
X183515Y301944D01*
X183262Y301000D01*
X186500D01*
Y304238D01*
D02*
G37*
G36*
X296500Y304240D02*
X293260D01*
Y301000D01*
X296500D01*
Y304240D01*
D02*
G37*
G36*
X290738Y300000D02*
X287500D01*
Y296762D01*
X288444Y297015D01*
X289297Y297507D01*
X289993Y298203D01*
X290485Y299056D01*
X290738Y300000D01*
D02*
G37*
G36*
X280738D02*
X277500D01*
Y296762D01*
X278444Y297015D01*
X279296Y297507D01*
X279993Y298203D01*
X280485Y299056D01*
X280738Y300000D01*
D02*
G37*
G36*
X210738D02*
X207500D01*
Y296762D01*
X208444Y297015D01*
X209296Y297507D01*
X209993Y298203D01*
X210485Y299056D01*
X210738Y300000D01*
D02*
G37*
G36*
X200738D02*
X197500D01*
Y296762D01*
X198444Y297015D01*
X199296Y297507D01*
X199993Y298203D01*
X200485Y299056D01*
X200738Y300000D01*
D02*
G37*
G36*
X190738D02*
X187500D01*
Y296762D01*
X188444Y297015D01*
X189296Y297507D01*
X189993Y298203D01*
X190485Y299056D01*
X190738Y300000D01*
D02*
G37*
G36*
X428738D02*
X425500D01*
Y296762D01*
X426444Y297015D01*
X427296Y297507D01*
X427993Y298203D01*
X428485Y299056D01*
X428738Y300000D01*
D02*
G37*
G36*
X424500D02*
X421262D01*
X421515Y299056D01*
X422007Y298203D01*
X422704Y297507D01*
X423556Y297015D01*
X424500Y296762D01*
Y300000D01*
D02*
G37*
G36*
X418738D02*
X415500D01*
Y296762D01*
X416444Y297015D01*
X417297Y297507D01*
X417993Y298203D01*
X418485Y299056D01*
X418738Y300000D01*
D02*
G37*
G36*
X414500D02*
X411262D01*
X411515Y299056D01*
X412007Y298203D01*
X412704Y297507D01*
X413556Y297015D01*
X414500Y296762D01*
Y300000D01*
D02*
G37*
G36*
X408738D02*
X405500D01*
Y296762D01*
X406444Y297015D01*
X407297Y297507D01*
X407993Y298203D01*
X408485Y299056D01*
X408738Y300000D01*
D02*
G37*
G36*
X366371Y307149D02*
X340629D01*
X340510Y307100D01*
X340381Y307100D01*
X340289Y307062D01*
X340198Y306971D01*
X340170Y306959D01*
X340158Y306931D01*
X340069Y306842D01*
X340041Y306830D01*
X340029Y306802D01*
X339938Y306711D01*
X339900Y306619D01*
X339900Y306490D01*
X339851Y306371D01*
X339851Y298129D01*
X339900Y298010D01*
Y297881D01*
X339991Y297660D01*
X340083Y297569D01*
X340132Y297449D01*
X342949Y294632D01*
X343069Y294583D01*
X343160Y294491D01*
X343381Y294400D01*
X343510D01*
X343629Y294351D01*
X348851D01*
Y273629D01*
X348900Y273510D01*
Y273381D01*
X348991Y273160D01*
X349083Y273069D01*
X349132Y272949D01*
X349449Y272632D01*
X349569Y272583D01*
X349660Y272491D01*
X349881Y272400D01*
X350010D01*
X350129Y272351D01*
X363871D01*
X363990Y272400D01*
X364119Y272400D01*
X364211Y272438D01*
X364302Y272529D01*
X364330Y272541D01*
X364342Y272569D01*
X364431Y272658D01*
X364459Y272670D01*
X364471Y272698D01*
X364562Y272789D01*
X364600Y272881D01*
X364600Y273010D01*
X364649Y273129D01*
Y294731D01*
X365269Y295351D01*
X365269Y295351D01*
X369871D01*
X369990Y295400D01*
X370119Y295400D01*
X370249Y295454D01*
X370340Y295545D01*
X370459Y295594D01*
X370514Y295599D01*
X370945Y295610D01*
X371005Y295576D01*
X371949Y294632D01*
X372069Y294583D01*
X372160Y294491D01*
X372381Y294400D01*
X372510D01*
X372629Y294351D01*
X377851D01*
Y273629D01*
X377900Y273510D01*
Y273381D01*
X377991Y273160D01*
X378083Y273069D01*
X378132Y272949D01*
X378449Y272632D01*
X378569Y272583D01*
X378660Y272491D01*
X378881Y272400D01*
X379010D01*
X379129Y272351D01*
X392371D01*
X392490Y272400D01*
X392619Y272400D01*
X392711Y272438D01*
X392802Y272529D01*
X392830Y272541D01*
X392842Y272569D01*
X392931Y272658D01*
X392959Y272670D01*
X392971Y272698D01*
X393062Y272789D01*
X393100Y272881D01*
X393100Y273010D01*
X393149Y273129D01*
Y293731D01*
X393959Y294541D01*
X393959Y294541D01*
X394769Y295351D01*
X394769Y295351D01*
X398871D01*
X398990Y295400D01*
X399119D01*
X399340Y295491D01*
X399431Y295583D01*
X399551Y295632D01*
X400868Y296949D01*
X400917Y297069D01*
X401009Y297160D01*
X401100Y297381D01*
Y297510D01*
X401149Y297629D01*
Y298689D01*
X401649Y298823D01*
X402007Y298203D01*
X402704Y297507D01*
X403556Y297015D01*
X404500Y296762D01*
Y300500D01*
Y304238D01*
X403556Y303985D01*
X402704Y303493D01*
X402007Y302797D01*
X401649Y302177D01*
X401149Y302311D01*
Y305371D01*
X401100Y305490D01*
X401100Y305619D01*
X401062Y305711D01*
X400971Y305802D01*
X400959Y305830D01*
X400931Y305842D01*
X400842Y305931D01*
X400830Y305959D01*
X400802Y305971D01*
X400711Y306062D01*
X400619Y306100D01*
X400490Y306100D01*
X400371Y306149D01*
X370629D01*
X370510Y306100D01*
X370381Y306100D01*
X370289Y306062D01*
X370198Y305971D01*
X370170Y305959D01*
X370158Y305931D01*
X370069Y305842D01*
X370041Y305830D01*
X370029Y305802D01*
X369938Y305711D01*
X369900Y305619D01*
X369900Y305490D01*
X369851Y305371D01*
Y304721D01*
X369389Y304530D01*
X367051Y306868D01*
X366931Y306917D01*
X366840Y307009D01*
X366619Y307100D01*
X366490D01*
X366371Y307149D01*
D02*
G37*
G36*
X338738Y300000D02*
X335500D01*
Y296762D01*
X336444Y297015D01*
X337297Y297507D01*
X337993Y298203D01*
X338485Y299056D01*
X338738Y300000D01*
D02*
G37*
G36*
X334500D02*
X331262D01*
X331515Y299056D01*
X332007Y298203D01*
X332703Y297507D01*
X333556Y297015D01*
X334500Y296762D01*
Y300000D01*
D02*
G37*
G36*
X328738D02*
X325500D01*
Y296762D01*
X326444Y297015D01*
X327296Y297507D01*
X327993Y298203D01*
X328485Y299056D01*
X328738Y300000D01*
D02*
G37*
G36*
X324500D02*
X321262D01*
X321515Y299056D01*
X322007Y298203D01*
X322704Y297507D01*
X323556Y297015D01*
X324500Y296762D01*
Y300000D01*
D02*
G37*
G36*
X286500D02*
X283262D01*
X283515Y299056D01*
X284007Y298203D01*
X284703Y297507D01*
X285556Y297015D01*
X286500Y296762D01*
Y300000D01*
D02*
G37*
G36*
X276500D02*
X273262D01*
X273515Y299056D01*
X274007Y298203D01*
X274704Y297507D01*
X275556Y297015D01*
X276500Y296762D01*
Y300000D01*
D02*
G37*
G36*
X206500D02*
X203262D01*
X203515Y299056D01*
X204007Y298203D01*
X204703Y297507D01*
X205556Y297015D01*
X206500Y296762D01*
Y300000D01*
D02*
G37*
G36*
X196500D02*
X193262D01*
X193515Y299056D01*
X194007Y298203D01*
X194703Y297507D01*
X195556Y297015D01*
X196500Y296762D01*
Y300000D01*
D02*
G37*
G36*
X186500D02*
X183262D01*
X183515Y299056D01*
X184007Y298203D01*
X184704Y297507D01*
X185556Y297015D01*
X186500Y296762D01*
Y300000D01*
D02*
G37*
G36*
X318740D02*
X315500D01*
Y296760D01*
X318740D01*
Y300000D01*
D02*
G37*
G36*
X314500D02*
X311260D01*
Y296760D01*
X314500D01*
Y300000D01*
D02*
G37*
G36*
X300740D02*
X297500D01*
Y296760D01*
X300740D01*
Y300000D01*
D02*
G37*
G36*
X296500D02*
X293260D01*
Y296760D01*
X296500D01*
Y300000D01*
D02*
G37*
G36*
X291442Y284068D02*
X290766D01*
X290141Y283810D01*
X289821Y283490D01*
X288868D01*
X288868Y283490D01*
X288439Y283405D01*
X288075Y283161D01*
X288075Y283161D01*
X286207Y281293D01*
X285964Y280929D01*
X285878Y280500D01*
X285878Y280500D01*
Y199378D01*
X285629Y199311D01*
X284819Y198843D01*
X284157Y198181D01*
X283689Y197371D01*
X283447Y196468D01*
Y195532D01*
X283689Y194629D01*
X284157Y193819D01*
X284819Y193157D01*
X285629Y192689D01*
X286532Y192447D01*
X287468D01*
X288371Y192689D01*
X289181Y193157D01*
X289843Y193819D01*
X290311Y194629D01*
X290553Y195532D01*
Y196468D01*
X290485Y196722D01*
X290933Y196981D01*
X292340Y195574D01*
X292340Y195574D01*
X292704Y195331D01*
X293133Y195245D01*
X293447Y194900D01*
Y192447D01*
X300553D01*
Y199553D01*
X293447D01*
Y198292D01*
X292985Y198101D01*
X290122Y200965D01*
Y206139D01*
X290583Y206330D01*
X290977Y205937D01*
X290977Y205937D01*
X291341Y205693D01*
X291770Y205608D01*
X292529D01*
X292559Y205537D01*
X293037Y205059D01*
X293662Y204800D01*
X294338D01*
X294963Y205059D01*
X295441Y205537D01*
X295700Y206162D01*
Y206838D01*
X295441Y207463D01*
X294963Y207941D01*
X294338Y208200D01*
X293662D01*
X293037Y207941D01*
X292947Y207851D01*
X292235D01*
X291921Y208165D01*
Y240565D01*
X292422Y240899D01*
X292662Y240800D01*
X293338D01*
X293963Y241059D01*
X294441Y241537D01*
X294700Y242162D01*
Y242838D01*
X294441Y243463D01*
X294122Y243783D01*
Y257717D01*
X294441Y258037D01*
X294700Y258662D01*
Y259338D01*
X294441Y259963D01*
X293963Y260441D01*
X293338Y260700D01*
X292662D01*
X292422Y260600D01*
X291921Y260935D01*
Y263335D01*
X292886Y264300D01*
X293338D01*
X293963Y264559D01*
X294441Y265037D01*
X294700Y265662D01*
Y266338D01*
X294441Y266963D01*
X293963Y267441D01*
X293338Y267700D01*
X292662D01*
X292037Y267441D01*
X291559Y266963D01*
X291300Y266338D01*
Y265886D01*
X290583Y265170D01*
X290122Y265361D01*
Y271535D01*
X290386Y271800D01*
X290838D01*
X291463Y272059D01*
X291941Y272537D01*
X292200Y273162D01*
Y273838D01*
X291941Y274463D01*
X291463Y274941D01*
X290838Y275200D01*
X290162D01*
X289537Y274941D01*
X289059Y274463D01*
X288800Y273838D01*
Y273675D01*
X288621Y273547D01*
X288122Y273803D01*
Y280035D01*
X289325Y281239D01*
X289830D01*
X290141Y280927D01*
X290766Y280668D01*
X291442D01*
X292067Y280927D01*
X292545Y281405D01*
X292804Y282030D01*
Y282707D01*
X292545Y283331D01*
X292067Y283810D01*
X291442Y284068D01*
D02*
G37*
G36*
X405338Y290700D02*
X404662D01*
X404037Y290441D01*
X403559Y289963D01*
X403300Y289338D01*
Y288886D01*
X401707Y287293D01*
X401464Y286929D01*
X401378Y286500D01*
X401378Y286500D01*
Y267465D01*
X398535Y264621D01*
X349965D01*
X346700Y267886D01*
Y268338D01*
X346441Y268963D01*
X345963Y269441D01*
X345338Y269700D01*
X344662D01*
X344037Y269441D01*
X343559Y268963D01*
X343300Y268338D01*
Y267662D01*
X343559Y267037D01*
X344037Y266559D01*
X344662Y266300D01*
X345114D01*
X346714Y264700D01*
X346507Y264200D01*
X346162D01*
X345537Y263941D01*
X345059Y263463D01*
X344800Y262838D01*
Y262162D01*
X344998Y261684D01*
X344574Y261401D01*
X337421Y268553D01*
Y272065D01*
X337922Y272399D01*
X338162Y272300D01*
X338838D01*
X339463Y272559D01*
X339941Y273037D01*
X340200Y273662D01*
Y274338D01*
X339941Y274963D01*
X339463Y275441D01*
X338838Y275700D01*
X338162D01*
X337922Y275601D01*
X337421Y275935D01*
Y285877D01*
X337422Y285877D01*
X337336Y286306D01*
X337093Y286670D01*
X337093Y286670D01*
X334970Y288793D01*
X334606Y289036D01*
X334177Y289122D01*
X334177Y289122D01*
X313000D01*
X313000Y289122D01*
X312571Y289036D01*
X312207Y288793D01*
X312207Y288793D01*
X310207Y286793D01*
X309964Y286429D01*
X309878Y286000D01*
X309878Y286000D01*
Y277283D01*
X309559Y276963D01*
X309300Y276338D01*
Y275662D01*
X309559Y275037D01*
X310037Y274559D01*
X310662Y274300D01*
X311338D01*
X311963Y274559D01*
X312441Y275037D01*
X312700Y275662D01*
Y276338D01*
X312441Y276963D01*
X312122Y277283D01*
Y279821D01*
X312621Y280024D01*
X313162Y279800D01*
X313838D01*
X314463Y280059D01*
X314595Y280191D01*
X314694Y280290D01*
X315059Y279963D01*
X315002Y279827D01*
X314800Y279338D01*
Y278662D01*
X315059Y278037D01*
X315537Y277559D01*
X316162Y277300D01*
X316378D01*
Y271726D01*
X315879Y271492D01*
X315806Y271552D01*
Y271944D01*
X315547Y272569D01*
X315069Y273047D01*
X314444Y273306D01*
X313768D01*
X313143Y273047D01*
X312664Y272569D01*
X312406Y271944D01*
Y271268D01*
X312664Y270643D01*
X313143Y270164D01*
X313768Y269906D01*
X313878D01*
Y265568D01*
X313674Y265467D01*
X313379Y265415D01*
X312963Y265830D01*
X312338Y266089D01*
X311662D01*
X311037Y265830D01*
X310559Y265352D01*
X310300Y264727D01*
Y264051D01*
X310559Y263426D01*
X310878Y263106D01*
Y214283D01*
X310559Y213963D01*
X310300Y213338D01*
Y212662D01*
X310559Y212037D01*
X311037Y211559D01*
X311662Y211300D01*
X312338D01*
X312963Y211559D01*
X313379Y211974D01*
X313674Y211922D01*
X313878Y211821D01*
Y199553D01*
X311447D01*
Y192447D01*
X318553D01*
Y199553D01*
X316122D01*
Y202683D01*
X316621Y202835D01*
X316707Y202707D01*
X321819Y197595D01*
X321689Y197371D01*
X321447Y196468D01*
Y195532D01*
X321689Y194629D01*
X322157Y193819D01*
X322819Y193157D01*
X323629Y192689D01*
X324532Y192447D01*
X325468D01*
X326371Y192689D01*
X327181Y193157D01*
X327843Y193819D01*
X328311Y194629D01*
X328553Y195532D01*
Y196468D01*
X328311Y197371D01*
X327843Y198181D01*
X327181Y198843D01*
X326371Y199311D01*
X325468Y199553D01*
X324532D01*
X323629Y199311D01*
X323405Y199181D01*
X318621Y203965D01*
Y277814D01*
X318536Y278243D01*
X318293Y278607D01*
X318293Y278607D01*
X318200Y278700D01*
Y279338D01*
X317941Y279963D01*
X317463Y280441D01*
X316838Y280700D01*
X316162D01*
X315537Y280441D01*
X315405Y280309D01*
X315306Y280210D01*
X314941Y280537D01*
X314998Y280673D01*
X315200Y281162D01*
Y281838D01*
X314941Y282463D01*
X314621Y282783D01*
Y284878D01*
X333379D01*
Y277833D01*
X332878Y277626D01*
X332763Y277741D01*
X332138Y278000D01*
X331462D01*
X330837Y277741D01*
X330359Y277263D01*
X330100Y276638D01*
Y275962D01*
X330359Y275337D01*
X330679Y275017D01*
Y268933D01*
X330178Y268726D01*
X329963Y268941D01*
X329338Y269200D01*
X328662D01*
X328037Y268941D01*
X327559Y268463D01*
X327300Y267838D01*
Y267162D01*
X327559Y266537D01*
X328037Y266059D01*
X328662Y265800D01*
X328878D01*
Y259000D01*
X328878Y259000D01*
X328964Y258571D01*
X329207Y258207D01*
X344378Y243035D01*
Y242313D01*
X343766Y242059D01*
X343288Y241581D01*
X343029Y240956D01*
Y240280D01*
X343288Y239655D01*
X343766Y239177D01*
X344391Y238918D01*
X345068D01*
X345692Y239177D01*
X346171Y239655D01*
X346429Y240280D01*
Y240956D01*
X346386Y241060D01*
X346536Y241284D01*
X346622Y241714D01*
X346621Y241714D01*
Y243500D01*
X346622Y243500D01*
X346562Y243800D01*
X346819Y244266D01*
X346879Y244317D01*
X347351Y244512D01*
X347851Y244293D01*
Y201149D01*
X341629D01*
X341510Y201100D01*
X341381D01*
X341160Y201009D01*
X341069Y200917D01*
X340949Y200868D01*
X339632Y199551D01*
X339583Y199431D01*
X339491Y199340D01*
X339400Y199119D01*
Y198990D01*
X339351Y198871D01*
Y191629D01*
X339400Y191510D01*
X339400Y191381D01*
X339438Y191289D01*
X339529Y191198D01*
X339541Y191170D01*
X339569Y191158D01*
X339658Y191069D01*
X339670Y191041D01*
X339698Y191029D01*
X339789Y190938D01*
X339881Y190900D01*
X340010Y190900D01*
X340129Y190851D01*
X368946D01*
X369038Y190813D01*
X369157Y190862D01*
X369287D01*
X369748Y191053D01*
X369840Y191145D01*
X369948Y191189D01*
X369969Y191195D01*
X370360Y191226D01*
X370506Y191178D01*
X370541Y191094D01*
X370660Y191045D01*
X370752Y190954D01*
X370881Y190900D01*
X371010D01*
X371129Y190851D01*
X396871D01*
X396990Y190900D01*
X397119D01*
X397340Y190991D01*
X397431Y191083D01*
X397551Y191132D01*
X399868Y193449D01*
X399941Y193627D01*
X400047Y193788D01*
X400138Y194273D01*
X400125Y194335D01*
X400149Y194394D01*
Y200871D01*
X400100Y200990D01*
X400100Y201119D01*
X400062Y201211D01*
X399971Y201302D01*
X399959Y201330D01*
X399931Y201342D01*
X399842Y201431D01*
X399830Y201459D01*
X399802Y201471D01*
X399711Y201562D01*
X399619Y201600D01*
X399490Y201600D01*
X399371Y201649D01*
X399269D01*
X392649Y208269D01*
Y244871D01*
X392600Y244990D01*
X392600Y245119D01*
X392562Y245211D01*
X392471Y245302D01*
X392459Y245330D01*
X392431Y245342D01*
X392342Y245431D01*
X392330Y245459D01*
X392302Y245471D01*
X392211Y245562D01*
X392119Y245600D01*
X391990Y245600D01*
X391871Y245649D01*
X377129D01*
X377010Y245600D01*
X376881Y245600D01*
X376789Y245562D01*
X376698Y245471D01*
X376670Y245459D01*
X376658Y245431D01*
X376569Y245342D01*
X376541Y245330D01*
X376529Y245302D01*
X376438Y245211D01*
X376400Y245119D01*
X376400Y244990D01*
X376351Y244871D01*
Y203149D01*
X373629D01*
X373510Y203100D01*
X373381D01*
X373160Y203009D01*
X373069Y202917D01*
X372949Y202868D01*
X370630Y200548D01*
X370630Y200548D01*
X370611Y200530D01*
X370356Y200539D01*
X370085Y200656D01*
X370009Y200840D01*
X369917Y200931D01*
X369868Y201051D01*
X367304Y203614D01*
X364649Y206269D01*
Y245371D01*
X364600Y245490D01*
X364600Y245619D01*
X364562Y245711D01*
X364471Y245802D01*
X364459Y245830D01*
X364431Y245842D01*
X364342Y245931D01*
X364330Y245959D01*
X364302Y245971D01*
X364211Y246062D01*
X364119Y246100D01*
X363990Y246100D01*
X363871Y246149D01*
X348500D01*
X348119Y246533D01*
X347941Y246963D01*
X347463Y247441D01*
X346838Y247700D01*
X346386D01*
X332922Y261165D01*
Y266734D01*
X333421Y266783D01*
X333464Y266571D01*
X333707Y266207D01*
X342714Y257200D01*
X342507Y256700D01*
X342162D01*
X341537Y256441D01*
X341059Y255963D01*
X340800Y255338D01*
Y254662D01*
X341059Y254037D01*
X341537Y253559D01*
X342162Y253300D01*
X342838D01*
X343463Y253559D01*
X343583Y253678D01*
X379800D01*
X379800Y253678D01*
X380229Y253764D01*
X380593Y254007D01*
X381758Y255172D01*
X382210D01*
X382835Y255431D01*
X383313Y255909D01*
X383572Y256534D01*
Y257210D01*
X383313Y257835D01*
X382835Y258313D01*
X382210Y258572D01*
X381534D01*
X380909Y258313D01*
X380431Y257835D01*
X380172Y257210D01*
Y256758D01*
X379335Y255922D01*
X378557D01*
X378222Y256422D01*
X378322Y256662D01*
Y257338D01*
X378063Y257963D01*
X377585Y258441D01*
X376960Y258700D01*
X376284D01*
X375659Y258441D01*
X375212Y257994D01*
X368593D01*
X364708Y261878D01*
X364915Y262379D01*
X399000D01*
X399000Y262378D01*
X399429Y262464D01*
X399793Y262707D01*
X403293Y266207D01*
X403293Y266207D01*
X403536Y266571D01*
X403622Y267000D01*
X403621Y267000D01*
Y286035D01*
X404886Y287300D01*
X405338D01*
X405963Y287559D01*
X406441Y288037D01*
X406700Y288662D01*
Y289338D01*
X406441Y289963D01*
X405963Y290441D01*
X405338Y290700D01*
D02*
G37*
G36*
X281696Y279058D02*
X281020D01*
X280395Y278800D01*
X279917Y278321D01*
X279658Y277696D01*
Y277020D01*
X279917Y276395D01*
X280237Y276076D01*
Y270141D01*
X279775Y269679D01*
X279517Y269055D01*
Y268378D01*
X279775Y267754D01*
X280254Y267275D01*
X280878Y267017D01*
X281555D01*
X282179Y267275D01*
X282658Y267754D01*
X282916Y268378D01*
Y269055D01*
X282658Y269679D01*
X282480Y269857D01*
Y276076D01*
X282800Y276395D01*
X283058Y277020D01*
Y277696D01*
X282800Y278321D01*
X282321Y278800D01*
X281696Y279058D01*
D02*
G37*
G36*
X274838Y290700D02*
X274162D01*
X273537Y290441D01*
X273059Y289963D01*
X272800Y289338D01*
Y288886D01*
X271907Y287993D01*
X271664Y287629D01*
X271578Y287200D01*
X271579Y287200D01*
Y265279D01*
X271078Y265076D01*
X270538Y265300D01*
X269862D01*
X269800Y265274D01*
X269300Y265609D01*
Y265838D01*
X269041Y266463D01*
X268563Y266941D01*
X267938Y267200D01*
X267262D01*
X266637Y266941D01*
X266159Y266463D01*
X265900Y265838D01*
Y265162D01*
X266127Y264613D01*
X261436Y259922D01*
X217165D01*
X209121Y267965D01*
Y272717D01*
X209441Y273037D01*
X209700Y273662D01*
Y274338D01*
X209441Y274963D01*
X208963Y275441D01*
X208338Y275700D01*
X207662D01*
X207037Y275441D01*
X206559Y274963D01*
X206300Y274338D01*
Y273662D01*
X206559Y273037D01*
X206878Y272717D01*
Y267500D01*
X206878Y267500D01*
X206964Y267071D01*
X207207Y266707D01*
X215907Y258007D01*
X215907Y258007D01*
X216271Y257764D01*
X216700Y257678D01*
X216700Y257679D01*
X225425D01*
X225633Y257178D01*
X225417Y256963D01*
X225158Y256338D01*
Y255662D01*
X225417Y255037D01*
X225895Y254559D01*
X226520Y254300D01*
X227196D01*
X227821Y254559D01*
X228299Y255037D01*
X228558Y255662D01*
Y256338D01*
X228299Y256963D01*
X228084Y257178D01*
X228291Y257679D01*
X230496D01*
X230703Y257178D01*
X230488Y256963D01*
X230229Y256338D01*
Y255662D01*
X230488Y255037D01*
X230966Y254559D01*
X231591Y254300D01*
X232267D01*
X232892Y254559D01*
X233370Y255037D01*
X233629Y255662D01*
Y256338D01*
X233370Y256963D01*
X233155Y257178D01*
X233362Y257679D01*
X235567D01*
X235774Y257178D01*
X235559Y256963D01*
X235300Y256338D01*
Y255662D01*
X235559Y255037D01*
X236037Y254559D01*
X236662Y254300D01*
X237338D01*
X237963Y254559D01*
X238283Y254878D01*
X262600D01*
X262600Y254878D01*
X263029Y254964D01*
X263393Y255207D01*
X270086Y261900D01*
X270538D01*
X271078Y262124D01*
X271579Y261921D01*
Y254450D01*
X271450Y254322D01*
X268565D01*
X268163Y254724D01*
X267538Y254982D01*
X266862D01*
X266237Y254724D01*
X265759Y254245D01*
X265500Y253621D01*
Y252944D01*
X265599Y252704D01*
X265265Y252204D01*
X218900D01*
X218463Y252641D01*
X217838Y252900D01*
X217162D01*
X216537Y252641D01*
X216059Y252163D01*
X215800Y251538D01*
Y250862D01*
X216059Y250237D01*
X216537Y249759D01*
X217162Y249500D01*
X217838D01*
X218463Y249759D01*
X218665Y249961D01*
X273493D01*
X273493Y249961D01*
X273922Y250046D01*
X274286Y250289D01*
X274436Y250440D01*
X274707Y250621D01*
X275237Y251151D01*
X275480Y251515D01*
X275511Y251669D01*
X275530Y251681D01*
X275565Y251938D01*
X275565Y251938D01*
X275565Y251939D01*
X275566Y251944D01*
X275627Y252414D01*
X275622D01*
Y262914D01*
X277397Y264690D01*
X277849D01*
X278474Y264949D01*
X278952Y265427D01*
X279211Y266052D01*
Y266728D01*
X278952Y267353D01*
X278474Y267831D01*
X277849Y268090D01*
X277173D01*
X276548Y267831D01*
X276070Y267353D01*
X275811Y266728D01*
Y266276D01*
X274284Y264748D01*
X273821Y264940D01*
Y286735D01*
X274386Y287300D01*
X274838D01*
X275463Y287559D01*
X275941Y288037D01*
X276200Y288662D01*
Y289338D01*
X275941Y289963D01*
X275463Y290441D01*
X274838Y290700D01*
D02*
G37*
G36*
X392210Y258572D02*
X391534D01*
X390909Y258313D01*
X390431Y257835D01*
X390172Y257210D01*
Y256534D01*
X390431Y255909D01*
X390909Y255431D01*
X391534Y255172D01*
X392210D01*
X392835Y255431D01*
X393313Y255909D01*
X393572Y256534D01*
Y257210D01*
X393313Y257835D01*
X392835Y258313D01*
X392210Y258572D01*
D02*
G37*
G36*
X386838D02*
X386162D01*
X385537Y258313D01*
X385059Y257835D01*
X384800Y257210D01*
Y256534D01*
X385059Y255909D01*
X385537Y255431D01*
X386162Y255172D01*
X386838D01*
X387463Y255431D01*
X387941Y255909D01*
X388200Y256534D01*
Y257210D01*
X387941Y257835D01*
X387463Y258313D01*
X386838Y258572D01*
D02*
G37*
G36*
X323685Y231200D02*
X323009D01*
X322384Y230941D01*
X321906Y230463D01*
X321647Y229838D01*
Y229162D01*
X321906Y228537D01*
X322384Y228059D01*
X323009Y227800D01*
X323685D01*
X324310Y228059D01*
X324580Y228328D01*
X329267D01*
X329637Y227959D01*
X330262Y227700D01*
X330938D01*
X331563Y227959D01*
X332041Y228437D01*
X332300Y229062D01*
Y229738D01*
X332041Y230363D01*
X331563Y230841D01*
X330938Y231100D01*
X330262D01*
X329637Y230841D01*
X329367Y230572D01*
X324680D01*
X324310Y230941D01*
X323685Y231200D01*
D02*
G37*
G36*
X190291Y225531D02*
X190220D01*
Y221700D01*
X194051D01*
Y221770D01*
X193756Y222872D01*
X193186Y223859D01*
X192380Y224665D01*
X191392Y225236D01*
X190291Y225531D01*
D02*
G37*
G36*
X189220D02*
X189150D01*
X188049Y225236D01*
X187061Y224665D01*
X186255Y223859D01*
X185685Y222872D01*
X185390Y221770D01*
Y221700D01*
X189220D01*
Y225531D01*
D02*
G37*
G36*
X194051Y220700D02*
X190220D01*
Y216869D01*
X190291D01*
X191392Y217164D01*
X192380Y217735D01*
X193186Y218541D01*
X193756Y219528D01*
X194051Y220630D01*
Y220700D01*
D02*
G37*
G36*
X189220D02*
X185390D01*
Y220630D01*
X185685Y219528D01*
X186255Y218541D01*
X187061Y217735D01*
X188049Y217164D01*
X189150Y216869D01*
X189220D01*
Y220700D01*
D02*
G37*
G36*
X207500Y199738D02*
Y196500D01*
X210738D01*
X210485Y197444D01*
X209993Y198296D01*
X209296Y198993D01*
X208444Y199485D01*
X207500Y199738D01*
D02*
G37*
G36*
X197500D02*
Y196500D01*
X200738D01*
X200485Y197444D01*
X199993Y198296D01*
X199296Y198993D01*
X198444Y199485D01*
X197500Y199738D01*
D02*
G37*
G36*
X187500D02*
Y196500D01*
X190738D01*
X190485Y197444D01*
X189993Y198296D01*
X189296Y198993D01*
X188444Y199485D01*
X187500Y199738D01*
D02*
G37*
G36*
X425500D02*
Y196500D01*
X428738D01*
X428485Y197444D01*
X427993Y198296D01*
X427296Y198993D01*
X426444Y199485D01*
X425500Y199738D01*
D02*
G37*
G36*
X424500D02*
X423556Y199485D01*
X422704Y198993D01*
X422007Y198296D01*
X421515Y197444D01*
X421262Y196500D01*
X424500D01*
Y199738D01*
D02*
G37*
G36*
X415500D02*
Y196500D01*
X418738D01*
X418485Y197444D01*
X417993Y198296D01*
X417297Y198993D01*
X416444Y199485D01*
X415500Y199738D01*
D02*
G37*
G36*
X414500D02*
X413556Y199485D01*
X412704Y198993D01*
X412007Y198296D01*
X411515Y197444D01*
X411262Y196500D01*
X414500D01*
Y199738D01*
D02*
G37*
G36*
X405500D02*
Y196500D01*
X408738D01*
X408485Y197444D01*
X407993Y198296D01*
X407297Y198993D01*
X406444Y199485D01*
X405500Y199738D01*
D02*
G37*
G36*
X404500D02*
X403556Y199485D01*
X402704Y198993D01*
X402007Y198296D01*
X401515Y197444D01*
X401262Y196500D01*
X404500D01*
Y199738D01*
D02*
G37*
G36*
X206500D02*
X205556Y199485D01*
X204703Y198993D01*
X204007Y198296D01*
X203515Y197444D01*
X203262Y196500D01*
X206500D01*
Y199738D01*
D02*
G37*
G36*
X196500D02*
X195556Y199485D01*
X194703Y198993D01*
X194007Y198296D01*
X193515Y197444D01*
X193262Y196500D01*
X196500D01*
Y199738D01*
D02*
G37*
G36*
X186500D02*
X185556Y199485D01*
X184704Y198993D01*
X184007Y198296D01*
X183515Y197444D01*
X183262Y196500D01*
X186500D01*
Y199738D01*
D02*
G37*
G36*
X335468Y199553D02*
X334532D01*
X333629Y199311D01*
X332819Y198843D01*
X332157Y198181D01*
X331689Y197371D01*
X331447Y196468D01*
Y195532D01*
X331689Y194629D01*
X332157Y193819D01*
X332819Y193157D01*
X333629Y192689D01*
X334532Y192447D01*
X335468D01*
X336371Y192689D01*
X337181Y193157D01*
X337843Y193819D01*
X338311Y194629D01*
X338553Y195532D01*
Y196468D01*
X338311Y197371D01*
X337843Y198181D01*
X337181Y198843D01*
X336371Y199311D01*
X335468Y199553D01*
D02*
G37*
G36*
X277468D02*
X276532D01*
X275629Y199311D01*
X274819Y198843D01*
X274157Y198181D01*
X273689Y197371D01*
X273447Y196468D01*
Y195532D01*
X273689Y194629D01*
X274157Y193819D01*
X274819Y193157D01*
X275629Y192689D01*
X276532Y192447D01*
X277468D01*
X278371Y192689D01*
X279181Y193157D01*
X279843Y193819D01*
X280311Y194629D01*
X280553Y195532D01*
Y196468D01*
X280311Y197371D01*
X279843Y198181D01*
X279181Y198843D01*
X278371Y199311D01*
X277468Y199553D01*
D02*
G37*
G36*
X210738Y195500D02*
X207500D01*
Y192262D01*
X208444Y192515D01*
X209296Y193007D01*
X209993Y193703D01*
X210485Y194556D01*
X210738Y195500D01*
D02*
G37*
G36*
X200738D02*
X197500D01*
Y192262D01*
X198444Y192515D01*
X199296Y193007D01*
X199993Y193703D01*
X200485Y194556D01*
X200738Y195500D01*
D02*
G37*
G36*
X190738D02*
X187500D01*
Y192262D01*
X188444Y192515D01*
X189296Y193007D01*
X189993Y193703D01*
X190485Y194556D01*
X190738Y195500D01*
D02*
G37*
G36*
X428738D02*
X425500D01*
Y192262D01*
X426444Y192515D01*
X427296Y193007D01*
X427993Y193703D01*
X428485Y194556D01*
X428738Y195500D01*
D02*
G37*
G36*
X424500D02*
X421262D01*
X421515Y194556D01*
X422007Y193703D01*
X422704Y193007D01*
X423556Y192515D01*
X424500Y192262D01*
Y195500D01*
D02*
G37*
G36*
X418738D02*
X415500D01*
Y192262D01*
X416444Y192515D01*
X417297Y193007D01*
X417993Y193703D01*
X418485Y194556D01*
X418738Y195500D01*
D02*
G37*
G36*
X414500D02*
X411262D01*
X411515Y194556D01*
X412007Y193703D01*
X412704Y193007D01*
X413556Y192515D01*
X414500Y192262D01*
Y195500D01*
D02*
G37*
G36*
X408738D02*
X405500D01*
Y192262D01*
X406444Y192515D01*
X407297Y193007D01*
X407993Y193703D01*
X408485Y194556D01*
X408738Y195500D01*
D02*
G37*
G36*
X404500D02*
X401262D01*
X401515Y194556D01*
X402007Y193703D01*
X402704Y193007D01*
X403556Y192515D01*
X404500Y192262D01*
Y195500D01*
D02*
G37*
G36*
X206500D02*
X203262D01*
X203515Y194556D01*
X204007Y193703D01*
X204703Y193007D01*
X205556Y192515D01*
X206500Y192262D01*
Y195500D01*
D02*
G37*
G36*
X196500D02*
X193262D01*
X193515Y194556D01*
X194007Y193703D01*
X194703Y193007D01*
X195556Y192515D01*
X196500Y192262D01*
Y195500D01*
D02*
G37*
G36*
X186500D02*
X183262D01*
X183515Y194556D01*
X184007Y193703D01*
X184704Y193007D01*
X185556Y192515D01*
X186500Y192262D01*
Y195500D01*
D02*
G37*
G36*
X236600Y246149D02*
X222600D01*
X222141Y245959D01*
X218541Y242359D01*
X218351Y241900D01*
Y228649D01*
X197500D01*
X197041Y228459D01*
X196841Y228259D01*
X196651Y227800D01*
Y213900D01*
X196841Y213441D01*
X198441Y211841D01*
X198900Y211651D01*
X212151D01*
Y196708D01*
X212231Y196515D01*
X212285Y196313D01*
X212324Y196290D01*
X212325Y196286D01*
X212341Y196211D01*
Y195790D01*
X212325Y195714D01*
X212324Y195710D01*
X212285Y195687D01*
X212231Y195485D01*
X212151Y195292D01*
Y192200D01*
X212341Y191741D01*
X215741Y188341D01*
X216200Y188151D01*
X240500D01*
X240959Y188341D01*
X242859Y190241D01*
X242982Y190537D01*
X242997Y190570D01*
X243158Y190719D01*
X243300Y190781D01*
X243543Y190859D01*
X243609D01*
X243629Y190851D01*
X271371D01*
X271490Y190900D01*
X271619Y190900D01*
X271711Y190938D01*
X271802Y191029D01*
X271830Y191041D01*
X271842Y191069D01*
X271931Y191158D01*
X271959Y191170D01*
X271971Y191198D01*
X272062Y191289D01*
X272100Y191381D01*
X272100Y191510D01*
X272149Y191629D01*
Y199871D01*
X272100Y199990D01*
Y200119D01*
X272009Y200340D01*
X271917Y200431D01*
X271868Y200551D01*
X271551Y200868D01*
X271431Y200917D01*
X271340Y201009D01*
X271119Y201100D01*
X270990D01*
X270871Y201149D01*
X265269D01*
X263649Y202769D01*
X263649Y202769D01*
Y243371D01*
X263600Y243490D01*
Y243619D01*
X263509Y243840D01*
X263417Y243931D01*
X263368Y244051D01*
X262051Y245368D01*
X261931Y245417D01*
X261840Y245509D01*
X261619Y245600D01*
X261490D01*
X261371Y245649D01*
X248129D01*
X248010Y245600D01*
X247881Y245600D01*
X247789Y245562D01*
X247698Y245471D01*
X247670Y245459D01*
X247658Y245431D01*
X247569Y245342D01*
X247541Y245330D01*
X247529Y245302D01*
X247438Y245211D01*
X247400Y245119D01*
X247400Y244990D01*
X247351Y244871D01*
Y204269D01*
X245231Y202149D01*
X243049D01*
Y202300D01*
X242859Y202759D01*
X237249Y208369D01*
Y245500D01*
X237059Y245959D01*
X236600Y246149D01*
D02*
G37*
%LPD*%
G36*
X271962Y305462D02*
X272000Y305371D01*
Y297129D01*
X271909Y296909D01*
X271091Y296091D01*
X270871Y296000D01*
X265000D01*
X264810Y295810D01*
X264810Y295810D01*
X264000Y295000D01*
X263000Y294000D01*
Y293731D01*
Y273129D01*
X262962Y273038D01*
X262871Y273000D01*
X251129D01*
X250909Y273091D01*
X249591Y274409D01*
X249500Y274629D01*
Y294351D01*
Y295000D01*
X245629D01*
X245409Y295091D01*
X243071Y297429D01*
X242500Y298000D01*
Y303000D01*
Y305371D01*
X242538Y305462D01*
X242629Y305500D01*
X271871D01*
X271962Y305462D01*
D02*
G37*
G36*
X241500Y304946D02*
Y296129D01*
X241462Y296038D01*
X241371Y296000D01*
X237000D01*
X236810Y295810D01*
X236810Y295810D01*
X235690Y294690D01*
X235500Y294500D01*
Y273129D01*
X235462Y273038D01*
X235371Y273000D01*
X223629D01*
X223409Y273091D01*
X222091Y274409D01*
X222000Y274629D01*
Y294351D01*
Y295000D01*
X216129D01*
X215909Y295091D01*
X212091Y298909D01*
X212000Y299129D01*
Y304871D01*
X212038Y304962D01*
X212129Y305000D01*
X241371D01*
X241500Y304946D01*
D02*
G37*
%LPC*%
G36*
X257500Y304238D02*
Y301000D01*
X260738D01*
X260485Y301944D01*
X259993Y302797D01*
X259296Y303493D01*
X258444Y303985D01*
X257500Y304238D01*
D02*
G37*
G36*
X267500D02*
Y301000D01*
X270738D01*
X270485Y301944D01*
X269993Y302797D01*
X269297Y303493D01*
X268444Y303985D01*
X267500Y304238D01*
D02*
G37*
G36*
X247500D02*
Y301000D01*
X250738D01*
X250485Y301944D01*
X249993Y302797D01*
X249296Y303493D01*
X248444Y303985D01*
X247500Y304238D01*
D02*
G37*
G36*
X256500D02*
X255556Y303985D01*
X254703Y303493D01*
X254007Y302797D01*
X253515Y301944D01*
X253262Y301000D01*
X256500D01*
Y304238D01*
D02*
G37*
G36*
X266500D02*
X265556Y303985D01*
X264703Y303493D01*
X264007Y302797D01*
X263515Y301944D01*
X263262Y301000D01*
X266500D01*
Y304238D01*
D02*
G37*
G36*
X246500D02*
X245556Y303985D01*
X244704Y303493D01*
X244007Y302797D01*
X243515Y301944D01*
X243262Y301000D01*
X246500D01*
Y304238D01*
D02*
G37*
G36*
X270738Y300000D02*
X267500D01*
Y296762D01*
X268444Y297015D01*
X269297Y297507D01*
X269993Y298203D01*
X270485Y299056D01*
X270738Y300000D01*
D02*
G37*
G36*
X260738D02*
X257500D01*
Y296762D01*
X258444Y297015D01*
X259296Y297507D01*
X259993Y298203D01*
X260485Y299056D01*
X260738Y300000D01*
D02*
G37*
G36*
X250738D02*
X247500D01*
Y296762D01*
X248444Y297015D01*
X249296Y297507D01*
X249993Y298203D01*
X250485Y299056D01*
X250738Y300000D01*
D02*
G37*
G36*
X266500D02*
X263262D01*
X263515Y299056D01*
X264007Y298203D01*
X264703Y297507D01*
X265556Y297015D01*
X266500Y296762D01*
Y300000D01*
D02*
G37*
G36*
X256500D02*
X253262D01*
X253515Y299056D01*
X254007Y298203D01*
X254703Y297507D01*
X255556Y297015D01*
X256500Y296762D01*
Y300000D01*
D02*
G37*
G36*
X246500D02*
X243262D01*
X243515Y299056D01*
X244007Y298203D01*
X244704Y297507D01*
X245556Y297015D01*
X246500Y296762D01*
Y300000D01*
D02*
G37*
G36*
X237500Y304238D02*
Y301000D01*
X240738D01*
X240485Y301944D01*
X239993Y302797D01*
X239297Y303493D01*
X238444Y303985D01*
X237500Y304238D01*
D02*
G37*
G36*
X217500D02*
Y301000D01*
X220738D01*
X220485Y301944D01*
X219993Y302797D01*
X219297Y303493D01*
X218444Y303985D01*
X217500Y304238D01*
D02*
G37*
G36*
X227500D02*
Y301000D01*
X230738D01*
X230485Y301944D01*
X229993Y302797D01*
X229296Y303493D01*
X228444Y303985D01*
X227500Y304238D01*
D02*
G37*
G36*
X236500D02*
X235556Y303985D01*
X234703Y303493D01*
X234007Y302797D01*
X233515Y301944D01*
X233262Y301000D01*
X236500D01*
Y304238D01*
D02*
G37*
G36*
X226500D02*
X225556Y303985D01*
X224704Y303493D01*
X224007Y302797D01*
X223515Y301944D01*
X223262Y301000D01*
X226500D01*
Y304238D01*
D02*
G37*
G36*
X216500D02*
X215556Y303985D01*
X214703Y303493D01*
X214007Y302797D01*
X213515Y301944D01*
X213262Y301000D01*
X216500D01*
Y304238D01*
D02*
G37*
G36*
X240738Y300000D02*
X237500D01*
Y296762D01*
X238444Y297015D01*
X239297Y297507D01*
X239993Y298203D01*
X240485Y299056D01*
X240738Y300000D01*
D02*
G37*
G36*
X230738D02*
X227500D01*
Y296762D01*
X228444Y297015D01*
X229296Y297507D01*
X229993Y298203D01*
X230485Y299056D01*
X230738Y300000D01*
D02*
G37*
G36*
X220738D02*
X217500D01*
Y296762D01*
X218444Y297015D01*
X219297Y297507D01*
X219993Y298203D01*
X220485Y299056D01*
X220738Y300000D01*
D02*
G37*
G36*
X236500D02*
X233262D01*
X233515Y299056D01*
X234007Y298203D01*
X234703Y297507D01*
X235556Y297015D01*
X236500Y296762D01*
Y300000D01*
D02*
G37*
G36*
X226500D02*
X223262D01*
X223515Y299056D01*
X224007Y298203D01*
X224704Y297507D01*
X225556Y297015D01*
X226500Y296762D01*
Y300000D01*
D02*
G37*
G36*
X216500D02*
X213262D01*
X213515Y299056D01*
X214007Y298203D01*
X214703Y297507D01*
X215556Y297015D01*
X216500Y296762D01*
Y300000D01*
D02*
G37*
%LPD*%
G36*
X400462Y305462D02*
X400500Y305371D01*
Y302311D01*
Y298689D01*
Y297629D01*
X400409Y297409D01*
X399091Y296091D01*
X398871Y296000D01*
X394500D01*
X394310Y295810D01*
X394310Y295810D01*
X393500Y295000D01*
X392500Y294000D01*
Y293731D01*
Y273129D01*
X392462Y273038D01*
X392371Y273000D01*
X379129D01*
X378909Y273091D01*
X378591Y273409D01*
X378500Y273629D01*
Y294351D01*
Y295000D01*
X372629D01*
X372409Y295091D01*
X371404Y296096D01*
X370649Y296851D01*
Y302871D01*
X370600Y302990D01*
Y303119D01*
X370509Y303340D01*
X370500Y303348D01*
Y305371D01*
X370538Y305462D01*
X370629Y305500D01*
X400371D01*
X400462Y305462D01*
D02*
G37*
G36*
X366591Y306409D02*
X367715Y305285D01*
D01*
X369507Y303493D01*
X369909Y303091D01*
X370000Y302871D01*
Y296054D01*
X369871Y296000D01*
X365000D01*
X364810Y295810D01*
X364810Y295810D01*
X364190Y295190D01*
X364000Y295000D01*
Y273129D01*
X363962Y273038D01*
X363871Y273000D01*
X350129D01*
X349909Y273091D01*
X349591Y273409D01*
X349500Y273629D01*
Y294351D01*
Y295000D01*
X343629D01*
X343409Y295091D01*
X340591Y297909D01*
X340500Y298129D01*
X340500Y306371D01*
X340538Y306462D01*
X340629Y306500D01*
X366371D01*
X366591Y306409D01*
D02*
G37*
%LPC*%
G36*
X395500Y304238D02*
Y301000D01*
X398738D01*
X398485Y301944D01*
X397993Y302797D01*
X397297Y303493D01*
X396444Y303985D01*
X395500Y304238D01*
D02*
G37*
G36*
X394500D02*
X393556Y303985D01*
X392704Y303493D01*
X392007Y302797D01*
X391515Y301944D01*
X391262Y301000D01*
X394500D01*
Y304238D01*
D02*
G37*
G36*
X385500D02*
Y301000D01*
X388738D01*
X388485Y301944D01*
X387993Y302797D01*
X387297Y303493D01*
X386444Y303985D01*
X385500Y304238D01*
D02*
G37*
G36*
X384500D02*
X383556Y303985D01*
X382703Y303493D01*
X382007Y302797D01*
X381515Y301944D01*
X381262Y301000D01*
X384500D01*
Y304238D01*
D02*
G37*
G36*
X375500D02*
Y301000D01*
X378738D01*
X378485Y301944D01*
X377993Y302797D01*
X377296Y303493D01*
X376444Y303985D01*
X375500Y304238D01*
D02*
G37*
G36*
X374500D02*
X373556Y303985D01*
X372704Y303493D01*
X372007Y302797D01*
X371515Y301944D01*
X371262Y301000D01*
X374500D01*
Y304238D01*
D02*
G37*
G36*
X398738Y300000D02*
X395500D01*
Y296762D01*
X396444Y297015D01*
X397297Y297507D01*
X397993Y298203D01*
X398485Y299056D01*
X398738Y300000D01*
D02*
G37*
G36*
X394500D02*
X391262D01*
X391515Y299056D01*
X392007Y298203D01*
X392704Y297507D01*
X393556Y297015D01*
X394500Y296762D01*
Y300000D01*
D02*
G37*
G36*
X388738D02*
X385500D01*
Y296762D01*
X386444Y297015D01*
X387297Y297507D01*
X387993Y298203D01*
X388485Y299056D01*
X388738Y300000D01*
D02*
G37*
G36*
X384500D02*
X381262D01*
X381515Y299056D01*
X382007Y298203D01*
X382703Y297507D01*
X383556Y297015D01*
X384500Y296762D01*
Y300000D01*
D02*
G37*
G36*
X378738D02*
X375500D01*
Y296762D01*
X376444Y297015D01*
X377296Y297507D01*
X377993Y298203D01*
X378485Y299056D01*
X378738Y300000D01*
D02*
G37*
G36*
X374500D02*
X371262D01*
X371515Y299056D01*
X372007Y298203D01*
X372704Y297507D01*
X373556Y297015D01*
X374500Y296762D01*
Y300000D01*
D02*
G37*
G36*
X365500Y304238D02*
Y301000D01*
X368738D01*
X368485Y301944D01*
X367993Y302797D01*
X367297Y303493D01*
X366444Y303985D01*
X365500Y304238D01*
D02*
G37*
G36*
X364500D02*
X363556Y303985D01*
X362703Y303493D01*
X362007Y302797D01*
X361515Y301944D01*
X361262Y301000D01*
X364500D01*
Y304238D01*
D02*
G37*
G36*
X355500D02*
Y301000D01*
X358738D01*
X358485Y301944D01*
X357993Y302797D01*
X357296Y303493D01*
X356444Y303985D01*
X355500Y304238D01*
D02*
G37*
G36*
X354500D02*
X353556Y303985D01*
X352703Y303493D01*
X352007Y302797D01*
X351515Y301944D01*
X351262Y301000D01*
X354500D01*
Y304238D01*
D02*
G37*
G36*
X345500D02*
Y301000D01*
X348738D01*
X348485Y301944D01*
X347993Y302797D01*
X347297Y303493D01*
X346444Y303985D01*
X345500Y304238D01*
D02*
G37*
G36*
X344500D02*
X343556Y303985D01*
X342704Y303493D01*
X342007Y302797D01*
X341515Y301944D01*
X341262Y301000D01*
X344500D01*
Y304238D01*
D02*
G37*
G36*
X368738Y300000D02*
X365500D01*
Y296762D01*
X366444Y297015D01*
X367297Y297507D01*
X367993Y298203D01*
X368485Y299056D01*
X368738Y300000D01*
D02*
G37*
G36*
X364500D02*
X361262D01*
X361515Y299056D01*
X362007Y298203D01*
X362703Y297507D01*
X363556Y297015D01*
X364500Y296762D01*
Y300000D01*
D02*
G37*
G36*
X358738D02*
X355500D01*
Y296762D01*
X356444Y297015D01*
X357296Y297507D01*
X357993Y298203D01*
X358485Y299056D01*
X358738Y300000D01*
D02*
G37*
G36*
X354500D02*
X351262D01*
X351515Y299056D01*
X352007Y298203D01*
X352703Y297507D01*
X353556Y297015D01*
X354500Y296762D01*
Y300000D01*
D02*
G37*
G36*
X348738D02*
X345500D01*
Y296762D01*
X346444Y297015D01*
X347297Y297507D01*
X347993Y298203D01*
X348485Y299056D01*
X348738Y300000D01*
D02*
G37*
G36*
X344500D02*
X341262D01*
X341515Y299056D01*
X342007Y298203D01*
X342704Y297507D01*
X343556Y297015D01*
X344500Y296762D01*
Y300000D01*
D02*
G37*
%LPD*%
G36*
X391962Y244962D02*
X392000Y244871D01*
Y208269D01*
Y208000D01*
X399000Y201000D01*
X399371D01*
X399462Y200962D01*
X399500Y200871D01*
Y194394D01*
X399409Y193909D01*
Y193909D01*
Y193909D01*
X397091Y191591D01*
X396871Y191500D01*
X371129D01*
X371000Y191553D01*
Y194545D01*
X371500Y194611D01*
X371515Y194556D01*
X372007Y193703D01*
X372704Y193007D01*
X373556Y192515D01*
X374500Y192262D01*
Y196000D01*
Y199738D01*
X373556Y199485D01*
X372704Y198993D01*
X372007Y198296D01*
X371515Y197444D01*
X371500Y197389D01*
X371000Y197455D01*
Y200000D01*
X371089Y200089D01*
X371089Y200089D01*
X373409Y202409D01*
X373629Y202500D01*
X377000D01*
Y244871D01*
X377038Y244962D01*
X377129Y245000D01*
X391871D01*
X391962Y244962D01*
D02*
G37*
G36*
X363962Y245462D02*
X364000Y245371D01*
Y206269D01*
Y206000D01*
X364190Y205810D01*
X364190Y205810D01*
X366845Y203155D01*
X369409Y200591D01*
X369485Y200408D01*
X369500Y200393D01*
Y191653D01*
D01*
X369038Y191462D01*
D01*
X369000Y191500D01*
X340129D01*
X340038Y191538D01*
X340000Y191629D01*
Y198871D01*
X340091Y199091D01*
X341409Y200409D01*
X341629Y200500D01*
X348500D01*
Y245500D01*
X363871D01*
X363962Y245462D01*
D02*
G37*
%LPC*%
G36*
X395500Y199738D02*
Y196500D01*
X398738D01*
X398485Y197444D01*
X397993Y198296D01*
X397297Y198993D01*
X396444Y199485D01*
X395500Y199738D01*
D02*
G37*
G36*
X394500D02*
X393556Y199485D01*
X392704Y198993D01*
X392007Y198296D01*
X391515Y197444D01*
X391262Y196500D01*
X394500D01*
Y199738D01*
D02*
G37*
G36*
X385500D02*
Y196500D01*
X388738D01*
X388485Y197444D01*
X387993Y198296D01*
X387297Y198993D01*
X386444Y199485D01*
X385500Y199738D01*
D02*
G37*
G36*
X384500D02*
X383556Y199485D01*
X382703Y198993D01*
X382007Y198296D01*
X381515Y197444D01*
X381262Y196500D01*
X384500D01*
Y199738D01*
D02*
G37*
G36*
X375500D02*
Y196500D01*
X378738D01*
X378485Y197444D01*
X377993Y198296D01*
X377296Y198993D01*
X376444Y199485D01*
X375500Y199738D01*
D02*
G37*
G36*
X398738Y195500D02*
X395500D01*
Y192262D01*
X396444Y192515D01*
X397297Y193007D01*
X397993Y193703D01*
X398485Y194556D01*
X398738Y195500D01*
D02*
G37*
G36*
X394500D02*
X391262D01*
X391515Y194556D01*
X392007Y193703D01*
X392704Y193007D01*
X393556Y192515D01*
X394500Y192262D01*
Y195500D01*
D02*
G37*
G36*
X388738D02*
X385500D01*
Y192262D01*
X386444Y192515D01*
X387297Y193007D01*
X387993Y193703D01*
X388485Y194556D01*
X388738Y195500D01*
D02*
G37*
G36*
X384500D02*
X381262D01*
X381515Y194556D01*
X382007Y193703D01*
X382703Y193007D01*
X383556Y192515D01*
X384500Y192262D01*
Y195500D01*
D02*
G37*
G36*
X378738D02*
X375500D01*
Y192262D01*
X376444Y192515D01*
X377296Y193007D01*
X377993Y193703D01*
X378485Y194556D01*
X378738Y195500D01*
D02*
G37*
G36*
X365500Y199738D02*
Y196500D01*
X368738D01*
X368485Y197444D01*
X367993Y198296D01*
X367297Y198993D01*
X366444Y199485D01*
X365500Y199738D01*
D02*
G37*
G36*
X364500D02*
X363556Y199485D01*
X362703Y198993D01*
X362007Y198296D01*
X361515Y197444D01*
X361262Y196500D01*
X364500D01*
Y199738D01*
D02*
G37*
G36*
X355500D02*
Y196500D01*
X358738D01*
X358485Y197444D01*
X357993Y198296D01*
X357296Y198993D01*
X356444Y199485D01*
X355500Y199738D01*
D02*
G37*
G36*
X354500D02*
X353556Y199485D01*
X352703Y198993D01*
X352007Y198296D01*
X351515Y197444D01*
X351262Y196500D01*
X354500D01*
Y199738D01*
D02*
G37*
G36*
X345500D02*
Y196500D01*
X348738D01*
X348485Y197444D01*
X347993Y198296D01*
X347297Y198993D01*
X346444Y199485D01*
X345500Y199738D01*
D02*
G37*
G36*
X344500D02*
X343556Y199485D01*
X342704Y198993D01*
X342007Y198296D01*
X341515Y197444D01*
X341262Y196500D01*
X344500D01*
Y199738D01*
D02*
G37*
G36*
X368738Y195500D02*
X365500D01*
Y192262D01*
X366444Y192515D01*
X367297Y193007D01*
X367993Y193703D01*
X368485Y194556D01*
X368738Y195500D01*
D02*
G37*
G36*
X364500D02*
X361262D01*
X361515Y194556D01*
X362007Y193703D01*
X362703Y193007D01*
X363556Y192515D01*
X364500Y192262D01*
Y195500D01*
D02*
G37*
G36*
X358738D02*
X355500D01*
Y192262D01*
X356444Y192515D01*
X357296Y193007D01*
X357993Y193703D01*
X358485Y194556D01*
X358738Y195500D01*
D02*
G37*
G36*
X354500D02*
X351262D01*
X351515Y194556D01*
X352007Y193703D01*
X352703Y193007D01*
X353556Y192515D01*
X354500Y192262D01*
Y195500D01*
D02*
G37*
G36*
X348738D02*
X345500D01*
Y192262D01*
X346444Y192515D01*
X347297Y193007D01*
X347993Y193703D01*
X348485Y194556D01*
X348738Y195500D01*
D02*
G37*
G36*
X344500D02*
X341262D01*
X341515Y194556D01*
X342007Y193703D01*
X342704Y193007D01*
X343556Y192515D01*
X344500Y192262D01*
Y195500D01*
D02*
G37*
%LPD*%
G36*
X261591Y244909D02*
X262909Y243591D01*
X263000Y243371D01*
Y202500D01*
X263190Y202310D01*
X263190Y202310D01*
X264000Y201500D01*
X264000Y201500D01*
X265000Y200500D01*
X270871D01*
X271091Y200409D01*
X271409Y200091D01*
X271500Y199871D01*
Y191629D01*
X271462Y191538D01*
X271371Y191500D01*
X243629D01*
X243609Y191508D01*
X243543D01*
X243488Y191545D01*
X243460Y191540D01*
X243000Y192000D01*
Y194545D01*
X243500Y194611D01*
X243515Y194556D01*
X244007Y193703D01*
X244704Y193007D01*
X245556Y192515D01*
X246500Y192262D01*
Y196000D01*
Y199738D01*
X245556Y199485D01*
X244704Y198993D01*
X244007Y198296D01*
X243515Y197444D01*
X243500Y197389D01*
X243000Y197455D01*
Y201500D01*
X245500D01*
X248000Y204000D01*
Y244871D01*
X248038Y244962D01*
X248129Y245000D01*
X261371D01*
X261591Y244909D01*
D02*
G37*
G36*
X236600Y208100D02*
X242400Y202300D01*
Y201619D01*
X242351Y201500D01*
Y197455D01*
X242400Y197335D01*
Y194665D01*
X242351Y194545D01*
Y192000D01*
X242400Y191881D01*
Y190700D01*
X240500Y188800D01*
X216200D01*
X212800Y192200D01*
Y195292D01*
X213300Y195358D01*
X213515Y194556D01*
X214007Y193703D01*
X214703Y193007D01*
X215556Y192515D01*
X216500Y192262D01*
Y196000D01*
Y199738D01*
X215556Y199485D01*
X214703Y198993D01*
X214007Y198296D01*
X213515Y197444D01*
X213300Y196642D01*
X212800Y196708D01*
Y212300D01*
X198900D01*
X197300Y213900D01*
Y227800D01*
X197500Y228000D01*
X219000D01*
Y241900D01*
X222600Y245500D01*
X236600D01*
Y208100D01*
D02*
G37*
%LPC*%
G36*
X257500Y199738D02*
Y196500D01*
X260738D01*
X260485Y197444D01*
X259993Y198296D01*
X259296Y198993D01*
X258444Y199485D01*
X257500Y199738D01*
D02*
G37*
G36*
X267500D02*
Y196500D01*
X270738D01*
X270485Y197444D01*
X269993Y198296D01*
X269297Y198993D01*
X268444Y199485D01*
X267500Y199738D01*
D02*
G37*
G36*
X247500D02*
Y196500D01*
X250738D01*
X250485Y197444D01*
X249993Y198296D01*
X249296Y198993D01*
X248444Y199485D01*
X247500Y199738D01*
D02*
G37*
G36*
X256500D02*
X255556Y199485D01*
X254703Y198993D01*
X254007Y198296D01*
X253515Y197444D01*
X253262Y196500D01*
X256500D01*
Y199738D01*
D02*
G37*
G36*
X266500D02*
X265556Y199485D01*
X264703Y198993D01*
X264007Y198296D01*
X263515Y197444D01*
X263262Y196500D01*
X266500D01*
Y199738D01*
D02*
G37*
G36*
X270738Y195500D02*
X267500D01*
Y192262D01*
X268444Y192515D01*
X269297Y193007D01*
X269993Y193703D01*
X270485Y194556D01*
X270738Y195500D01*
D02*
G37*
G36*
X260738D02*
X257500D01*
Y192262D01*
X258444Y192515D01*
X259296Y193007D01*
X259993Y193703D01*
X260485Y194556D01*
X260738Y195500D01*
D02*
G37*
G36*
X250738D02*
X247500D01*
Y192262D01*
X248444Y192515D01*
X249296Y193007D01*
X249993Y193703D01*
X250485Y194556D01*
X250738Y195500D01*
D02*
G37*
G36*
X266500D02*
X263262D01*
X263515Y194556D01*
X264007Y193703D01*
X264703Y193007D01*
X265556Y192515D01*
X266500Y192262D01*
Y195500D01*
D02*
G37*
G36*
X256500D02*
X253262D01*
X253515Y194556D01*
X254007Y193703D01*
X254703Y193007D01*
X255556Y192515D01*
X256500Y192262D01*
Y195500D01*
D02*
G37*
G36*
X207831Y225531D02*
X204000D01*
Y221700D01*
X207831D01*
Y225531D01*
D02*
G37*
G36*
X203000D02*
X199169D01*
Y221700D01*
X203000D01*
Y225531D01*
D02*
G37*
G36*
X207831Y220700D02*
X204000D01*
Y216869D01*
X207831D01*
Y220700D01*
D02*
G37*
G36*
X203000D02*
X199169D01*
Y216869D01*
X203000D01*
Y220700D01*
D02*
G37*
G36*
X237500Y199738D02*
Y196500D01*
X240738D01*
X240485Y197444D01*
X239993Y198296D01*
X239297Y198993D01*
X238444Y199485D01*
X237500Y199738D01*
D02*
G37*
G36*
X217500D02*
Y196500D01*
X220738D01*
X220485Y197444D01*
X219993Y198296D01*
X219297Y198993D01*
X218444Y199485D01*
X217500Y199738D01*
D02*
G37*
G36*
X227500D02*
Y196500D01*
X230738D01*
X230485Y197444D01*
X229993Y198296D01*
X229296Y198993D01*
X228444Y199485D01*
X227500Y199738D01*
D02*
G37*
G36*
X236500D02*
X235556Y199485D01*
X234703Y198993D01*
X234007Y198296D01*
X233515Y197444D01*
X233262Y196500D01*
X236500D01*
Y199738D01*
D02*
G37*
G36*
X226500D02*
X225556Y199485D01*
X224704Y198993D01*
X224007Y198296D01*
X223515Y197444D01*
X223262Y196500D01*
X226500D01*
Y199738D01*
D02*
G37*
G36*
X240738Y195500D02*
X237500D01*
Y192262D01*
X238444Y192515D01*
X239297Y193007D01*
X239993Y193703D01*
X240485Y194556D01*
X240738Y195500D01*
D02*
G37*
G36*
X230738D02*
X227500D01*
Y192262D01*
X228444Y192515D01*
X229296Y193007D01*
X229993Y193703D01*
X230485Y194556D01*
X230738Y195500D01*
D02*
G37*
G36*
X220738D02*
X217500D01*
Y192262D01*
X218444Y192515D01*
X219297Y193007D01*
X219993Y193703D01*
X220485Y194556D01*
X220738Y195500D01*
D02*
G37*
G36*
X236500D02*
X233262D01*
X233515Y194556D01*
X234007Y193703D01*
X234703Y193007D01*
X235556Y192515D01*
X236500Y192262D01*
Y195500D01*
D02*
G37*
G36*
X226500D02*
X223262D01*
X223515Y194556D01*
X224007Y193703D01*
X224704Y193007D01*
X225556Y192515D01*
X226500Y192262D01*
Y195500D01*
D02*
G37*
%LPD*%
D12*
X274444Y251944D02*
G03*
X274500Y252414I-1944J470D01*
G01*
X274444Y251944D02*
X274444Y251944D01*
X273914Y251414D02*
X274444Y251944D01*
X330550Y229450D02*
X330600Y229400D01*
X323397Y229450D02*
X330550D01*
X323347Y229500D02*
X323397Y229450D01*
X331800Y260700D02*
Y276300D01*
Y260700D02*
X346500Y246000D01*
X330000Y259000D02*
X345500Y243500D01*
X329000Y267314D02*
X330000Y266314D01*
X329000Y267314D02*
Y267500D01*
X330000Y259000D02*
Y266314D01*
X311000Y276000D02*
Y286000D01*
X315000Y196000D02*
Y270387D01*
X314106Y271281D02*
X315000Y270387D01*
X314106Y271281D02*
Y271606D01*
X312000Y213000D02*
Y264389D01*
X289000Y200500D02*
X293133Y196367D01*
X290800Y263800D02*
X293000Y266000D01*
X290800Y207700D02*
X291770Y206730D01*
X289000Y272000D02*
X290500Y273500D01*
X293000Y242500D02*
Y259000D01*
X289000Y200500D02*
Y272000D01*
X290800Y207700D02*
Y263800D01*
X237000Y256000D02*
X262600D01*
X270200Y263600D01*
X216700Y258800D02*
X261901D01*
X267269Y264169D01*
X208000Y267500D02*
X216700Y258800D01*
X273824Y251414D02*
X273914D01*
X273493Y251082D02*
X273824Y251414D01*
X217618Y251082D02*
X273493D01*
X217500Y251200D02*
X217618Y251082D01*
X274500Y252414D02*
Y263379D01*
X267200Y253282D02*
X267282Y253200D01*
X271914D01*
X274500Y263379D02*
X277511Y266390D01*
X267370Y265270D02*
X267600Y265500D01*
X267370Y264586D02*
Y265270D01*
X267269Y264485D02*
X267370Y264586D01*
X267269Y264169D02*
Y264485D01*
X271914Y253200D02*
X272700Y253986D01*
Y287200D02*
X274500Y289000D01*
X272700Y253986D02*
Y287200D01*
X399000Y263500D02*
X402500Y267000D01*
X349500Y263500D02*
X399000D01*
X402500Y267000D02*
Y286500D01*
X345000Y268000D02*
X349500Y263500D01*
X346500Y262500D02*
X346686D01*
X347686Y261500D01*
X363500D01*
X368128Y256872D01*
X344729Y240943D02*
X345500Y241714D01*
Y243500D01*
X344729Y240618D02*
Y240943D01*
X342700Y254800D02*
X379800D01*
X342500Y255000D02*
X342700Y254800D01*
X334500Y267000D02*
Y285414D01*
Y267000D02*
X344500Y257000D01*
X333914Y286000D02*
X334500Y285414D01*
X376494Y256872D02*
X376622Y257000D01*
X379800Y254800D02*
X381872Y256872D01*
X368128D02*
X376494D01*
X344500Y257000D02*
X350000D01*
X362256Y259500D02*
X364756Y257000D01*
X344889Y259500D02*
X362256D01*
X336300Y268089D02*
X344889Y259500D01*
X314086Y286000D02*
X333914D01*
X313000Y288000D02*
X334177D01*
X336300Y268089D02*
Y285877D01*
X334177Y288000D02*
X336300Y285877D01*
X311000Y286000D02*
X313000Y288000D01*
X313500Y281500D02*
Y285414D01*
X314086Y286000D01*
X317500Y203500D02*
X325000Y196000D01*
X316500Y278814D02*
Y279000D01*
Y278814D02*
X317500Y277814D01*
Y203500D02*
Y277814D01*
X291770Y206730D02*
X293770D01*
X294000Y206500D01*
X287000Y196000D02*
Y280500D01*
X288868Y282368D01*
X291104D01*
X296633Y196367D02*
X297000Y196000D01*
X293133Y196367D02*
X296633D01*
X208000Y267500D02*
Y274000D01*
X281358Y268858D02*
Y277358D01*
X281217Y268717D02*
X281358Y268858D01*
X402500Y286500D02*
X405000Y289000D01*
D67*
X203500Y221200D02*
D03*
D68*
X189720D02*
D03*
D69*
X297000Y196000D02*
D03*
X315000D02*
D03*
Y300500D02*
D03*
X297000D02*
D03*
D70*
X287000Y196000D02*
D03*
X277000D02*
D03*
X267000D02*
D03*
X257000D02*
D03*
X247000D02*
D03*
X237000D02*
D03*
X227000D02*
D03*
X217000D02*
D03*
X207000D02*
D03*
X197000D02*
D03*
X187000D02*
D03*
X325000D02*
D03*
X335000D02*
D03*
X345000D02*
D03*
X355000D02*
D03*
X365000D02*
D03*
X375000D02*
D03*
X385000D02*
D03*
X395000D02*
D03*
X405000D02*
D03*
X415000D02*
D03*
X425000D02*
D03*
X325000Y300500D02*
D03*
X335000D02*
D03*
X345000D02*
D03*
X355000D02*
D03*
X365000D02*
D03*
X375000D02*
D03*
X385000D02*
D03*
X395000D02*
D03*
X405000D02*
D03*
X415000D02*
D03*
X425000D02*
D03*
X187000D02*
D03*
X197000D02*
D03*
X207000D02*
D03*
X217000D02*
D03*
X227000D02*
D03*
X237000D02*
D03*
X247000D02*
D03*
X257000D02*
D03*
X267000D02*
D03*
X277000D02*
D03*
X287000D02*
D03*
D71*
X409000Y233600D02*
D03*
X404000D02*
D03*
X414000D02*
D03*
X419000D02*
D03*
X404000Y257275D02*
D03*
Y240250D02*
D03*
Y245925D02*
D03*
Y251600D02*
D03*
X409000Y257275D02*
D03*
Y240250D02*
D03*
Y245925D02*
D03*
Y251600D02*
D03*
X414000D02*
D03*
Y257275D02*
D03*
X419000Y251600D02*
D03*
Y257275D02*
D03*
X414000Y240250D02*
D03*
Y245925D02*
D03*
X419000Y240250D02*
D03*
Y245925D02*
D03*
X185200Y254325D02*
D03*
X195200Y271350D02*
D03*
X185200Y260000D02*
D03*
Y265675D02*
D03*
Y271350D02*
D03*
X190200Y254325D02*
D03*
Y260000D02*
D03*
Y265675D02*
D03*
Y271350D02*
D03*
X195200Y248650D02*
D03*
Y254325D02*
D03*
Y260000D02*
D03*
Y265675D02*
D03*
X185200Y248650D02*
D03*
X200200Y254325D02*
D03*
X190200Y248650D02*
D03*
X200200D02*
D03*
Y260000D02*
D03*
Y265675D02*
D03*
Y271350D02*
D03*
X330600Y229400D02*
D03*
X323347Y229500D02*
D03*
X314200Y275600D02*
D03*
X331800Y276300D02*
D03*
X329000Y267500D02*
D03*
X311000Y276000D02*
D03*
X314106Y271606D02*
D03*
X312000Y264389D02*
D03*
X293000Y259000D02*
D03*
X217500Y251200D02*
D03*
X226858Y256000D02*
D03*
X267200Y253282D02*
D03*
X267600Y265500D02*
D03*
X270200Y263600D02*
D03*
X231929Y256000D02*
D03*
X237000D02*
D03*
X346500Y246000D02*
D03*
X342500Y255000D02*
D03*
X376622Y257000D02*
D03*
X350000D02*
D03*
X364756D02*
D03*
X313500Y281500D02*
D03*
X316500Y279000D02*
D03*
X312000Y213000D02*
D03*
X325500Y240000D02*
D03*
Y245500D02*
D03*
X294000Y206500D02*
D03*
X293000Y242500D02*
D03*
X274900Y274000D02*
D03*
Y279000D02*
D03*
Y284000D02*
D03*
X274500Y289000D02*
D03*
X346500Y262500D02*
D03*
X293000Y266000D02*
D03*
X290500Y273500D02*
D03*
X357250Y244000D02*
D03*
X352000D02*
D03*
X381872Y256872D02*
D03*
X354756Y257000D02*
D03*
X359756D02*
D03*
X277511Y266390D02*
D03*
X331700Y245500D02*
D03*
Y240000D02*
D03*
X345000Y268000D02*
D03*
X338500Y274000D02*
D03*
X344729Y240618D02*
D03*
X281358Y277358D02*
D03*
X281217Y268717D02*
D03*
X282941Y256500D02*
D03*
Y251000D02*
D03*
X291104Y282368D02*
D03*
X405000Y289000D02*
D03*
X405000Y274000D02*
D03*
Y279000D02*
D03*
Y284000D02*
D03*
X338500Y284000D02*
D03*
Y279000D02*
D03*
Y289000D02*
D03*
X208000D02*
D03*
Y284000D02*
D03*
Y279000D02*
D03*
Y274000D02*
D03*
X386500Y256872D02*
D03*
X391872D02*
D03*
X228785Y281673D02*
D03*
Y287173D02*
D03*
X223535D02*
D03*
Y276173D02*
D03*
X229035D02*
D03*
X223535Y281673D02*
D03*
X234035Y276173D02*
D03*
Y287173D02*
D03*
Y281673D02*
D03*
X256250Y281000D02*
D03*
Y286500D02*
D03*
X251000D02*
D03*
Y275500D02*
D03*
X256500D02*
D03*
X251000Y281000D02*
D03*
X261500Y275500D02*
D03*
Y286500D02*
D03*
Y281000D02*
D03*
X356250Y281500D02*
D03*
Y287000D02*
D03*
X351000D02*
D03*
Y276000D02*
D03*
X356500D02*
D03*
X351000Y281500D02*
D03*
X361500Y276000D02*
D03*
Y287000D02*
D03*
Y281500D02*
D03*
X385250Y281000D02*
D03*
Y286500D02*
D03*
X380000D02*
D03*
Y275500D02*
D03*
X385500D02*
D03*
X380000Y281000D02*
D03*
X390500Y275500D02*
D03*
Y286500D02*
D03*
Y281000D02*
D03*
X357250Y238500D02*
D03*
X352000Y233000D02*
D03*
X357500D02*
D03*
X352000Y238500D02*
D03*
X362500Y233000D02*
D03*
Y244000D02*
D03*
Y238500D02*
D03*
X384250Y238000D02*
D03*
Y243500D02*
D03*
X379000D02*
D03*
Y232500D02*
D03*
X384500D02*
D03*
X379000Y238000D02*
D03*
X389500Y232500D02*
D03*
Y243500D02*
D03*
Y238000D02*
D03*
X228750D02*
D03*
Y243500D02*
D03*
X223500D02*
D03*
Y232500D02*
D03*
X229000D02*
D03*
X223500Y238000D02*
D03*
X234000Y232500D02*
D03*
Y243500D02*
D03*
Y238000D02*
D03*
X254750D02*
D03*
Y243500D02*
D03*
X249500D02*
D03*
Y232500D02*
D03*
X254750D02*
D03*
X249500Y238000D02*
D03*
X260000Y232500D02*
D03*
Y243500D02*
D03*
Y238000D02*
D03*
X277441Y251000D02*
D03*
M02*
