G04*
G04 #@! TF.GenerationSoftware,Altium Limited,Altium Designer,23.8.1 (32)*
G04*
G04 Layer_Color=255*
%FSLAX25Y25*%
%MOIN*%
G70*
G04*
G04 #@! TF.SameCoordinates,08085802-0E6A-4E4E-A806-44F487ACA516*
G04*
G04*
G04 #@! TF.FilePolarity,Positive*
G04*
G01*
G75*
G04:AMPARAMS|DCode=23|XSize=100.39mil|YSize=100.39mil|CornerRadius=5.02mil|HoleSize=0mil|Usage=FLASHONLY|Rotation=180.000|XOffset=0mil|YOffset=0mil|HoleType=Round|Shape=RoundedRectangle|*
%AMROUNDEDRECTD23*
21,1,0.10039,0.09035,0,0,180.0*
21,1,0.09035,0.10039,0,0,180.0*
1,1,0.01004,-0.04518,0.04518*
1,1,0.01004,0.04518,0.04518*
1,1,0.01004,0.04518,-0.04518*
1,1,0.01004,-0.04518,-0.04518*
%
%ADD23ROUNDEDRECTD23*%
%ADD24O,0.01181X0.03937*%
%ADD25O,0.03937X0.01181*%
%ADD26R,0.03000X0.03000*%
%ADD27R,0.03937X0.03347*%
%ADD28R,0.16732X0.13780*%
%ADD29R,0.01772X0.06299*%
%ADD30R,0.01772X0.04331*%
%ADD31R,0.21654X0.01181*%
%ADD32R,0.13780X0.16732*%
%ADD33R,0.06299X0.01772*%
%ADD34R,0.04331X0.01772*%
%ADD35R,0.01181X0.21654*%
G04:AMPARAMS|DCode=36|XSize=30mil|YSize=30mil|CornerRadius=0mil|HoleSize=0mil|Usage=FLASHONLY|Rotation=180.000|XOffset=0mil|YOffset=0mil|HoleType=Round|Shape=Octagon|*
%AMOCTAGOND36*
4,1,8,-0.01500,0.00750,-0.01500,-0.00750,-0.00750,-0.01500,0.00750,-0.01500,0.01500,-0.00750,0.01500,0.00750,0.00750,0.01500,-0.00750,0.01500,-0.01500,0.00750,0.0*
%
%ADD36OCTAGOND36*%

G04:AMPARAMS|DCode=37|XSize=100.39mil|YSize=100.39mil|CornerRadius=5.02mil|HoleSize=0mil|Usage=FLASHONLY|Rotation=90.000|XOffset=0mil|YOffset=0mil|HoleType=Round|Shape=RoundedRectangle|*
%AMROUNDEDRECTD37*
21,1,0.10039,0.09035,0,0,90.0*
21,1,0.09035,0.10039,0,0,90.0*
1,1,0.01004,0.04518,0.04518*
1,1,0.01004,0.04518,-0.04518*
1,1,0.01004,-0.04518,-0.04518*
1,1,0.01004,-0.04518,0.04518*
%
%ADD37ROUNDEDRECTD37*%
%ADD38R,0.06693X0.01378*%
%ADD39O,0.06693X0.01378*%
%ADD40R,0.03937X0.03150*%
G04:AMPARAMS|DCode=41|XSize=39.37mil|YSize=31.5mil|CornerRadius=0mil|HoleSize=0mil|Usage=FLASHONLY|Rotation=0.000|XOffset=0mil|YOffset=0mil|HoleType=Round|Shape=Octagon|*
%AMOCTAGOND41*
4,1,8,0.01968,-0.00787,0.01968,0.00787,0.01181,0.01575,-0.01181,0.01575,-0.01968,0.00787,-0.01968,-0.00787,-0.01181,-0.01575,0.01181,-0.01575,0.01968,-0.00787,0.0*
%
%ADD41OCTAGOND41*%

%ADD67R,0.07087X0.07087*%
%ADD68C,0.07087*%
%ADD69R,0.05906X0.05906*%
%ADD70C,0.05906*%
D23*
X280232Y253953D02*
D03*
D24*
X275311Y245685D02*
D03*
X277279D02*
D03*
X279248D02*
D03*
X281217D02*
D03*
X283185D02*
D03*
X285154D02*
D03*
Y262221D02*
D03*
X283185D02*
D03*
X281217D02*
D03*
X279248D02*
D03*
X277279D02*
D03*
X275311D02*
D03*
X323579Y234232D02*
D03*
X325547D02*
D03*
X327516D02*
D03*
X329484D02*
D03*
X331453D02*
D03*
X333421D02*
D03*
Y250768D02*
D03*
X331453D02*
D03*
X329484D02*
D03*
X327516D02*
D03*
X325547D02*
D03*
X323579D02*
D03*
D25*
X288500Y249031D02*
D03*
Y251000D02*
D03*
Y252969D02*
D03*
Y254937D02*
D03*
Y256906D02*
D03*
Y258874D02*
D03*
X271965D02*
D03*
Y256906D02*
D03*
Y254937D02*
D03*
Y252969D02*
D03*
Y251000D02*
D03*
Y249031D02*
D03*
X320232Y247421D02*
D03*
Y245453D02*
D03*
Y243484D02*
D03*
Y241516D02*
D03*
Y239547D02*
D03*
Y237579D02*
D03*
X336768D02*
D03*
Y239547D02*
D03*
Y241516D02*
D03*
Y243484D02*
D03*
Y245453D02*
D03*
Y247421D02*
D03*
D26*
X398500Y208500D02*
D03*
X393382D02*
D03*
X334459Y279400D02*
D03*
X329341D02*
D03*
X329441Y271500D02*
D03*
X334559D02*
D03*
X281883Y283001D02*
D03*
X287001D02*
D03*
X281883Y273001D02*
D03*
X287001D02*
D03*
X320941Y209500D02*
D03*
X326059D02*
D03*
X313000Y209500D02*
D03*
X312059Y259500D02*
D03*
X306941D02*
D03*
X325559Y222500D02*
D03*
X320441D02*
D03*
X306941Y230300D02*
D03*
X312059D02*
D03*
X312060Y237600D02*
D03*
X306942D02*
D03*
X306941Y244900D02*
D03*
X312059D02*
D03*
Y252200D02*
D03*
X306941D02*
D03*
X294941Y252000D02*
D03*
X300059D02*
D03*
X294941Y246500D02*
D03*
X300059D02*
D03*
X290059Y235500D02*
D03*
X284941D02*
D03*
Y227000D02*
D03*
X290059D02*
D03*
Y218500D02*
D03*
X284941D02*
D03*
X278559Y227000D02*
D03*
X273441D02*
D03*
X410000Y208500D02*
D03*
X404882D02*
D03*
X416882D02*
D03*
D27*
X412500Y218500D02*
D03*
X398721D02*
D03*
D28*
X384244Y238032D02*
D03*
X357256D02*
D03*
X255713D02*
D03*
X229287D02*
D03*
D29*
X391744Y229567D02*
D03*
X386744D02*
D03*
X381744D02*
D03*
X376744D02*
D03*
X364756D02*
D03*
X359756D02*
D03*
X354756D02*
D03*
X349756D02*
D03*
X248213D02*
D03*
X253213D02*
D03*
X258213D02*
D03*
X263213D02*
D03*
X221787D02*
D03*
X226787D02*
D03*
X231787D02*
D03*
X236787D02*
D03*
D30*
X391744Y251417D02*
D03*
X386744D02*
D03*
X381744D02*
D03*
X376744D02*
D03*
X364756D02*
D03*
X359756D02*
D03*
X354756D02*
D03*
X349756D02*
D03*
X248213D02*
D03*
X253213D02*
D03*
X258213D02*
D03*
X263213D02*
D03*
X221787D02*
D03*
X226787D02*
D03*
X231787D02*
D03*
X236787D02*
D03*
D31*
X384244Y240000D02*
D03*
X357256D02*
D03*
X255713D02*
D03*
X229287D02*
D03*
D32*
X385032Y281500D02*
D03*
X356469Y281500D02*
D03*
X228500D02*
D03*
X256500Y281500D02*
D03*
D33*
X376567Y274000D02*
D03*
Y279000D02*
D03*
Y284000D02*
D03*
Y289000D02*
D03*
X364933Y289000D02*
D03*
Y284000D02*
D03*
Y279000D02*
D03*
Y274000D02*
D03*
X236965Y289000D02*
D03*
Y284000D02*
D03*
Y279000D02*
D03*
Y274000D02*
D03*
X248035Y289000D02*
D03*
Y284000D02*
D03*
Y279000D02*
D03*
Y274000D02*
D03*
D34*
X398417D02*
D03*
Y279000D02*
D03*
Y284000D02*
D03*
Y289000D02*
D03*
X343083Y289000D02*
D03*
Y284000D02*
D03*
Y279000D02*
D03*
Y274000D02*
D03*
X215114Y289000D02*
D03*
Y284000D02*
D03*
Y279000D02*
D03*
Y274000D02*
D03*
X269886Y289000D02*
D03*
Y284000D02*
D03*
Y279000D02*
D03*
Y274000D02*
D03*
D35*
X387000Y281500D02*
D03*
X354500D02*
D03*
X226532D02*
D03*
X258469D02*
D03*
D36*
X306882Y209500D02*
D03*
X423000Y208500D02*
D03*
D37*
X328500Y242500D02*
D03*
D38*
X297197Y284295D02*
D03*
D39*
Y281736D02*
D03*
Y279177D02*
D03*
Y276618D02*
D03*
Y274059D02*
D03*
Y271500D02*
D03*
Y268941D02*
D03*
X322000D02*
D03*
Y271500D02*
D03*
Y274059D02*
D03*
Y276618D02*
D03*
Y279177D02*
D03*
Y281736D02*
D03*
Y284295D02*
D03*
D40*
X263488Y209000D02*
D03*
X348512Y209500D02*
D03*
D41*
X274512Y209000D02*
D03*
X337488Y209500D02*
D03*
D67*
X203500Y221200D02*
D03*
D68*
X189720D02*
D03*
D69*
X297000Y196000D02*
D03*
X315000D02*
D03*
Y300500D02*
D03*
X297000D02*
D03*
D70*
X287000Y196000D02*
D03*
X277000D02*
D03*
X267000D02*
D03*
X257000D02*
D03*
X247000D02*
D03*
X237000D02*
D03*
X227000D02*
D03*
X217000D02*
D03*
X207000D02*
D03*
X197000D02*
D03*
X187000D02*
D03*
X325000D02*
D03*
X335000D02*
D03*
X345000D02*
D03*
X355000D02*
D03*
X365000D02*
D03*
X375000D02*
D03*
X385000D02*
D03*
X395000D02*
D03*
X405000D02*
D03*
X415000D02*
D03*
X425000D02*
D03*
X325000Y300500D02*
D03*
X335000D02*
D03*
X345000D02*
D03*
X355000D02*
D03*
X365000D02*
D03*
X375000D02*
D03*
X385000D02*
D03*
X395000D02*
D03*
X405000D02*
D03*
X415000D02*
D03*
X425000D02*
D03*
X187000D02*
D03*
X197000D02*
D03*
X207000D02*
D03*
X217000D02*
D03*
X227000D02*
D03*
X237000D02*
D03*
X247000D02*
D03*
X257000D02*
D03*
X267000D02*
D03*
X277000D02*
D03*
X287000D02*
D03*
M02*
